<?xml version="1.0" encoding="UTF-8" standalone="no"?>
<!-- Created with Inkscape (http://www.inkscape.org/) -->

<svg
   xmlns:dc="http://purl.org/dc/elements/1.1/"
   xmlns:cc="http://creativecommons.org/ns#"
   xmlns:rdf="http://www.w3.org/1999/02/22-rdf-syntax-ns#"
   xmlns:svg="http://www.w3.org/2000/svg"
   xmlns="http://www.w3.org/2000/svg"
   xmlns:xlink="http://www.w3.org/1999/xlink"
   xmlns:sodipodi="http://sodipodi.sourceforge.net/DTD/sodipodi-0.dtd"
   xmlns:inkscape="http://www.inkscape.org/namespaces/inkscape"
   width="32"
   height="32"
   id="svg2"
   version="1.1"
   inkscape:version="0.48.3.1 r9886"
   sodipodi:docname="cantamus.svg">
  <defs
     id="defs4">
    <linearGradient
       id="linearGradient3929">
      <stop
         style="stop-color:#ff0000;stop-opacity:1;"
         offset="0"
         id="stop3931" />
      <stop
         id="stop3933"
         offset="0.09068126"
         style="stop-color:#ff9000;stop-opacity:1;" />
      <stop
         style="stop-color:#ffff00;stop-opacity:1;"
         offset="0.27457407"
         id="stop3935" />
      <stop
         id="stop3937"
         offset="0.44742489"
         style="stop-color:#00ff00;stop-opacity:1;" />
      <stop
         style="stop-color:#00ffff;stop-opacity:1;"
         offset="0.58892626"
         id="stop3939" />
      <stop
         id="stop3941"
         offset="0.77404392"
         style="stop-color:#0000ff;stop-opacity:1;" />
      <stop
         style="stop-color:#ff00ff;stop-opacity:1;"
         offset="0.85801917"
         id="stop3943" />
      <stop
         style="stop-color:#ff0000;stop-opacity:1;"
         offset="1"
         id="stop3945" />
    </linearGradient>
    <linearGradient
       id="linearGradient3863">
      <stop
         id="stop3865"
         offset="0"
         style="stop-color:#ff0000;stop-opacity:1;" />
      <stop
         style="stop-color:#ff9000;stop-opacity:1;"
         offset="0.08893644"
         id="stop3867" />
      <stop
         id="stop3869"
         offset="0.22261083"
         style="stop-color:#ffff00;stop-opacity:1;" />
      <stop
         style="stop-color:#00ff00;stop-opacity:1;"
         offset="0.3770515"
         id="stop3871" />
      <stop
         id="stop3873"
         offset="0.50649345"
         style="stop-color:#00ffff;stop-opacity:1;" />
      <stop
         style="stop-color:#0000ff;stop-opacity:1;"
         offset="0.66135269"
         id="stop3875" />
      <stop
         id="stop3877"
         offset="0.85801917"
         style="stop-color:#ff00ff;stop-opacity:1;" />
      <stop
         id="stop3879"
         offset="1"
         style="stop-color:#ff0000;stop-opacity:1;" />
    </linearGradient>
    <linearGradient
       id="linearGradient3841">
      <stop
         style="stop-color:#ff0000;stop-opacity:1;"
         offset="0"
         id="stop3843" />
      <stop
         id="stop3845"
         offset="0.08893644"
         style="stop-color:#ff9000;stop-opacity:1;" />
      <stop
         style="stop-color:#ffff00;stop-opacity:1;"
         offset="0.26764548"
         id="stop3847" />
      <stop
         id="stop3849"
         offset="0.45933178"
         style="stop-color:#00ff00;stop-opacity:1;" />
      <stop
         style="stop-color:#00ffff;stop-opacity:1;"
         offset="0.61286175"
         id="stop3851" />
      <stop
         id="stop3853"
         offset="0.77589297"
         style="stop-color:#0000ff;stop-opacity:1;" />
      <stop
         style="stop-color:#ff00ff;stop-opacity:1;"
         offset="0.91637796"
         id="stop3855" />
      <stop
         style="stop-color:#ff0000;stop-opacity:1;"
         offset="1"
         id="stop3857" />
    </linearGradient>
    <linearGradient
       id="linearGradient3773">
      <stop
         id="stop3775"
         offset="0"
         style="stop-color:#ff0000;stop-opacity:1;" />
      <stop
         style="stop-color:#ff9000;stop-opacity:1;"
         offset="0.10074627"
         id="stop3779" />
      <stop
         id="stop3781"
         offset="0.37242135"
         style="stop-color:#ffff00;stop-opacity:1;" />
      <stop
         style="stop-color:#00ff00;stop-opacity:1;"
         offset="0.60952359"
         id="stop3783" />
      <stop
         id="stop3785"
         offset="0.69574487"
         style="stop-color:#00ffff;stop-opacity:1;" />
      <stop
         style="stop-color:#0000ff;stop-opacity:1;"
         offset="0.8022154"
         id="stop3787" />
      <stop
         id="stop3789"
         offset="0.9080804"
         style="stop-color:#ff00ff;stop-opacity:1;" />
      <stop
         id="stop3777"
         offset="1"
         style="stop-color:#ff0000;stop-opacity:1;" />
    </linearGradient>
    <linearGradient
       inkscape:collect="always"
       xlink:href="#linearGradient3773"
       id="linearGradient3791"
       x1="23.973801"
       y1="1.5411874"
       x2="24.092972"
       y2="22.198921"
       gradientUnits="userSpaceOnUse" />
    <linearGradient
       inkscape:collect="always"
       xlink:href="#linearGradient3929"
       id="linearGradient3861"
       x1="28.116602"
       y1="1049.0901"
       x2="28.108782"
       y2="1020.6006"
       gradientUnits="userSpaceOnUse"
       gradientTransform="matrix(0.40912249,0,0,-0.52561094,17.780374,1574.66)" />
    <linearGradient
       inkscape:collect="always"
       xlink:href="#linearGradient3863"
       id="linearGradient3893"
       x1="0.65599436"
       y1="21.172247"
       x2="31.624952"
       y2="21.172247"
       gradientUnits="userSpaceOnUse"
       gradientTransform="matrix(1.6603733,0,0,1.5392389,-4.17542,1007.0005)" />
    <linearGradient
       inkscape:collect="always"
       xlink:href="#linearGradient3863"
       id="linearGradient3901"
       x1="0.29668888"
       y1="22.716673"
       x2="30.46302"
       y2="22.716673"
       gradientUnits="userSpaceOnUse"
       gradientTransform="matrix(1.6603733,0,0,1.5392389,-4.17542,1007.0005)" />
    <linearGradient
       inkscape:collect="always"
       xlink:href="#linearGradient3863"
       id="linearGradient3909"
       x1="0.076350339"
       y1="24.199898"
       x2="29.036125"
       y2="24.199898"
       gradientUnits="userSpaceOnUse"
       gradientTransform="matrix(1.6603733,0,0,1.5392389,-4.17542,1007.0005)" />
    <linearGradient
       inkscape:collect="always"
       xlink:href="#linearGradient3863"
       id="linearGradient3917"
       x1="0.14871173"
       y1="24.77424"
       x2="23.429972"
       y2="24.77424"
       gradientUnits="userSpaceOnUse"
       gradientTransform="matrix(1.6603733,0,0,1.5392389,-4.17542,1007.0005)" />
    <linearGradient
       inkscape:collect="always"
       xlink:href="#linearGradient3863"
       id="linearGradient3925"
       x1="0.11400201"
       y1="25.516607"
       x2="19.705204"
       y2="25.516607"
       gradientUnits="userSpaceOnUse"
       gradientTransform="matrix(1.6603733,0,0,1.5392389,-4.17542,1007.0005)" />
    <linearGradient
       inkscape:collect="always"
       xlink:href="#linearGradient3863"
       id="linearGradient3927"
       gradientUnits="userSpaceOnUse"
       gradientTransform="matrix(0.47003522,0,0,0.52136548,1.5601219,495.70989)"
       x1="28.192986"
       y1="1022.8707"
       x2="28.490698"
       y2="1050.863" />
  </defs>
  <sodipodi:namedview
     id="base"
     pagecolor="#ffffff"
     bordercolor="#666666"
     borderopacity="1.0"
     inkscape:pageopacity="0.0"
     inkscape:pageshadow="2"
     inkscape:zoom="4"
     inkscape:cx="24.295534"
     inkscape:cy="20.425469"
     inkscape:document-units="px"
     inkscape:current-layer="layer1"
     showgrid="false"
     width="32px"
     inkscape:window-width="1215"
     inkscape:window-height="1000"
     inkscape:window-x="65"
     inkscape:window-y="24"
     inkscape:window-maximized="1" />
  <metadata
     id="metadata7">
    <rdf:RDF>
      <cc:Work
         rdf:about="">
        <dc:format>image/svg+xml</dc:format>
        <dc:type
           rdf:resource="http://purl.org/dc/dcmitype/StillImage" />
        <dc:title />
      </cc:Work>
    </rdf:RDF>
  </metadata>
  <g
     inkscape:label="レイヤー 1"
     inkscape:groupmode="layer"
     id="layer1"
     transform="translate(0,-1020.3621)">
    <path
       style="fill:url(#linearGradient3861);fill-opacity:1;stroke:none"
       d="m 24.395818,1026.912 c 0,0 -0.45163,0.9633 -1.429195,1.0947 -1.20497,0.162 -1.769408,-0.3903 -2.02779,-1.7003 -0.258382,-1.3098 0.194357,-2.7531 1.517686,-3.0604 1.323329,-0.3074 1.964917,0.9988 2.004564,1.1451 0.03965,0.1463 0.0111,-0.8938 0.0111,-0.8938 l 0.40879,-0.014 -0.0066,12.8689 c 0.712699,-0.9763 1.539912,-1.2935 2.547403,-2.3616 0.57759,-0.6888 0.751103,-1.0273 1.019534,-1.7436 0.109128,-0.3632 0.273697,-0.8151 0.32666,-1.3537 0.03351,-0.5649 -0.348395,-1.4294 -0.509431,-1.683 0.350952,0.2817 0.766692,1.0769 0.962649,1.7579 0.108296,0.6408 0.16615,0.9144 0.04628,1.5129 -0.59826,1.8616 -0.859989,2.0317 -1.628255,2.613 -1.13651,0.7222 -1.568847,1.023 -2.454752,1.8933 -0.135289,0.2326 -0.74995,1.1867 -0.768968,0.8952 -0.01549,-0.2375 -0.03543,-10.486 -0.03543,-10.486 z"
       id="path3821"
       inkscape:connector-curvature="0"
       sodipodi:nodetypes="cszzzcccccccccccscc" />
    <path
       style="fill:url(#linearGradient3893);fill-opacity:1;stroke:none"
       id="path3103"
       d="m -2.2065792,1026.981 c 0.2584105,0 0.516923,0 0.7753848,0 0.3824063,10e-4 0.76481035,0 1.14721858,0 0.43285895,-0.021 0.84514401,0.08 1.24103949,0.2317 0.30310163,0.1419 0.62233353,0.2479 0.93878453,0.3601 0.3628317,0.095 0.6996105,0.2563 1.0409474,0.4019 0.4416788,0.194 0.8851907,0.3847 1.3279644,0.5769 0.4596761,0.2001 0.9036132,0.4283 1.3616863,0.6315 0.326404,0.1605 0.6673231,0.2922 1.0060181,0.4281 0.2715712,0.1068 0.5301758,0.2363 0.780035,0.381 0.2992364,0.1624 0.5931317,0.3334 0.8839986,0.5084 0.2548165,0.1485 0.4948673,0.3169 0.7420445,0.4759 0.2421758,0.1527 0.4755088,0.3164 0.6977866,0.4932 0.2017613,0.1713 0.3958229,0.3502 0.5884969,0.5304 0.196858,0.1678 0.400592,0.3284 0.597876,0.4957 0.231384,0.1936 0.449699,0.3999 0.666531,0.6075 0.207192,0.183 0.398887,0.378 0.510652,0.6244 0.05628,0.1428 0.06158,0.2945 0.06317,0.4447 -0.0055,0.1437 -0.04972,0.2813 -0.09156,0.4185 -0.04752,0.1389 -0.09513,0.2779 -0.151806,0.4139 -0.07381,0.1625 -0.199394,0.2956 -0.32531,0.4249 -0.127613,0.1248 -0.274766,0.2299 -0.428102,0.3258 -0.02456,0.014 -0.0487,0.029 -0.07369,0.042 -0.332848,0.1781 -0.66644,0.355 -0.999743,0.5324 -0.15358,0.081 0.008,0 -0.1484079,0.071 -0.024649,0.012 -0.096591,0.05 -0.072621,0.037 0.2869134,-0.1528 0.5743144,-0.3047 0.8614704,-0.4571 -0.126856,0.077 -0.216452,0.1725 -0.217836,0.3159 0.04199,0.1703 0.12419,0.3343 0.213673,0.4878 0.103315,0.1455 0.24058,0.269 0.366772,0.3981 0.143282,0.1572 0.310513,0.2914 0.475042,0.4287 0.243228,0.1477 0.490478,0.2899 0.744916,0.4203 0.218253,0.1114 0.436201,0.2245 0.655464,0.3347 0.242735,0.121 0.498071,0.2194 0.754398,0.3127 0.258868,0.1137 0.532922,0.1864 0.803278,0.2712 0.267456,0.072 0.535565,0.1411 0.801982,0.2164 0.310278,0.079 0.619036,0.1624 0.931359,0.2342 0.271507,0.074 0.546584,0.1357 0.820197,0.2027 0.213295,0.077 0.438894,0.1079 0.659514,0.1572 0.232517,0.071 0.458134,0.1608 0.685314,0.2451 0.290309,0.1163 0.592336,0.2035 0.896559,0.2822 0.298484,0.077 0.601372,0.1352 0.902329,0.2026 0.271518,0.052 0.538178,0.125 0.805149,0.1945 0.258955,0.057 0.52065,0.101 0.781249,0.1523 0.359088,0.078 0.710501,0.1833 1.0648,0.278 0.324604,0.099 0.658821,0.1643 0.989439,0.2421 0.36935,0.085 0.745508,0.1378 1.119656,0.2002 0.335214,0.06 0.674748,0.092 1.015471,0.1056 0.265842,0.012 0.531888,0.012 0.797843,0.012 0.241823,0 0.486119,0.026 0.725128,0.062 0.312707,0.058 0.618802,0.1394 0.927111,0.2138 0.310301,0.088 0.62939,0.1452 0.947054,0.2053 0.232904,0.068 0.476045,0.088 0.714751,0.1293 0.229214,0.057 0.459019,0.1138 0.68596,0.1778 0.225121,0.063 0.444832,0.1366 0.670571,0.1972 0.382411,0.1033 0.72851,0.2867 1.074434,0.4646 0.375564,0.2133 0.7513,0.4274 1.119684,0.6514 0.325969,0.1818 0.646393,0.3716 0.966538,0.5622 0.342118,0.2059 0.695995,0.3935 1.048769,0.583 0.28294,0.1554 0.540372,0.3433 0.799345,0.5298 0.205727,0.1447 0.402334,0.2999 0.588855,0.4654 0.201361,0.1772 0.393801,0.3628 0.58942,0.5454 0.244891,0.248 0.522518,0.463 0.806403,0.671 0.278182,0.1871 0.558019,0.3723 0.831341,0.5656 0.23414,0.1662 0.463101,0.3381 0.689253,0.5134 0.293312,0.2294 0.600546,0.4429 0.899436,0.666 0.281497,0.212 0.560041,0.4277 0.835077,0.647 0.278852,0.2307 0.572341,0.446 0.864224,0.6622 0.26328,0.1953 0.55463,0.3532 0.860312,0.4837 0.212952,0.091 0.419081,0.1972 0.642199,0.2642 0.211743,0.071 0.418697,0.1536 0.629185,0.2276 0.228774,0.1045 0.472132,0.1608 0.716771,0.2204 0.228668,0.05 0.456907,0.1 0.683251,0.1584 0.155361,0.041 0.316003,0.053 0.476693,0.059 0.177223,0.016 0.349949,-0.012 0.524654,-0.034 0.166796,-0.012 0.327163,-0.041 0.490405,-0.07 0.150829,-0.013 0.294326,-0.057 0.443736,-0.079 0.10112,-0.023 0.193252,-0.056 0.283387,-0.1044 0,0 -0.84654,0.6261 -0.84654,0.6261 l 0,0 c -0.09786,0.037 -0.198176,0.066 -0.302656,0.084 -0.147259,0.028 -0.293307,0.06 -0.442395,0.079 -0.162735,0.03 -0.326581,0.046 -0.491375,0.064 -0.179614,0.022 -0.358997,0.034 -0.540182,0.02 -0.164627,-0.012 -0.327775,-0.034 -0.485712,-0.08 -0.223999,-0.06 -0.451288,-0.1079 -0.677653,-0.1595 -0.248228,-0.059 -0.489317,-0.133 -0.724346,-0.2291 -0.209371,-0.077 -0.419025,-0.1522 -0.630482,-0.2236 -0.220387,-0.079 -0.428722,-0.1831 -0.641368,-0.2777 -0.305716,-0.1423 -0.598037,-0.3068 -0.863437,-0.5082 -0.293162,-0.2173 -0.590456,-0.4305 -0.87035,-0.6627 -0.274452,-0.2176 -0.549583,-0.4345 -0.829163,-0.6464 -0.301382,-0.2218 -0.606077,-0.4396 -0.904773,-0.6643 -0.229359,-0.1707 -0.461892,-0.3377 -0.690704,-0.5091 -0.270733,-0.1954 -0.550531,-0.3796 -0.824991,-0.5705 -0.288175,-0.21 -0.566621,-0.4304 -0.818912,-0.6776 -0.196536,-0.1811 -0.394928,-0.3605 -0.594494,-0.5388 -0.186907,-0.1599 -0.376461,-0.3172 -0.578504,-0.4607 -0.253714,-0.185 -0.50824,-0.3689 -0.786454,-0.5221 -0.349795,-0.1942 -0.701938,-0.3849 -1.045385,-0.5889 -0.323329,-0.1878 -0.648001,-0.3735 -0.971502,-0.561 -0.364164,-0.2218 -0.72666,-0.4471 -1.101589,-0.6529 -0.347473,-0.1725 -0.702188,-0.3371 -1.085,-0.4317 -0.227323,-0.059 -0.447067,-0.138 -0.674674,-0.1961 -0.224837,-0.06 -0.448518,-0.1253 -0.678148,-0.1684 -0.240092,-0.036 -0.478628,-0.074 -0.713248,-0.1349 -0.315595,-0.065 -0.631122,-0.129 -0.941315,-0.2137 -0.308921,-0.071 -0.61552,-0.1536 -0.930607,-0.1986 -0.237745,-0.027 -0.476775,-0.054 -0.716618,-0.05 -0.266149,0 -0.532499,5e-4 -0.798338,-0.014 -0.339024,-0.021 -0.676023,-0.062 -1.009248,-0.1241 -0.379347,-0.06 -0.760941,-0.1126 -1.134796,-0.1989 -0.33035,-0.075 -0.660119,-0.1541 -0.984651,-0.2493 -0.354397,-0.094 -0.706048,-0.1991 -1.067638,-0.2675 -0.263389,-0.051 -0.53062,-0.085 -0.789289,-0.1546 -0.265974,-0.066 -0.52901,-0.1432 -0.799156,-0.1948 -0.301698,-0.07 -0.607017,-0.1245 -0.90537,-0.2057 -0.304947,-0.085 -0.608554,-0.1741 -0.90213,-0.2894 -0.226712,-0.08 -0.451164,-0.1688 -0.685388,-0.2274 -0.22181,-0.044 -0.439775,-0.1 -0.656151,-0.1629 -0.272589,-0.064 -0.542803,-0.1359 -0.813625,-0.2064 -0.312997,-0.077 -0.625615,-0.1541 -0.937226,-0.2353 -0.267973,-0.073 -0.537647,-0.1407 -0.803802,-0.2189 -0.273187,-0.082 -0.544654,-0.1666 -0.807454,-0.2752 -0.259776,-0.095 -0.516358,-0.1996 -0.762997,-0.3213 -0.220378,-0.1091 -0.438662,-0.221 -0.654274,-0.3376 -0.258796,-0.1368 -0.514029,-0.2809 -0.76024,-0.4362 -0.170862,-0.1367 -0.338264,-0.2763 -0.485259,-0.4358 -0.132762,-0.1346 -0.279168,-0.2614 -0.3818091,-0.418 -0.096906,-0.1664 -0.1771127,-0.3439 -0.2382004,-0.524 -0.024801,-0.1784 0.019995,-0.293 0.170464,-0.4106 0.3302955,-0.1796 0.6598335,-0.3606 0.9908865,-0.5391 0.04759,-0.025 0.09791,-0.046 0.146325,-0.071 0.02477,-0.013 0.09848,-0.051 0.07415,-0.037 -0.9754034,0.5278 -1.1238747,0.6129 -0.778616,0.4168 0.160503,-0.084 0.303539,-0.1893 0.441837,-0.3013 0.123588,-0.1213 0.249963,-0.2436 0.336393,-0.3913 0.06413,-0.1303 0.102952,-0.2679 0.157197,-0.4016 0.03659,-0.1313 0.08623,-0.2587 0.103892,-0.3941 7.48e-4,-0.1387 0.0031,-0.2795 -0.03987,-0.4139 -0.09424,-0.2383 -0.276227,-0.4252 -0.471953,-0.5989 -0.221062,-0.2034 -0.44133,-0.407 -0.676464,-0.5966 -0.196427,-0.1693 -0.3981456,-0.3333 -0.5956507,-0.5015 -0.1931232,-0.1768 -0.3836972,-0.3563 -0.58768,-0.5225 -0.2177392,-0.1758 -0.4456056,-0.3404 -0.687397,-0.4871 -0.245184,-0.1596 -0.4866707,-0.3241 -0.7385962,-0.4745 -0.288338,-0.177 -0.5806305,-0.3489 -0.8824489,-0.5057 -0.2487701,-0.1382 -0.5069213,-0.2617 -0.7729658,-0.3691 -0.3363953,-0.1371 -0.6681023,-0.2831 -0.9943168,-0.4401 -0.4533463,-0.2077 -0.8939601,-0.438 -1.3531285,-0.6346 -0.4462836,-0.1909 -0.8938015,-0.3792 -1.3406222,-0.5687 -0.3418358,-0.1453 -0.6815758,-0.2964 -1.0447878,-0.3917 -0.31580602,-0.1114 -0.62949857,-0.2273 -0.93287544,-0.3663 -0.38850232,-0.1439 -0.79320621,-0.2246 -1.21424046,-0.2029 -0.3858939,8e-4 -0.7717838,0 -1.1576765,0 -0.2640939,0 -0.5282341,2e-4 -0.7922802,0 0,0 0.8796453,-0.5925 0.8796453,-0.5925 z"
       inkscape:connector-curvature="0" />
    <path
       style="fill:url(#linearGradient3901);fill-opacity:1;stroke:none"
       id="path3105"
       d="m -2.8016142,1029.3613 c 0.2218732,0.012 0.4438869,0 0.6658238,0 0.2329856,0 0.4668572,-0.012 0.6988042,0.012 0.2349571,0.012 0.44641172,0.108 0.65761218,0.1951 0.21194368,0.089 0.39496117,0.2247 0.57944099,0.3543 0.20040985619,0.124 0.41046812,0.2345 0.61972684,0.3452 0.27525675,0.1479 0.55508925,0.2877 0.83542039,0.4272 0.2824373,0.149 0.5817991,0.2675 0.8672625,0.4108 0.1876781,0.096 0.3935839,0.1547 0.5887136,0.2358 0.1846536,0.071 0.3739793,0.1284 0.5569102,0.2028 0.204434,0.072 0.3970509,0.1695 0.5873018,0.2685 0.1996447,0.1138 0.4019314,0.2237 0.6055092,0.3313 0.2769668,0.1454 0.5571944,0.2845 0.8449965,0.4107 0.2732492,0.1304 0.5616827,0.2287 0.8413752,0.3456 0.1806159,0.078 0.3767924,0.1149 0.5635216,0.177 0.1655773,0.079 0.3437626,0.1289 0.5149033,0.1949 0.1807898,0.085 0.3625603,0.1668 0.5451973,0.248 0.196462,0.089 0.3652131,0.2175 0.5272197,0.3516 0.1715866,0.1558 0.3489451,0.3068 0.508296,0.4736 0.1526421,0.1779 0.2759755,0.3773 0.3798123,0.5829 0.074539,0.1936 0.1000168,0.4004 0.1358965,0.6027 0.028676,0.1585 0.039754,0.319 0.045248,0.4794 0.018767,0.167 -0.047317,0.3056 -0.1450089,0.4408 -0.1106672,0.1448 -0.2637698,0.2532 -0.4070639,0.3685 -0.1505523,0.1205 -0.3161905,0.2235 -0.4841607,0.3217 -2.1040246,1.1285 -0.6550403,0.3507 -0.1615411,0.088 0.026755,-0.014 -0.052941,0.029 -0.079289,0.044 -0.076241,0.043 -0.1525053,0.086 -0.2277977,0.1303 -0.1545474,0.096 -0.2727505,0.2251 -0.3470109,0.3829 -0.055428,0.1496 -0.065408,0.308 -0.034928,0.4627 0.033859,0.1742 0.1366769,0.3164 0.2538008,0.4513 0.1381713,0.1608 0.2944196,0.299 0.4840905,0.405 0.1785988,0.096 0.3799366,0.1365 0.5706724,0.2049 0.2142506,0.06 0.4063689,0.1607 0.5863555,0.282 0.1558023,0.1305 0.3304499,0.2373 0.4998991,0.3514 0.159916,0.093 0.311313,0.198 0.476442,0.2834 0.155258,0.088 0.29776,0.1914 0.46141,0.267 0.215454,0.062 0.433508,0.1149 0.647535,0.1808 0.218446,0.066 0.440533,0.1217 0.655922,0.1959 0.245873,0.071 0.478975,0.1717 0.707197,0.2811 0.270021,0.1265 0.520782,0.2839 0.78612,0.418 0.24251,0.1229 0.489217,0.2381 0.73305,0.3586 0.222014,0.1137 0.439817,0.2326 0.672768,0.3262 0.184088,0.082 0.376813,0.1496 0.576035,0.1921 0.474934,0.1499 0.977585,0.2063 1.471975,0.2747 0.623385,0.065 1.241671,0.1606 1.86012,0.2561 0.308721,0.024 0.599587,0.1243 0.899094,0.1894 0.299462,0.046 0.593945,0.1115 0.887855,0.181 0.240104,0.053 0.484552,0.085 0.724848,0.1373 0.256743,0.044 0.51428,0.087 0.772772,0.1223 0.24885,0.017 0.489193,0.08 0.732711,0.1263 0.219534,0.027 0.435972,0.068 0.655938,0.093 0.196209,0.044 0.397417,0.053 0.58311,0.1294 0.245748,0.096 0.499084,0.1731 0.752228,0.2502 0.275816,0.1021 0.568782,0.1512 0.855659,0.2192 0.293915,0.07 0.59677,0.091 0.898764,0.1022 0.223441,0.012 0.447015,0 0.670525,0 0.206215,-3e-4 0.412428,-7e-4 0.618643,0 0.192765,-0.014 0.38094,0.015 0.571359,0.036 0.258467,0.051 0.514389,0.1149 0.766916,0.1879 0.249233,0.06 0.494347,0.134 0.728853,0.2332 0.231496,0.1056 0.426817,0.2638 0.632028,0.4061 0.215687,0.1389 0.423428,0.2873 0.632632,0.4344 0.200713,0.1392 0.389105,0.2929 0.591698,0.4298 0.227387,0.1508 0.445328,0.313 0.668649,0.4685 0.224637,0.1573 0.427808,0.3379 0.650666,0.497 0.224892,0.1478 0.433735,0.3138 0.637526,0.4856 0.212642,0.1717 0.433475,0.3341 0.66606,0.4819 0.238223,0.1405 0.454959,0.308 0.665703,0.4814 0.183245,0.1755 0.393323,0.3207 0.600177,0.4706 0.214348,0.1519 0.437655,0.2924 0.659711,0.4343 0.21278,0.1382 0.405277,0.3011 0.594748,0.4653 0.158865,0.1397 0.31342,0.2835 0.468144,0.4271 0.161057,0.1498 0.320872,0.3008 0.482412,0.4501 0.188703,0.1757 0.41065,0.3069 0.64434,0.424 0.270079,0.143 0.554784,0.2579 0.83823,0.3753 0.430691,0.164 0.873925,0.2962 1.312765,0.4393 0.222325,0.08 0.431094,0.189 0.631018,0.3091 0.203943,0.1056 0.402121,0.2234 0.610514,0.322 0.242568,0.128 0.500979,0.2258 0.756457,0.3289 0.295748,0.1442 0.611491,0.2445 0.92386,0.3515 0.214355,0.095 0.450554,0.1267 0.672963,0.1996 0.226532,0.07 0.456902,0.1208 0.69306,0.1515 0.261704,0.036 0.520624,0.085 0.781483,0.1244 0.180995,0.025 0.363794,0.034 0.546471,0.038 0,0 -0.876526,0.585 -0.876526,0.585 l 0,0 c -0.183975,-0.012 -0.36778,-0.024 -0.549703,-0.052 -0.259149,-0.043 -0.517644,-0.091 -0.778676,-0.1238 -0.24027,-0.037 -0.476464,-0.091 -0.707198,-0.1632 -0.224667,-0.066 -0.456401,-0.1126 -0.671138,-0.2053 -0.310664,-0.1114 -0.619049,-0.2269 -0.919909,-0.3594 -0.260518,-0.1033 -0.525082,-0.199 -0.771759,-0.3292 -0.207609,-0.1056 -0.409684,-0.2205 -0.616142,-0.3281 -0.19416,-0.1125 -0.393884,-0.2188 -0.606703,-0.2981 -0.434704,-0.1527 -0.871031,-0.3013 -1.308148,-0.4479 -0.29417,-0.1079 -0.580953,-0.2277 -0.853787,-0.3774 -0.242885,-0.1223 -0.47265,-0.2604 -0.667875,-0.4441 -0.161173,-0.1501 -0.323922,-0.2987 -0.485109,-0.4488 -0.153485,-0.1429 -0.306568,-0.2862 -0.46347,-0.4258 -0.184791,-0.1619 -0.373646,-0.3207 -0.583968,-0.4541 -0.223192,-0.1435 -0.447169,-0.2859 -0.662476,-0.4395 -0.208673,-0.1511 -0.419218,-0.2997 -0.605158,-0.4754 -0.20623,-0.1716 -0.421415,-0.3333 -0.654228,-0.4735 -0.235667,-0.1517 -0.462619,-0.3148 -0.677714,-0.491 -0.200803,-0.1703 -0.41017,-0.3311 -0.629523,-0.4807 -0.222283,-0.1599 -0.428004,-0.3382 -0.653056,-0.495 -0.220104,-0.1591 -0.441191,-0.3166 -0.668703,-0.4666 -0.20055,-0.1401 -0.394069,-0.2882 -0.592578,-0.4307 -0.208351,-0.1472 -0.417205,-0.2932 -0.629884,-0.4349 -0.200138,-0.1377 -0.394861,-0.2868 -0.621717,-0.3857 -0.233003,-0.093 -0.475555,-0.1614 -0.719525,-0.2243 -0.250397,-0.068 -0.502754,-0.1361 -0.761612,-0.17 -0.188351,-0.02 -0.375933,-0.033 -0.565794,-0.025 -0.205818,-5e-4 -0.411631,-10e-5 -0.617445,8e-4 -0.222585,-4e-4 -0.445329,-6e-4 -0.667615,-0.013 -0.305166,-0.019 -0.61075,-0.045 -0.90687,-0.1204 -0.289403,-0.069 -0.585082,-0.1169 -0.862767,-0.2225 -0.256394,-0.077 -0.509952,-0.1611 -0.761604,-0.2501 -0.184694,-0.055 -0.379059,-0.073 -0.568365,-0.1103 -0.220803,-0.029 -0.440327,-0.066 -0.66022,-0.1 -0.240548,-0.05 -0.48058,-0.1021 -0.726718,-0.1232 -0.259499,-0.04 -0.519173,-0.079 -0.776732,-0.1276 -0.241321,-0.046 -0.48519,-0.081 -0.722771,-0.1429 -0.293313,-0.071 -0.590442,-0.1238 -0.887514,-0.1796 -0.29459,-0.07 -0.585365,-0.154 -0.888188,-0.1893 -0.599625,-0.1114 -1.199811,-0.2201 -1.807812,-0.2857 -0.516263,-0.067 -1.044542,-0.095 -1.543774,-0.2406 -0.201625,-0.051 -0.396663,-0.1214 -0.583497,-0.2088 -0.231109,-0.1009 -0.450932,-0.2201 -0.675857,-0.332 -0.243539,-0.1199 -0.486287,-0.241 -0.728153,-0.3638 -0.261903,-0.1386 -0.518183,-0.2867 -0.787391,-0.4128 -0.227547,-0.1056 -0.460974,-0.1969 -0.703722,-0.2679 -0.216596,-0.067 -0.435046,-0.1303 -0.652806,-0.1946 -0.220669,-0.064 -0.447815,-0.1114 -0.6623953,-0.1916 -0.16153,-0.081 -0.3079264,-0.183 -0.4658384,-0.27 -0.163502,-0.092 -0.3197005,-0.1947 -0.478546,-0.2936 -0.1702809,-0.1125 -0.3410035,-0.2238 -0.4994149,-0.351 -0.1760805,-0.1138 -0.3651445,-0.2006 -0.5704506,-0.26 -0.1987646,-0.065 -0.4035772,-0.1161 -0.5835057,-0.2218 -0.1947684,-0.1169 -0.3535004,-0.2702 -0.5043437,-0.4329 -0.1264606,-0.1474 -0.2387279,-0.3036 -0.27911,-0.4918 -0.042782,-0.1699 -0.041156,-0.3421 0.0048,-0.5122 0.061434,-0.1765 0.1685217,-0.3202 0.3220671,-0.4405 0.5701366,-0.374 2.3977433,-1.2701 0.4695646,-0.2661 0.1666404,-0.098 0.3345369,-0.1936 0.489875,-0.307 0.1392322,-0.1149 0.2911153,-0.2183 0.414861,-0.3475 0.097243,-0.1137 0.1882316,-0.2275 0.172537,-0.3801 -0.00289,-0.1573 -0.00919,-0.3148 -0.033327,-0.4707 -0.030868,-0.1941 -0.058851,-0.3914 -0.1216273,-0.5791 -0.093698,-0.1985 -0.2119987,-0.39 -0.360573,-0.5578 -0.1594406,-0.1621 -0.3299947,-0.3145 -0.5047504,-0.4623 -0.1562444,-0.1271 -0.3197076,-0.2473 -0.5099721,-0.3284 -0.1821411,-0.079 -0.3614901,-0.1633 -0.5442301,-0.2413 -0.1715581,-0.062 -0.3437711,-0.1209 -0.5117135,-0.1906 -0.1900574,-0.057 -0.3844374,-0.1044 -0.563684,-0.188 -0.2785986,-0.1149 -0.5575648,-0.2293 -0.8316476,-0.3538 -0.2921531,-0.1277 -0.5780258,-0.2671 -0.8613426,-0.4106 -0.2021156,-0.1103 -0.4066328,-0.2162 -0.6075449,-0.3281 -0.1882177,-0.096 -0.3784181,-0.1899 -0.5803078,-0.2597 -0.1853572,-0.068 -0.3748338,-0.1283 -0.5574648,-0.2036 -0.1989237,-0.077 -0.4042974,-0.1416 -0.5894099,-0.2463 -0.28307842,-0.1436 -0.57618807,-0.2699 -0.85863188,-0.415 -0.28298011,-0.1391 -0.56643084,-0.2774 -0.84467662,-0.4246 -0.21401779,-0.1114 -0.43078543,-0.2213 -0.6307107,-0.354 -0.17938,-0.1242 -0.3580821,-0.2526 -0.5657088,-0.3345 -0.2052593,-0.08 -0.4094394,-0.1646 -0.6369046,-0.1678 -0.2312496,-0.012 -0.4627795,0 -0.6941855,0 -0.2257163,10e-5 -0.4515002,0 -0.6771573,0 0,0 0.8811916,-0.5935 0.8811916,-0.5935 z"
       inkscape:connector-curvature="0" />
    <path
       style="fill:url(#linearGradient3909);fill-opacity:1;stroke:none"
       id="path3107"
       d="m -3.1520035,1031.4986 c 0.282675,0.058 0.5673696,0.1079 0.8544535,0.1446 0.2189935,0.042 0.4390717,0.077 0.661948,0.093 0.1151066,-0.012 0.2136199,0.042 0.3196234,0.072 0.028792,0.012 0.058372,0.013 0.087556,0.02 0.032587,0.012 0.065171,0.019 0.097759,0.029 0.23336153,0.059 0.454357,0.1516 0.68033218,0.2304 0.26820471,0.095 0.53345094,0.1954 0.79814673,0.2981 0.18331448,0.064 0.36068078,0.1419 0.53766852,0.2193 0.14949017,0.06 0.29863297,0.1225 0.44298737,0.193 0.1665905,0.066 0.3350494,0.1276 0.4975774,0.2016 0.1866195,0.095 0.3582903,0.2133 0.5305195,0.3292 0.1593044,0.1209 0.3397288,0.2133 0.5092703,0.3206 0.1823621,0.1278 0.3735434,0.2446 0.5679235,0.3561 0.2334993,0.1234 0.4514252,0.268 0.6713804,0.4107 0.1821037,0.1243 0.3751974,0.2311 0.5806856,0.3183 0.1561782,0.068 0.3158228,0.1319 0.4760519,0.1927 0.1770839,0.055 0.3458191,0.134 0.5096878,0.2167 0.1704112,0.1137 0.3652562,0.1857 0.5469275,0.2807 0.1933004,0.096 0.3653951,0.2221 0.5304377,0.3548 0.150581,0.1225 0.2469534,0.2747 0.3219149,0.444 0.053351,0.1525 0.1197481,0.3052 0.068202,0.464 -0.095013,0.1351 -0.2445635,0.2292 -0.3746265,0.3342 -0.1617438,0.1205 -0.2951171,0.2634 -0.4100988,0.4226 -0.097736,0.1422 -0.192873,0.2856 -0.282044,0.4326 -0.078539,0.1264 -0.1497374,0.2547 -0.1910162,0.3959 -0.032863,0.1502 -0.066289,0.3002 -0.086983,0.4523 -0.03605,0.1679 0.033829,0.3058 0.1160487,0.45 0.094442,0.1465 0.2056181,0.2839 0.3166541,0.4201 0.1176181,0.1634 0.2520938,0.3149 0.3930584,0.4613 0.1415833,0.152 0.2586052,0.3213 0.3807088,0.4867 0.1252614,0.1692 0.2729025,0.3222 0.4241227,0.4716 0.1472436,0.1556 0.322237,0.283 0.4993561,0.4075 0.194395,0.1416 0.412617,0.2481 0.626332,0.3612 0.2079895,0.095 0.4072268,0.2036 0.5946096,0.3298 0.193349,0.1477 0.3852591,0.2963 0.5837174,0.4381 0.189849,0.1328 0.4038076,0.2289 0.6142296,0.3298 0.268416,0.1299 0.539869,0.2541 0.819638,0.3617 0.265428,0.1102 0.520062,0.2428 0.77272,0.3761 0.201935,0.1033 0.405009,0.2049 0.603304,0.3145 0.163215,0.101 0.306519,0.2231 0.484694,0.302 0.215178,0.096 0.420495,0.2096 0.627658,0.3193 0.23612,0.1091 0.461984,0.2338 0.684621,0.3643 0.316571,0.1539 0.627094,0.3182 0.944451,0.4706 0.309266,0.1345 0.620605,0.2692 0.938918,0.3849 0.282461,0.1126 0.563878,0.2252 0.85432,0.3192 0.364577,0.116 0.734134,0.2158 1.093151,0.3462 0.299481,0.1288 0.617977,0.2093 0.932798,0.2978 0.256207,0.067 0.515233,0.1232 0.773569,0.1826 0.190637,0.047 0.387169,0.057 0.583127,0.062 0.17526,0 0.350561,0 0.52584,0 0.195654,0.012 0.393177,0.035 0.586961,0.065 0.272832,0.031 0.542519,0.081 0.815474,0.1115 0.227723,0.035 0.452754,0.015 0.680034,-0.012 0.200834,-0.039 0.402213,-0.073 0.606507,-0.092 0.168925,-0.013 0.338602,-0.012 0.507947,-0.012 0.194011,0 0.388848,-0.012 0.581642,0.014 0.205463,0.027 0.412177,0.043 0.619428,0.051 0.252096,-0.012 0.496717,0.024 0.743702,0.066 0.231269,0.038 0.465177,0.057 0.690679,0.1194 0.225155,0.056 0.440787,0.1388 0.661206,0.208 0.205684,0.079 0.406259,0.1683 0.607412,0.2562 0.228963,0.1334 0.431101,0.3024 0.643888,0.4565 0.251661,0.1668 0.494797,0.3439 0.758621,0.494 0.25269,0.148 0.490082,0.3169 0.72449,0.4883 0.18241,0.1449 0.367621,0.2873 0.579861,0.393 0.268746,0.134 0.528747,0.2818 0.793469,0.4223 0.26352,0.1435 0.525048,0.29 0.79472,0.4234 0.207128,0.1057 0.419836,0.2012 0.628104,0.3046 0.220971,0.1102 0.424981,0.2477 0.630902,0.3804 0.226061,0.1394 0.448263,0.2839 0.670576,0.4282 0.205958,0.1269 0.399325,0.2701 0.601401,0.4017 0.193573,0.1114 0.37808,0.2358 0.557725,0.3657 0.222001,0.1467 0.449239,0.2865 0.670991,0.4335 0.206913,0.1311 0.383699,0.2962 0.574818,0.445 0.195928,0.1414 0.400077,0.2716 0.606639,0.3991 0.173163,0.1262 0.361611,0.2281 0.552685,0.3285 0.232224,0.1267 0.452031,0.2719 0.673356,0.4143 0.218281,0.157 0.472369,0.25 0.731093,0.3318 0.238946,0.045 0.476305,0.096 0.711724,0.1568 0.314466,0.08 0.627375,0.1591 0.928502,0.2767 0.290523,0.1262 0.547494,0.3098 0.815878,0.4718 0.192252,0.1114 0.406366,0.1843 0.613239,0.2685 0.189494,0.066 0.372708,0.1478 0.567366,0.1998 0.203653,0.031 0.402648,0.08 0.596916,0.1447 0.199778,0.051 0.367368,0.1579 0.525506,0.2776 0,0 -0.913828,0.5322 -0.913828,0.5322 l 0,0 c -0.152489,-0.1103 -0.315325,-0.2011 -0.503515,-0.2498 -0.19619,-0.059 -0.396967,-0.096 -0.596989,-0.1416 -0.194144,-0.061 -0.38195,-0.1384 -0.571841,-0.2098 -0.211503,-0.085 -0.427835,-0.1631 -0.617576,-0.2866 -0.25998,-0.1628 -0.511483,-0.3437 -0.802261,-0.4574 -0.299314,-0.1138 -0.61074,-0.1883 -0.923218,-0.2639 -0.2403,-0.057 -0.484203,-0.099 -0.722598,-0.1607 -0.260594,-0.093 -0.513401,-0.1995 -0.736176,-0.3589 -0.221744,-0.1402 -0.446317,-0.277 -0.679597,-0.4002 -0.192749,-0.101 -0.374508,-0.2149 -0.551743,-0.3376 -0.210164,-0.1295 -0.417914,-0.2619 -0.615075,-0.4084 -0.185832,-0.1497 -0.364909,-0.3075 -0.567372,-0.4384 -0.224502,-0.1456 -0.448575,-0.2915 -0.673866,-0.4357 -0.183555,-0.1248 -0.36801,-0.2484 -0.559846,-0.3621 -0.19706,-0.1367 -0.3931,-0.2744 -0.596785,-0.4026 -0.221573,-0.1446 -0.442954,-0.2894 -0.668548,-0.4286 -0.204433,-0.1309 -0.410152,-0.2612 -0.631582,-0.3665 -0.207491,-0.1033 -0.414381,-0.2066 -0.622125,-0.3089 -0.266955,-0.1366 -0.525036,-0.2876 -0.788712,-0.4295 -0.266645,-0.1407 -0.531781,-0.2841 -0.804103,-0.4153 -0.211289,-0.116 -0.399504,-0.259 -0.583122,-0.4095 -0.230789,-0.1702 -0.467862,-0.3338 -0.717314,-0.4798 -0.262614,-0.1572 -0.510691,-0.3325 -0.763301,-0.503 -0.208763,-0.1495 -0.408852,-0.3146 -0.641666,-0.4315 -0.197875,-0.086 -0.391039,-0.1816 -0.597042,-0.25 -0.218467,-0.072 -0.43587,-0.1483 -0.661088,-0.2006 -0.22287,-0.052 -0.451376,-0.075 -0.676938,-0.1163 -0.246923,-0.038 -0.493525,-0.051 -0.743822,-0.051 -0.207841,-0.012 -0.414362,-0.034 -0.621321,-0.055 -0.192782,-0.012 -0.385866,0 -0.578819,0 -0.167156,9e-4 -0.334607,0 -0.500945,0.02 -0.2022,0.023 -0.401248,0.062 -0.602896,0.088 -0.231534,0.02 -0.461146,0.022 -0.691579,-0.014 -0.272386,-0.036 -0.543048,-0.084 -0.816627,-0.1114 -0.194102,-0.022 -0.388907,-0.05 -0.584683,-0.049 -0.175456,0 -0.350983,10e-5 -0.52632,-0.012 -0.200329,-0.012 -0.400096,-0.028 -0.593282,-0.081 -0.257006,-0.063 -0.515896,-0.1191 -0.770689,-0.1899 -0.31506,-0.089 -0.628408,-0.1828 -0.928968,-0.309 -0.360046,-0.1279 -0.729971,-0.2279 -1.09564,-0.3408 -0.292002,-0.095 -0.575434,-0.2085 -0.859536,-0.3217 -0.31682,-0.1227 -0.629429,-0.2563 -0.937404,-0.3968 -0.320885,-0.1541 -0.637193,-0.3165 -0.95714,-0.4722 -0.223858,-0.1271 -0.453854,-0.2436 -0.684794,-0.3592 -0.20798,-0.1079 -0.415329,-0.2171 -0.630242,-0.3126 -0.175318,-0.087 -0.323412,-0.207 -0.489918,-0.3069 -0.196851,-0.1091 -0.395761,-0.2136 -0.59618,-0.3165 -0.248777,-0.1313 -0.49747,-0.2648 -0.760892,-0.3697 -0.2804107,-0.1138 -0.5576306,-0.2341 -0.8300222,-0.3637 -0.2163643,-0.1022 -0.4329229,-0.2044 -0.6227156,-0.3465 -0.1975375,-0.1418 -0.3916141,-0.2874 -0.5864609,-0.4324 -0.1858849,-0.1221 -0.3846709,-0.2235 -0.5857613,-0.3225 -0.2183754,-0.1149 -0.4367788,-0.2278 -0.6349355,-0.3717 -0.1819081,-0.1283 -0.3610058,-0.2601 -0.5116655,-0.4206 -0.1536642,-0.1538 -0.3026091,-0.312 -0.4303361,-0.4853 -0.1203703,-0.1617 -0.2396035,-0.3243 -0.3758173,-0.4751 -0.1420647,-0.1491 -0.2766715,-0.3038 -0.4001379,-0.4666 -0.1143853,-0.1406 -0.2281837,-0.2828 -0.3252774,-0.4343 -0.08923,-0.1578 -0.1800175,-0.3172 -0.148761,-0.502 0.018291,-0.1554 0.051779,-0.3081 0.08012,-0.4619 0.032967,-0.1521 0.095924,-0.2895 0.1799862,-0.4234 0.092518,-0.1468 0.1802068,-0.2961 0.2828191,-0.4373 0.1075619,-0.1682 0.2337281,-0.324 0.3978202,-0.4488 0.1240911,-0.1033 0.2506708,-0.2044 0.3826654,-0.2992 0.031402,-0.029 0.055089,-0.042 0.058776,-0.087 0.00805,-0.101 -0.063109,-0.2025 -0.078512,-0.2999 -0.066797,-0.1552 -0.1553844,-0.2935 -0.2931083,-0.4047 -0.1612521,-0.1277 -0.3301915,-0.247 -0.520114,-0.3363 -0.1828386,-0.092 -0.3701528,-0.175 -0.5453172,-0.2794 -0.1646193,-0.078 -0.3315654,-0.1513 -0.5057806,-0.2084 -0.1608904,-0.064 -0.3246221,-0.1214 -0.4792663,-0.1975 -0.2045875,-0.096 -0.3976234,-0.2103 -0.5832501,-0.336 -0.2172515,-0.1429 -0.4373805,-0.281 -0.6673263,-0.4058 -0.1969716,-0.1115 -0.3908529,-0.229 -0.5776967,-0.3552 -0.17121,-0.1056 -0.3459051,-0.2063 -0.5067689,-0.3256 -0.16934,-0.1114 -0.338716,-0.2248 -0.52515837,-0.3112 -0.16540969,-0.071 -0.33369362,-0.1351 -0.5004007,-0.2029 -0.14540865,-0.066 -0.29204115,-0.1299 -0.44025428,-0.1904 -0.17605828,-0.074 -0.34753524,-0.1575 -0.52842351,-0.2215 -0.26070555,-0.1068 -0.52567504,-0.2037 -0.79296794,-0.2954 -0.2263919,-0.077 -0.4487088,-0.1652 -0.6829802,-0.2206 -0.1635533,-0.042 -0.324177,-0.099 -0.4957203,-0.1033 -0.2202533,-0.024 -0.4369594,-0.067 -0.6551263,-0.1033 -0.2930873,-0.044 -0.5849788,-0.095 -0.8766364,-0.1462 0,0 0.8966466,-0.5693 0.8966466,-0.5693 z"
       inkscape:connector-curvature="0" />
    <path
       style="fill:url(#linearGradient3917);fill-opacity:1;stroke:none"
       id="path3109"
       d="m -3.0137444,1033.6258 c 0.2108123,0.1277 0.4370671,0.2309 0.6689102,0.3212 0.2119451,0.095 0.444178,0.1347 0.6660084,0.2038 0.2258096,0.056 0.4443185,0.1287 0.6514917,0.2287 0.19461922,0.1 0.36106545,0.2373 0.52277782,0.3771 0.17083845,0.1566 0.33531712,0.3183 0.53383369,0.4451 0.18798261,0.1114 0.38621511,0.2115 0.59372358,0.2878 0.15602529,0.062 0.3155729,0.1196 0.47924651,0.162 0.1770664,0.029 0.3429179,0.082 0.4984574,0.1661 0.1674236,0.094 0.3166507,0.2134 0.4885005,0.3 0.224958,0.1091 0.4642117,0.1864 0.6887777,0.2958 0.1832855,0.079 0.3549616,0.1772 0.5301105,0.2699 0.1902307,0.1022 0.3945736,0.1761 0.5860587,0.2758 0.191629,0.1044 0.357306,0.2427 0.5186441,0.3832 0.1631897,0.1577 0.2686068,0.3592 0.3640439,0.5569 0.075254,0.1741 0.1299957,0.3542 0.163711,0.539 0.026354,0.1823 -0.065687,0.3279 -0.1795485,0.4676 -0.1256304,0.1373 -0.2645849,0.2625 -0.3837291,0.4049 -0.094926,0.1137 -0.1195963,0.2542 -0.1566429,0.3898 -0.039842,0.1287 -0.052906,0.2556 -0.02267,0.3865 0.041383,0.1469 0.083083,0.2922 0.140104,0.4346 0.059293,0.1791 0.1523856,0.3451 0.2443053,0.5109 0.1136215,0.1848 0.2411005,0.3623 0.3685951,0.5393 0.1487179,0.1946 0.3194571,0.3747 0.5053907,0.5394 0.192161,0.1656 0.3980943,0.3169 0.6078673,0.4627 0.2076235,0.1437 0.4073532,0.2964 0.6298216,0.4202 0.2977418,0.1508 0.5817645,0.324 0.8693389,0.4907 0.2848734,0.1494 0.5628488,0.3101 0.8385493,0.4737 0.2380348,0.1552 0.4747098,0.3108 0.7248976,0.4491 0.2891686,0.164 0.5665291,0.3451 0.8486363,0.5193 0.2828959,0.1925 0.5830499,0.36 0.8789399,0.5341 0.335058,0.1987 0.682736,0.3767 1.035769,0.5463 0.259346,0.1392 0.527848,0.2629 0.78772,0.4013 0.201745,0.096 0.414211,0.172 0.624026,0.2516 0.240062,0.087 0.475554,0.1854 0.714721,0.2747 0.191385,0.084 0.388741,0.1535 0.58281,0.2307 0.153304,0.051 0.294867,0.1264 0.448421,0.1766 0.173975,0.067 0.340651,0.1489 0.512372,0.2207 0.186499,0.058 0.372692,0.1161 0.552168,0.1913 0.17109,0.072 0.34831,0.1291 0.525888,0.1855 0.223874,0.064 0.453554,0.1126 0.675559,0.1815 0.321853,0.1056 0.632364,0.2376 0.944821,0.3643 0.242172,0.1056 0.492933,0.1824 0.747729,0.2545 0.216044,0.057 0.441315,0.072 0.66308,0.101 0.282093,0.052 0.567528,0.085 0.851348,0.1272 0.243269,0.024 0.482484,0.072 0.725343,0.099 0.196594,0.012 0.388748,0.047 0.583642,0.071 0.166492,0.012 0.330154,0.021 0.494656,0.046 0.166448,0.014 0.325602,0.062 0.489991,0.087 0.151261,0.012 0.296966,0.036 0.445358,0.062 0.188623,0.014 0.374612,0.043 0.562086,0.066 0.127765,0.022 0.260778,0.012 0.387236,0.039 0.08574,0.02 0.168365,0.05 0.252643,0.075 0.222134,0.08 0.452463,0.1359 0.68043,0.1988 0.155261,0.043 0.306341,0.091 0.467216,0.1114 0.166096,0.02 0.329259,0.053 0.496297,0.07 0.221501,0 0.419529,0.089 0.620856,0.1636 0.226039,0.093 0.448062,0.1961 0.662472,0.31 0.173798,0.1068 0.340593,0.2234 0.504864,0.3423 0.146362,0.1174 0.291382,0.2346 0.448905,0.3392 0.213791,0.1568 0.430622,0.3098 0.640794,0.4707 0.211361,0.1503 0.415294,0.3091 0.621799,0.4649 0.21008,0.1556 0.405494,0.3269 0.600022,0.4985 0.169862,0.1528 0.354734,0.2905 0.531399,0.4365 0.181317,0.1408 0.366075,0.2775 0.55836,0.4051 0.231196,0.1501 0.439889,0.3274 0.647596,0.5038 0.188701,0.1705 0.400359,0.3164 0.604918,0.4696 0.219862,0.1715 0.449821,0.3312 0.676667,0.4946 0.189904,0.1364 0.366806,0.287 0.540052,0.441 0.164641,0.1486 0.325049,0.3009 0.487574,0.4515 0.15888,0.1432 0.309519,0.2944 0.475063,0.4311 0,0 -0.914558,0.526 -0.914558,0.526 l 0,0 c -0.16611,-0.1387 -0.317978,-0.2911 -0.476963,-0.4366 -0.161588,-0.1507 -0.324379,-0.3001 -0.488437,-0.4486 -0.169788,-0.1515 -0.342721,-0.3004 -0.527947,-0.436 -0.225957,-0.1653 -0.458076,-0.3232 -0.677836,-0.4956 -0.207141,-0.1537 -0.422225,-0.2994 -0.609258,-0.475 -0.203585,-0.1757 -0.412091,-0.347 -0.642778,-0.4922 -0.195237,-0.1301 -0.383259,-0.2687 -0.566925,-0.4126 -0.17693,-0.1471 -0.361765,-0.2861 -0.530688,-0.4411 -0.190988,-0.171 -0.385776,-0.3385 -0.592969,-0.4927 -0.207644,-0.1552 -0.413478,-0.3123 -0.62262,-0.4658 -0.208456,-0.1607 -0.424346,-0.3131 -0.64375,-0.4608 -0.158168,-0.1056 -0.301685,-0.2269 -0.451911,-0.3418 -0.160855,-0.1149 -0.320129,-0.2331 -0.493126,-0.332 -0.211596,-0.1103 -0.427294,-0.2154 -0.651977,-0.3001 -0.199066,-0.073 -0.39671,-0.1352 -0.613427,-0.137 -0.167505,-0.021 -0.332694,-0.054 -0.500669,-0.073 -0.160608,-0.03 -0.314151,-0.081 -0.471141,-0.1246 -0.224978,-0.066 -0.45127,-0.1287 -0.673569,-0.2028 -0.208607,-0.057 -0.419306,-0.079 -0.635058,-0.099 -0.189978,-0.026 -0.380792,-0.042 -0.570648,-0.067 -0.147624,-0.027 -0.296206,-0.041 -0.444714,-0.062 -0.161705,-0.03 -0.321661,-0.07 -0.486312,-0.085 -0.163796,-0.022 -0.32951,-0.022 -0.493191,-0.045 -0.192826,-0.027 -0.385032,-0.056 -0.579386,-0.072 -0.241357,-0.033 -0.480968,-0.075 -0.722841,-0.1044 -0.283134,-0.044 -0.567985,-0.078 -0.850775,-0.1242 -0.227199,-0.028 -0.458638,-0.042 -0.677097,-0.1114 -0.255256,-0.072 -0.497956,-0.1705 -0.741288,-0.2721 -0.311472,-0.1251 -0.621437,-0.2561 -0.945668,-0.3509 -0.228687,-0.06 -0.459795,-0.1137 -0.687191,-0.1787 -0.177961,-0.06 -0.356865,-0.1184 -0.528851,-0.1927 -0.181604,-0.071 -0.369758,-0.1241 -0.551934,-0.1935 -0.169588,-0.074 -0.338573,-0.1488 -0.513046,-0.2123 -0.150812,-0.058 -0.296397,-0.1263 -0.448737,-0.1805 -0.193295,-0.074 -0.382391,-0.1571 -0.574001,-0.2351 -0.238294,-0.093 -0.477578,-0.1833 -0.717559,-0.2723 -0.213621,-0.08 -0.429316,-0.1589 -0.629822,-0.2642 -0.256921,-0.1365 -0.518015,-0.266 -0.772791,-0.406 -0.353356,-0.1737 -0.704505,-0.3513 -1.0411784,-0.5521 -0.2995855,-0.1723 -0.601074,-0.3411 -0.8868717,-0.533 -0.2790891,-0.176 -0.5542731,-0.3586 -0.8476684,-0.5138 -0.2500831,-0.1394 -0.4863437,-0.2963 -0.7237366,-0.4533 -0.2753383,-0.1633 -0.5555667,-0.3193 -0.8365674,-0.474 -0.2869527,-0.1687 -0.5741581,-0.3375 -0.8741346,-0.486 -0.2237743,-0.1277 -0.4288097,-0.2802 -0.6380875,-0.4271 -0.2117408,-0.1491 -0.4189856,-0.3043 -0.6124834,-0.4736 -0.1916871,-0.1704 -0.3663433,-0.3561 -0.5210081,-0.5565 -0.1288631,-0.1807 -0.2631209,-0.3588 -0.3765915,-0.5482 -0.092293,-0.1695 -0.1959821,-0.3356 -0.2540988,-0.5189 -0.058702,-0.1458 -0.1089074,-0.2921 -0.149138,-0.4432 -0.042289,-0.1441 -0.043825,-0.2851 -0.00121,-0.43 0.038288,-0.1444 0.060694,-0.2953 0.1424783,-0.4257 0.109468,-0.1512 0.2467588,-0.2793 0.3823639,-0.4104 0.106171,-0.1137 0.2199533,-0.2321 0.2166454,-0.3918 -0.026326,-0.1782 -0.076217,-0.3506 -0.1452992,-0.5189 -0.085309,-0.188 -0.188003,-0.3738 -0.3432907,-0.5209 -0.1556519,-0.1344 -0.315813,-0.2661 -0.5023577,-0.3633 -0.1948209,-0.096 -0.4012805,-0.1716 -0.5924484,-0.2751 -0.170382,-0.095 -0.3433997,-0.1856 -0.5206962,-0.2693 -0.2274668,-0.1068 -0.4684878,-0.1859 -0.6936991,-0.2974 -0.1685177,-0.092 -0.32172924,-0.2049 -0.49032006,-0.2968 -0.15513364,-0.073 -0.32088038,-0.1102 -0.48914959,-0.1476 -0.1634819,-0.05 -0.32506207,-0.1068 -0.48163084,-0.1733 -0.20870706,-0.088 -0.41320164,-0.1878 -0.6017137,-0.309 -0.19703371,-0.1351 -0.36949991,-0.2955 -0.54508741,-0.4535 -0.1553927,-0.1331 -0.3156899,-0.2635 -0.505013,-0.3542 -0.2056411,-0.093 -0.4216906,-0.1599 -0.6419133,-0.2158 -0.2260065,-0.063 -0.4549788,-0.1181 -0.6682563,-0.2146 -0.2356573,-0.099 -0.4652439,-0.2077 -0.6919629,-0.3228 0,0 0.9147587,-0.5487 0.9147587,-0.5487 z"
       inkscape:connector-curvature="0" />
    <path
       style="fill:url(#linearGradient3925);fill-opacity:1;stroke:none"
       id="path3111"
       d="m -3.0853163,1036.4657 c 0.2336722,0.063 0.4518967,0.165 0.6699503,0.2634 0.2366592,0.121 0.486205,0.2179 0.7293534,0.3268 0.1898691,0.072 0.379537,0.1435 0.5675624,0.2198 0.21805246,0.088 0.42611653,0.1957 0.64033526,0.2913 0.16251237,0.085 0.32534604,0.1701 0.48661103,0.2574 0.14476284,0.1091 0.30978698,0.1801 0.47707337,0.2536 0.21772894,0.1044 0.45063087,0.1756 0.67721964,0.2605 0.1888088,0.097 0.40028,0.1436 0.5934683,0.2306 0.190742,0.091 0.3293602,0.2376 0.4687056,0.3836 0.1599769,0.1677 0.3266164,0.3296 0.4950193,0.49 0.1380517,0.1318 0.228223,0.279 0.2239662,0.4642 -0.026806,0.1836 -0.1507819,0.3081 -0.2999852,0.4191 -0.1427855,0.083 -0.2333891,0.1932 -0.2952875,0.3358 -0.057524,0.1243 -0.078629,0.2571 -0.090452,0.3907 -0.00712,0.1362 -0.012652,0.273 -0.00258,0.4093 0.032017,0.1897 0.1315944,0.3572 0.2233982,0.5264 0.1020001,0.1956 0.2554958,0.3592 0.3983291,0.529 0.1479525,0.1795 0.3125467,0.3462 0.4806003,0.5096 0.1806295,0.1791 0.3687899,0.3509 0.5666756,0.5135 0.2210505,0.1841 0.4566282,0.3512 0.7052497,0.5017 0.2145771,0.117 0.4363089,0.2232 0.6453938,0.3485 0.1483377,0.087 0.3045985,0.1618 0.4577143,0.2414 0.1907122,0.094 0.3702781,0.2059 0.5580829,0.305 0.1922885,0.1186 0.3933932,0.2222 0.59428,0.3275 0.2441789,0.1167 0.4695084,0.2612 0.685723,0.4175 0.181424,0.1345 0.3483105,0.2847 0.5137263,0.4355 0.1478264,0.1362 0.2945453,0.2733 0.4415845,0.4102 0.1659318,0.1353 0.3344313,0.2678 0.4975431,0.4062 0.1902669,0.1395 0.3669932,0.2937 0.552468,0.4384 0.1951202,0.1458 0.4047782,0.2725 0.6080672,0.4078 0.177685,0.1138 0.361795,0.2159 0.547923,0.3171 0.256097,0.1236 0.504474,0.26 0.754644,0.3933 0.25028,0.1324 0.47964,0.2943 0.718719,0.4426 0.24768,0.1575 0.490852,0.3219 0.7259,0.4954 0.218626,0.1554 0.456865,0.281 0.69825,0.4024 0.22337,0.095 0.441785,0.1993 0.663186,0.2978 0.181687,0.086 0.361518,0.1754 0.550794,0.2461 0.211389,0.058 0.418463,0.131 0.6224,0.2088 0.193285,0.078 0.396848,0.1161 0.60542,0.1331 0.195976,0.015 0.393161,-10e-4 0.588323,0.021 0.182467,0.015 0.359574,0.054 0.539087,0.086 0.184543,0.023 0.368794,0.034 0.552735,0.06 0.210081,0.023 0.416591,0.064 0.626688,0.087 0.185501,0.017 0.366102,0.06 0.551858,0.078 0.183822,0.014 0.368433,0.015 0.552757,0.015 0.175643,0 0.349217,0.037 0.524472,0.053 0.187472,0.022 0.377444,0.044 0.562895,0.08 0.197237,0.038 0.390866,0.093 0.584843,0.1436 0.188534,0.05 0.381232,0.086 0.564644,0.1508 0.170571,0.063 0.350721,0.095 0.528608,0.1341 0.202179,0.056 0.409799,0.089 0.6087,0.1558 0.178017,0.05 0.354666,0.1 0.53156,0.1535 0.224803,0.079 0.442459,0.1752 0.660621,0.2689 0.235735,0.098 0.479198,0.1798 0.709512,0.2878 0.275131,0.1114 0.538695,0.2421 0.791787,0.392 0.207469,0.1183 0.412736,0.2398 0.61976,0.3588 0.158367,0.095 0.317413,0.1897 0.475587,0.2855 0.16524,0.1114 0.328134,0.2252 0.485444,0.3459 0.178398,0.1319 0.328947,0.2895 0.454859,0.4652 0.119611,0.1727 0.189229,0.3681 0.299566,0.5454 0.105138,0.1554 0.242757,0.2883 0.379433,0.4198 0.09261,0.088 0.188578,0.1732 0.277129,0.265 0,0 -0.926601,0.518 -0.926601,0.518 l 0,0 c -0.08421,-0.093 -0.180547,-0.1748 -0.2711,-0.2623 -0.142394,-0.1377 -0.284867,-0.2774 -0.393331,-0.4406 -0.108431,-0.1761 -0.174096,-0.3702 -0.293428,-0.5406 -0.12242,-0.1668 -0.267037,-0.3154 -0.439227,-0.4398 -0.155892,-0.1176 -0.317598,-0.2284 -0.482754,-0.3345 -0.157604,-0.095 -0.313711,-0.1913 -0.471213,-0.286 -0.205194,-0.1197 -0.407876,-0.2431 -0.612095,-0.3643 -0.251044,-0.1475 -0.516655,-0.2671 -0.787031,-0.381 -0.234423,-0.1 -0.474897,-0.1866 -0.71009,-0.2848 -0.217234,-0.091 -0.431976,-0.1879 -0.658395,-0.2567 -0.177307,-0.053 -0.358424,-0.094 -0.533575,-0.154 -0.198564,-0.059 -0.402419,-0.099 -0.603962,-0.1473 -0.180181,-0.041 -0.361338,-0.078 -0.533201,-0.1441 -0.184892,-0.056 -0.375501,-0.094 -0.561991,-0.1452 -0.190576,-0.051 -0.382427,-0.1021 -0.577516,-0.1361 -0.18671,-0.027 -0.373457,-0.057 -0.561844,-0.072 -0.172136,-0.019 -0.343665,-0.05 -0.517689,-0.045 -0.186638,0 -0.373758,0 -0.559454,-0.024 -0.183759,-0.023 -0.363859,-0.065 -0.548688,-0.081 -0.210377,-0.028 -0.419356,-0.063 -0.630219,-0.087 -0.185191,-0.024 -0.37294,-0.029 -0.556607,-0.064 -0.17591,-0.033 -0.352318,-0.063 -0.531224,-0.078 -0.19655,-0.012 -0.394092,0 -0.590026,-0.022 -0.213383,-0.027 -0.41903,-0.079 -0.616885,-0.1583 -0.20765,-0.074 -0.41748,-0.1422 -0.628419,-0.2075 -0.187704,-0.077 -0.368433,-0.1654 -0.549729,-0.2538 -0.220578,-0.1033 -0.445603,-0.197 -0.664796,-0.3024 -0.244302,-0.1265 -0.484516,-0.2595 -0.707034,-0.4177 -0.23097,-0.1733 -0.471118,-0.3358 -0.717394,-0.4901 -0.237486,-0.147 -0.46908,-0.3027 -0.716239,-0.436 -0.251015,-0.1334 -0.500437,-0.2696 -0.758259,-0.3917 -0.190485,-0.1009 -0.3802526,-0.2021 -0.5572309,-0.3232 -0.2043191,-0.1368 -0.4100006,-0.2719 -0.6078529,-0.4168 -0.18695,-0.1459 -0.3693946,-0.2967 -0.5593098,-0.4393 -0.1644483,-0.1394 -0.3346788,-0.2725 -0.5011453,-0.4097 -0.1467605,-0.1366 -0.2931951,-0.2735 -0.4404934,-0.4097 -0.1618465,-0.1483 -0.3247698,-0.2961 -0.502201,-0.4287 -0.2130381,-0.1541 -0.4380645,-0.2902 -0.6798424,-0.403 -0.201911,-0.1045 -0.400173,-0.2132 -0.5956913,-0.3276 -0.1876621,-0.1 -0.3678061,-0.212 -0.5625039,-0.3005 -0.1555688,-0.079 -0.3095253,-0.1595 -0.4580834,-0.2489 -0.2087612,-0.1233 -0.4250753,-0.2352 -0.6355143,-0.3559 -0.2516819,-0.1546 -0.4932091,-0.3232 -0.7168387,-0.5117 -0.2006713,-0.1646 -0.3909189,-0.3384 -0.5750928,-0.519 -0.1687594,-0.1668 -0.3368623,-0.3348 -0.4868885,-0.5166 -0.1490849,-0.1735 -0.3007869,-0.3462 -0.4073876,-0.5465 -0.099953,-0.1786 -0.2071018,-0.3547 -0.2501589,-0.5544 -0.021751,-0.1404 -0.011089,-0.2826 -0.00787,-0.4242 0.00852,-0.1419 0.022993,-0.2845 0.076337,-0.4188 0.063768,-0.1518 0.1177059,-0.2963 0.2754832,-0.3892 0.1414886,-0.087 0.2822609,-0.183 0.3346409,-0.3404 0.032533,-0.1646 -0.058669,-0.273 -0.1734677,-0.392 -0.1676994,-0.1621 -0.3323622,-0.3269 -0.4949925,-0.4935 -0.1347991,-0.1335 -0.2679664,-0.2696 -0.45140492,-0.3466 -0.19329103,-0.079 -0.39411933,-0.1411 -0.5826416,-0.2304 -0.2305245,-0.082 -0.46322208,-0.1605 -0.68503193,-0.2626 -0.17217858,-0.072 -0.3332118,-0.1553 -0.48623928,-0.2587 -0.15991877,-0.085 -0.31669587,-0.1744 -0.47928497,-0.2546 -0.2098609,-0.1 -0.4180266,-0.2044 -0.6373552,-0.2862 -0.1896079,-0.074 -0.3809607,-0.1447 -0.5673431,-0.2255 -0.2418563,-0.1091 -0.4874562,-0.2108 -0.7242192,-0.3293 -0.2200774,-0.095 -0.4414649,-0.1906 -0.6790674,-0.2428 0,0 0.9008179,-0.5665 0.9008179,-0.5665 z"
       inkscape:connector-curvature="0" />
    <path
       sodipodi:nodetypes="cszzzcccccccccccscc"
       inkscape:connector-curvature="0"
       id="path3113"
       d="m 9.1605147,1039.0337 c 0,0 -0.5188692,-0.9556 -1.6419811,-1.0859 -1.3843737,-0.1607 -2.0328486,0.3871 -2.3297006,1.6865 -0.2968513,1.2994 0.2232946,2.7309 1.7436491,3.0358 1.5203538,0.3048 2.257466,-0.9908 2.3030155,-1.1359 0.045549,-0.1451 0.012761,0.8867 0.012761,0.8867 l 0.4696536,0.015 -0.00765,-12.7651 c 0.81881,0.9683 1.769184,1.2831 2.926677,2.3426 0.663585,0.6831 0.862931,1.0189 1.171328,1.7295 0.125376,0.3603 0.314446,0.8085 0.375295,1.3427 0.03849,0.5604 -0.400266,1.4179 -0.585278,1.6694 0.403204,-0.2795 0.880842,-1.0682 1.105975,-1.7436 0.124419,-0.6357 0.190887,-0.9071 0.05317,-1.5007 -0.687332,-1.8466 -0.98803,-2.0153 -1.87068,-2.592 -1.30572,-0.7163 -1.802426,-1.0147 -2.82023,-1.8779 -0.1554336,-0.2307 -0.8616092,-1.1772 -0.8834583,-0.888 -0.017796,0.2356 -0.040709,10.4012 -0.040709,10.4012 z"
       style="fill:url(#linearGradient3927);fill-opacity:1;stroke:none" />
  </g>
</svg>
