<?xml version="1.0" encoding="UTF-8" standalone="no"?>
<!-- Created with Inkscape (http://www.inkscape.org/) -->

<svg
   xmlns:dc="http://purl.org/dc/elements/1.1/"
   xmlns:cc="http://creativecommons.org/ns#"
   xmlns:rdf="http://www.w3.org/1999/02/22-rdf-syntax-ns#"
   xmlns:svg="http://www.w3.org/2000/svg"
   xmlns="http://www.w3.org/2000/svg"
   xmlns:xlink="http://www.w3.org/1999/xlink"
   xmlns:sodipodi="http://sodipodi.sourceforge.net/DTD/sodipodi-0.dtd"
   xmlns:inkscape="http://www.inkscape.org/namespaces/inkscape"
   width="32"
   height="32"
   id="svg2"
   version="1.1"
   inkscape:version="0.48.3.1 r9886"
   sodipodi:docname="changelyrics.svg">
  <defs
     id="defs4">
    <linearGradient
       id="linearGradient3882">
      <stop
         style="stop-color:#ff0000;stop-opacity:1;"
         offset="0"
         id="stop3884" />
      <stop
         style="stop-color:#b00000;stop-opacity:1;"
         offset="1"
         id="stop3886" />
    </linearGradient>
    <radialGradient
       inkscape:collect="always"
       xlink:href="#linearGradient3882"
       id="radialGradient3888"
       cx="25.872419"
       cy="8.7629757"
       fx="25.872419"
       fy="8.7629757"
       r="6.0718932"
       gradientTransform="matrix(2.6168609,-1.4223028,1.1282617,2.0758618,-52.439335,25.241221)"
       gradientUnits="userSpaceOnUse" />
  </defs>
  <sodipodi:namedview
     id="base"
     pagecolor="#ffffff"
     bordercolor="#666666"
     borderopacity="1.0"
     inkscape:pageopacity="0.0"
     inkscape:pageshadow="2"
     inkscape:zoom="7.9195959"
     inkscape:cx="25.400302"
     inkscape:cy="20.355017"
     inkscape:document-units="px"
     inkscape:current-layer="layer1"
     showgrid="false"
     inkscape:window-width="1280"
     inkscape:window-height="1004"
     inkscape:window-x="-2"
     inkscape:window-y="-3"
     inkscape:window-maximized="1" />
  <metadata
     id="metadata7">
    <rdf:RDF>
      <cc:Work
         rdf:about="">
        <dc:format>image/svg+xml</dc:format>
        <dc:type
           rdf:resource="http://purl.org/dc/dcmitype/StillImage" />
        <dc:title></dc:title>
      </cc:Work>
    </rdf:RDF>
  </metadata>
  <g
     inkscape:label="1. réteg"
     inkscape:groupmode="layer"
     id="layer1"
     transform="translate(0,-1020.3622)">
    <path
       style="fill:#bbbbbb;fill-opacity:1;fill-rule:nonzero;stroke:#bbbbbb;stroke-width:0.20000000000000001;stroke-linecap:butt;stroke-linejoin:round;stroke-miterlimit:4;stroke-opacity:1;stroke-dasharray:none"
       id="path3084"
       d="m 5.0373031,6.8500893 c 0.3435627,0.00881 0.6870237,0.00829 1.0303088,0.02554 0.2960174,0.012046 0.5883033,0.058281 0.8803422,0.104369 0.2478846,0.039119 0.3634305,0.050849 0.6074505,0.1125903 0.1004669,0.02542 0.1989305,0.058187 0.2983958,0.08728 0.5839021,0.2052459 1.0965885,0.5591625 1.5909412,0.9235766 0.2914521,0.2206442 0.5980914,0.4206965 0.8789314,0.6552765 0.138065,0.115323 0.204898,0.1805245 0.336433,0.3026001 0.325494,0.3014614 0.598443,0.6490707 0.827038,1.0280252 0.164293,0.277866 0.293175,0.574918 0.406853,0.876508 0.09545,0.235401 0.151171,0.48353 0.202742,0.731414 0.04772,0.238297 0.05684,0.48116 0.06372,0.723305 0.0175,0.257032 -0.01306,0.509563 -0.05562,0.762262 -0.04904,0.270603 -0.146179,0.526847 -0.262509,0.774775 -0.101796,0.196067 -0.204613,0.391518 -0.299659,0.590988 -0.09133,0.190566 -0.164555,0.388837 -0.25336,0.580591 -0.125356,0.217553 -0.255665,0.432152 -0.383628,0.64817 -0.120594,0.208452 -0.247372,0.358617 -0.438959,0.50302 -0.02873,0.01851 -0.05652,0.03857 -0.08619,0.05554 -0.214573,0.122702 -0.4292155,0.24536 -0.646396,0.363386 -0.029367,0.01596 -0.061742,0.02562 -0.092684,0.03826 -0.095701,0.03909 -0.1924353,0.0754 -0.288742,0.112963 -0.2455275,0.09621 -0.4981354,0.171748 -0.7541519,0.234085 -0.2859784,0.06786 -0.5774607,0.101359 -0.8682336,0.139695 -0.2093831,0.02911 -0.4201096,0.04621 -0.6312985,0.05378 -0.1921545,0.01872 -0.3768495,-0.02079 -0.561281,-0.06966 C 6.3225206,17.142366 6.111195,17.061788 5.9039853,16.973844 5.6694577,16.866426 5.4297966,16.770637 5.1892302,16.67768 4.9201376,16.576812 4.6678082,16.442509 4.428308,16.284794 4.2133316,16.139976 4.0245572,15.961608 3.8505176,15.770528 3.7106477,15.617102 3.6203255,15.435156 3.5568146,15.239567 3.4913406,15.021842 3.4620222,14.795426 3.4411748,14.569683 c -0.019203,-0.258808 -0.02129,-0.518507 -0.023123,-0.777903 -0.00186,-0.23741 -0.00117,-0.474828 -3.662e-4,-0.712241 0.011728,-0.255301 0.082542,-0.502745 0.1594985,-0.744916 0.064104,-0.228326 0.1506569,-0.447047 0.2578477,-0.658247 C 3.9554551,11.45993 4.0814585,11.24669 4.2041269,11.031519 4.318528,10.81793 4.4573626,10.619142 4.5994066,10.423348 4.7442841,10.236588 4.8883355,10.049097 5.0376095,9.865815 5.1743787,9.6941336 5.3035128,9.5169001 5.4457625,9.3496098 5.5830142,9.2002654 5.7155878,9.0467966 5.8501485,8.8950491 5.964304,8.7592614 6.1034273,8.6486367 6.2341139,8.5297679 6.5202122,8.2709582 6.863742,8.0805837 7.2131289,7.920349 7.3965174,7.8414763 7.5919003,7.7975705 7.7836951,7.7447252 8.0118389,7.6805531 8.2440423,7.647774 8.4798331,7.6304061 8.7579234,7.611492 9.035945,7.6139133 9.3131774,7.6417815 c 0.2684622,0.00862 0.5089259,0.1170204 0.7522426,0.2181346 0.260351,0.1016005 0.498144,0.246542 0.724389,0.4087368 0.245743,0.1943902 0.488236,0.3932157 0.728579,0.594276 0.235516,0.2045771 0.47375,0.4065462 0.692091,0.6296286 0.185561,0.170365 0.394293,0.3125291 0.589135,0.4717533 0.159539,0.1305812 0.304869,0.2771022 0.451592,0.4215772 0.157852,0.150266 0.251605,0.342461 0.317542,0.54688 0.05593,0.173974 0.107191,0.347643 0.142097,0.52706 0.03343,0.197659 0.06017,0.396376 0.09305,0.59415 0.02812,0.212799 0.05809,0.42538 0.0791,0.639038 0.02324,0.218125 0.05889,0.434541 0.08331,0.652527 0.02161,0.211745 0.02576,0.424523 0.02713,0.637176 4.03e-4,0.23277 -8.74e-4,0.465542 9.14e-4,0.698308 0.006,0.179381 -0.004,0.358448 -0.02818,0.536175 -0.01623,0.143412 -0.04713,0.281041 -0.110327,0.411014 -0.05137,0.0994 -0.129386,0.175772 -0.225718,0.231758 -0.205967,0.1197 -0.413035,0.237496 -0.619552,0.356244 -0.110313,0.04982 -0.22569,0.08799 -0.339809,0.128176 -0.114581,0.02482 -0.228615,0.05064 -0.33644,0.09757 -0.07347,0.02939 -0.03674,0.01579 -0.110131,0.04092 0,0 0.518637,-0.404899 0.518637,-0.404899 l 0,0 c 0.07138,-0.02698 0.03525,-0.01308 0.108387,-0.04174 0.111122,-0.03854 0.2261,-0.06158 0.338174,-0.0967 0.11206,-0.04109 0.227231,-0.07623 0.331572,-0.135392 -0.167656,0.09706 -0.335849,0.193203 -0.502967,0.291188 -0.0193,0.01132 0.04014,-0.01986 0.05946,-0.03115 0.07229,-0.04224 0.136353,-0.09444 0.179744,-0.167099 0.07162,-0.121742 0.106511,-0.251896 0.122934,-0.392099 0.02836,-0.175164 0.04057,-0.352479 0.03702,-0.529938 0.0023,-0.23265 0.0021,-0.465329 -4.3e-5,-0.69798 -0.0027,-0.210669 -0.0052,-0.421632 -0.02426,-0.631601 -0.02221,-0.218466 -0.05982,-0.434588 -0.08483,-0.65271 -0.0188,-0.212624 -0.04952,-0.423807 -0.07615,-0.635525 -0.03174,-0.196717 -0.06472,-0.393229 -0.09577,-0.590032 -0.03675,-0.17667 -0.07914,-0.350986 -0.135453,-0.522712 C 12.940259,11.049164 12.849229,10.867588 12.69924,10.7247 12.553915,10.581454 12.406753,10.43979 12.250731,10.308122 12.055449,10.147145 11.850068,9.9983071 11.663435,9.827149 11.446133,9.6071439 11.21779,9.3978099 10.980143,9.199935 10.737538,9.0030871 10.497964,8.802421 10.250411,8.6118101 10.025698,8.4540007 9.7874116,8.3185585 9.5320237,8.2160917 9.2930412,8.1157573 9.0523671,8.0260144 8.7901137,8.0144221 8.5147324,7.9907333 8.2385186,7.9890046 7.9628897,8.0126098 7.7282995,8.0345297 7.4973775,8.0746311 7.2703816,8.1389827 7.0777611,8.1910515 6.8831919,8.2414245 6.7021591,8.3272379 6.4704967,8.4401307 6.5425605,8.4073399 7.1161094,8.0763131 c 0.023351,-0.013477 -0.045048,0.029635 -0.067526,0.044524 -0.070741,0.046855 -0.076834,0.04883 -0.1437648,0.1035229 -0.023082,0.018861 -0.04515,0.038929 -0.067725,0.058394 C 6.7086201,8.403593 6.5670994,8.5104378 6.449772,8.6427754 6.3133481,8.7938408 6.1821014,8.9494468 6.0421729,9.0973341 5.8976299,9.2631959 5.7658041,9.4385868 5.6317724,9.6128886 5.4810096,9.7947047 5.3385798,9.9831532 5.1911223,10.167638 c -0.143282,0.192868 -0.2827205,0.389601 -0.3975538,0.601073 -0.1225129,0.214701 -0.2483592,0.427438 -0.3703823,0.642421 -0.1087995,0.208002 -0.2006073,0.422491 -0.2631971,0.649333 -0.078935,0.235596 -0.1501195,0.477405 -0.167706,0.726382 2.723e-4,0.237459 -2.36e-4,0.474914 -8.059e-4,0.712373 9.288e-4,0.257665 0.00142,0.515635 0.020998,0.772719 0.020349,0.220799 0.051207,0.441309 0.112457,0.654915 0.062724,0.186108 0.1447429,0.361723 0.2788994,0.508452 0.1686229,0.188253 0.3517113,0.363984 0.5636571,0.503417 0.2374128,0.152673 0.4873409,0.283992 0.7524197,0.382475 0.2424888,0.09333 0.4855886,0.185713 0.7222694,0.293158 0.206016,0.08397 0.412953,0.168507 0.6279702,0.226774 0.1830208,0.04266 0.3661106,0.06908 0.5546217,0.05187 0.2075285,-0.0086 0.4146264,-0.02477 0.6205072,-0.05292 0.2889527,-0.03577 0.5778988,-0.07272 0.8608849,-0.143803 0.2566816,-0.06716 0.5099929,-0.146207 0.7561655,-0.245782 0.096462,-0.03763 0.1933344,-0.07447 0.2884144,-0.115528 0.03041,-0.01313 0.118776,-0.05817 0.0907,-0.04059 -0.141516,0.08858 -0.6884607,0.403955 -0.3783136,0.224893 0.043038,-0.02996 0.1264775,-0.08644 0.1657666,-0.120357 0.117399,-0.101344 0.204154,-0.231457 0.287826,-0.360378 0.128838,-0.213832 0.253148,-0.43041 0.385491,-0.642109 0.09127,-0.189766 0.158046,-0.389428 0.250006,-0.57873 0.09251,-0.202864 0.199586,-0.398319 0.305322,-0.594505 0.119618,-0.241153 0.218635,-0.492765 0.269731,-0.758108 0.04193,-0.248678 0.07919,-0.496871 0.0591,-0.750209 -0.005,-0.238743 -0.01423,-0.478263 -0.05769,-0.713673 -0.0486,-0.245395 -0.105726,-0.4899 -0.195796,-0.723871 C 11.223714,10.97785 11.102482,10.681088 10.943916,10.40395 10.847222,10.239316 10.834522,10.209074 10.720788,10.051473 10.547092,9.8107843 10.340001,9.5975542 10.129482,9.3892205 9.9624458,9.2342379 9.7949397,9.080427 9.6165978,8.9383122 9.4528011,8.8077881 9.3482724,8.7355276 9.1777744,8.6095112 9.0961533,8.5491844 9.014953,8.4882904 8.9335423,8.4276799 8.4412305,8.0713825 7.9340822,7.7187858 7.3534878,7.5223843 7.254846,7.4945095 7.157143,7.4630683 7.0575623,7.4387598 6.8307783,7.3833998 6.681624,7.3644905 6.4511114,7.3294902 6.1584981,7.2850607 5.86522,7.2431142 5.568785,7.2350165 c -0.3556913,-0.010564 -0.7113382,-0.0055 -1.0670416,0.00418 0,0 0.5355597,-0.3891069 0.5355597,-0.3891069 z"
       inkscape:connector-curvature="0"
       transform="translate(0,1020.3622)" />
    <path
       style="fill:#bbbbbb;fill-opacity:1;fill-rule:nonzero;stroke:#bbbbbb;stroke-width:0.20000000000000001;stroke-linecap:butt;stroke-linejoin:round;stroke-miterlimit:4;stroke-opacity:1;stroke-dasharray:none"
       id="path3086"
       d="m 10.637238,15.40916 c -0.168306,-0.0047 -0.336727,-0.0038 -0.505085,-0.0038 -0.1880281,1.14e-4 -0.3760538,-1.6e-5 -0.5640812,3.01e-4 -0.1854086,-0.0077 -0.3576377,-0.07593 -0.5138382,-0.17205 C 8.8423852,15.112946 8.6851536,14.930063 8.5351461,14.742273 8.3632533,14.529621 8.1967896,14.312209 8.0481409,14.082564 7.9046474,13.849185 7.7735928,13.607936 7.6566249,13.36021 7.5587489,13.13137 7.4586563,12.903382 7.3641494,12.673143 7.2841231,12.474882 7.2272375,12.268887 7.1798935,12.060751 7.1304324,11.857008 7.1039828,11.649979 7.086995,11.44139 c -0.012816,-0.179436 -0.011192,-0.359393 -0.012021,-0.539148 3.419e-4,-0.172931 -4.783e-4,-0.345869 3.997e-4,-0.518797 -0.00106,-0.172351 0.00112,-0.344694 4.079e-4,-0.5170437 0.00113,-0.1629082 -0.00119,-0.3258115 -0.00153,-0.4887164 9.866e-4,-0.1255366 -0.00531,-0.2513087 0.00311,-0.3766247 C 7.0982895,8.8600126 7.1021436,8.7171581 7.123064,8.5762809 7.1672618,8.4012921 7.1845062,8.2223574 7.2046778,8.0435951 7.2314113,7.8422712 7.2841131,7.6461408 7.3365232,7.4503653 7.3988251,7.2380743 7.4571575,7.024861 7.5262134,6.8146128 7.5998902,6.5882139 7.6696696,6.3608026 7.7365324,6.1322867 7.7787905,5.9343498 7.8393987,5.7431712 7.921843,5.5585666 8.0195003,5.3590463 8.1351295,5.1691891 8.2540492,4.981832 8.3647401,4.7985056 8.4879161,4.6233971 8.6087901,4.4467793 8.7025324,4.312998 8.7870333,4.17324 8.8786039,4.0379125 8.9694844,3.9121387 9.0438853,3.7760892 9.1162374,3.6391882 9.1790892,3.5205394 9.2568532,3.411443 9.3375454,3.304546 c 0,0 0.6017067,-0.2596477 0.6017067,-0.2596477 l 0,0 C 9.8614378,3.1514947 9.7781843,3.2540911 9.7148891,3.3706147 9.6390348,3.5080707 9.5680924,3.6487053 9.476934,3.777079 9.3830409,3.911994 9.2992845,4.0532468 9.2047495,4.1873855 9.0810327,4.3628832 8.9573217,4.5385382 8.8451686,4.7217701 8.7271105,4.9059762 8.6121246,5.0921769 8.5142009,5.2881251 8.42866,5.470234 8.3577568,5.6573427 8.3191171,5.8556983 8.2542822,6.0854002 8.1825385,6.312482 8.1108149,6.5400716 8.040278,6.7484029 7.9845929,6.9606696 7.9220972,7.1713693 7.8686254,7.3640884 7.8178894,7.5578729 7.7865048,7.7556136 7.7649067,7.9342551 7.759109,8.1154635 7.7096795,8.2897347 7.682957,8.4276083 7.6902074,8.5692709 7.6654607,8.7078639 c -0.013622,0.1235732 -0.00361,0.2483146 -0.00757,0.3724402 -3.356e-4,0.1634267 -0.00264,0.3268518 -0.00153,0.4902818 -7.39e-4,0.1723081 0.00142,0.3446125 -1.24e-5,0.5169211 4.766e-4,0.172997 -0.00116,0.345999 -0.0011,0.518998 -4.74e-4,0.178581 5.344e-4,0.357276 0.00879,0.535694 0.012457,0.205931 0.036937,0.410827 0.087537,0.611289 0.044826,0.205368 0.098189,0.408966 0.1778838,0.603962 0.089974,0.230891 0.1887353,0.458429 0.2856515,0.68647 0.1154812,0.24531 0.2442843,0.484545 0.3880809,0.714484 0.1468855,0.22796 0.3114238,0.443879 0.4818816,0.654682 0.1488377,0.180667 0.3062934,0.353311 0.5147149,0.466756 0.1526562,0.0851 0.3179738,0.143704 0.4950027,0.1431 0.187751,3.18e-4 0.375501,1.86e-4 0.563254,3.01e-4 0.171875,-3.8e-5 0.343806,7.78e-4 0.515633,-0.0038 0,0 -0.536444,0.389749 -0.536444,0.389749 z"
       inkscape:connector-curvature="0"
       transform="translate(0,1020.3622)" />
    <path
       style="fill:#bbbbbb;fill-opacity:1;fill-rule:nonzero;stroke:#bbbbbb;stroke-width:0.20000000000000001;stroke-linecap:butt;stroke-linejoin:round;stroke-miterlimit:4;stroke-opacity:1;stroke-dasharray:none"
       id="path3088"
       d="M 5.8947653,3.8502094 C 6.0865627,3.991078 6.2896407,4.1153581 6.4873645,4.2474898 6.744704,4.4085697 7.021464,4.5415794 7.3049693,4.650217 c 0.184566,0.070725 0.3724687,0.1239836 0.5613932,0.1813687 0.5998321,0.1783459 1.2150118,0.2946274 1.8359855,0.3664545 0.537654,0.052968 1.078346,0.058523 1.618122,0.060533 0.314791,-0.0037 0.630881,0.00801 0.943024,-0.039386 0.146254,-0.029591 0.292689,-0.062845 0.436892,-0.1016519 0.07825,-0.019327 0.0401,-0.00783 0.114523,-0.034265 0,0 -0.519854,0.402615 -0.519854,0.402615 l 0,0 c -0.07698,0.021524 -0.03821,0.011287 -0.116332,0.030688 -0.144076,0.033859 -0.287876,0.071492 -0.434845,0.090418 -0.306891,0.032597 -0.61542,0.015725 -0.923425,0.014326 C 10.281552,5.6157139 9.7416734,5.6097985 9.2054128,5.5500535 8.5831378,5.4719861 7.9673895,5.3495622 7.3648466,5.173947 6.8761024,5.0271774 6.3892689,4.860561 5.952307,4.5911588 5.7486473,4.4639101 5.5458334,4.3351311 5.3407098,4.210368 c 0,0 0.5540555,-0.3601586 0.5540555,-0.3601586 z"
       inkscape:connector-curvature="0"
       transform="translate(0,1020.3622)" />
    <path
       style="fill:#ff0000;fill-opacity:1;fill-rule:nonzero;stroke:#ff0000;stroke-width:0.20000000000000001;stroke-linecap:butt;stroke-linejoin:round;stroke-miterlimit:4;stroke-opacity:1;stroke-dasharray:none"
       id="path3092"
       d="m 13.816039,3.1411802 c -0.09954,0.2800831 -0.174586,0.5680567 -0.263167,0.8517889 -0.16621,0.4872587 -0.32702,0.9765573 -0.499976,1.4615124 -0.217723,0.58584 -0.542115,1.1206988 -0.858222,1.6567467 -0.232682,0.3624454 -0.415497,0.7531215 -0.633527,1.1240076 -0.158699,0.2699588 -0.197815,0.3220852 -0.373665,0.590134 -0.561804,0.7853205 -1.172025,1.5348272 -1.7704819,2.2922672 -0.5996501,0.781239 -1.232901,1.535294 -1.8546614,2.298747 -0.5345913,0.649034 -1.0242358,1.332762 -1.5373352,1.998524 -0.075791,0.09727 -0.1522416,0.194033 -0.2273738,0.291814 -0.1663978,0.216559 -0.2081339,0.268903 -0.3518337,0.489485 -0.1193782,0.183249 -0.2278304,0.373479 -0.3375933,0.562535 -0.1278412,0.234811 -0.2427955,0.477865 -0.33125,0.730369 -0.048174,0.125174 -0.076226,0.256136 -0.1106059,0.385324 -0.014775,0.06281 -0.027556,0.125413 -0.047906,0.186698 0,0 -0.5986684,0.277466 -0.5986684,0.277466 l 0,0 c 0.026702,-0.05819 0.040278,-0.117739 0.051719,-0.180655 0.036481,-0.132047 0.066915,-0.265903 0.1177302,-0.393597 0.088838,-0.26052 0.2131834,-0.508591 0.3440658,-0.750166 0.1636417,-0.275192 0.3259441,-0.552711 0.5154934,-0.811248 0.065479,-0.08931 0.1350516,-0.175552 0.2034301,-0.262664 0.077287,-0.09846 0.1557059,-0.196027 0.2335589,-0.294041 0.5193046,-0.664433 1.0053129,-1.354294 1.5444481,-2.003217 0.6284773,-0.76343 1.2678326,-1.517922 1.8687212,-2.303643 0.591555,-0.749909 1.1939616,-1.4928442 1.7431756,-2.2747435 0.17246,-0.2657061 0.20922,-0.3155468 0.366024,-0.5826464 0.21868,-0.3724968 0.406628,-0.7623617 0.638454,-1.1272325 0.311455,-0.531884 0.632055,-1.0615253 0.85039,-1.6405958 0.171703,-0.4815524 0.329452,-0.9680285 0.489653,-1.4534719 0.08265,-0.2777646 0.156099,-0.5576216 0.229536,-0.8377776 0,0 0.599867,-0.2817201 0.599867,-0.2817201 z"
       inkscape:connector-curvature="0"
       transform="translate(0,1020.3622)" />
    <path
       style="fill:#000000;fill-opacity:1;fill-rule:nonzero;stroke:#000000;stroke-width:0.2;stroke-linecap:butt;stroke-linejoin:round;stroke-miterlimit:4;stroke-opacity:1;stroke-dasharray:none"
       id="path3098"
       d="m 11.857905,18.176167 c 0.01557,0.203611 0.04397,0.406185 0.059,0.610196 0.0083,0.254991 0.06701,0.500886 0.126811,0.747351 0.08254,0.302315 0.16879,0.603206 0.24131,0.908172 0.09911,0.431982 0.221079,0.8575 0.357021,1.279184 0.158752,0.494957 0.340593,0.98202 0.506319,1.474576 0.162031,0.505178 0.343395,1.003857 0.537926,1.497364 0.175309,0.475318 0.407328,0.92511 0.648467,1.369473 0.157983,0.309112 0.329855,0.610797 0.512132,0.906158 0.146031,0.239092 0.302076,0.471673 0.46243,0.701313 0.125253,0.183565 0.256858,0.362933 0.396121,0.536117 0.123321,0.148031 0.253056,0.291388 0.394732,0.422094 0.125425,0.103073 0.259482,0.195138 0.392656,0.28782 0.121372,0.08525 0.242905,0.170126 0.365765,0.253185 0.111891,0.07516 0.239503,0.100745 0.367597,0.132439 0.132433,0.03327 0.268765,0.04239 0.404658,0.04794 0.157205,0.0049 0.313547,0.01182 0.468505,-0.0183 0.07766,-0.02261 0.15298,-0.0564 0.224612,-0.0939 0.02572,-0.01347 0.100462,-0.05828 0.07527,-0.04384 -0.488491,0.280013 -0.637678,0.373469 -0.402785,0.228116 0.149981,-0.09486 0.293215,-0.200175 0.424137,-0.320007 0.120613,-0.121408 0.224031,-0.258293 0.335631,-0.387811 0.116371,-0.135745 0.228779,-0.274691 0.340428,-0.41431 0.102796,-0.127715 0.197783,-0.261112 0.284884,-0.399932 0.08503,-0.155641 0.170824,-0.311099 0.254229,-0.46768 0.08892,-0.164398 0.155676,-0.338349 0.22372,-0.511925 0.06188,-0.161715 0.115156,-0.326275 0.164795,-0.492074 0.05046,-0.177586 0.09946,-0.355481 0.149383,-0.533196 0.05419,-0.18719 0.106788,-0.37484 0.160524,-0.56216 0.03897,-0.14387 0.07865,-0.287842 0.106773,-0.434304 0.01284,-0.0932 0.02829,-0.186 0.042,-0.27907 0,0 0.588586,-0.288987 0.588586,-0.288987 l 0,0 c -0.01416,0.09345 -0.03197,0.186451 -0.04098,0.280591 -0.02466,0.150217 -0.06975,0.295904 -0.107727,0.443119 -0.05823,0.186227 -0.106496,0.375574 -0.163569,0.56219 -0.04897,0.177572 -0.09569,0.355604 -0.145804,0.532882 -0.0501,0.167516 -0.100824,0.334535 -0.163802,0.497798 -0.06966,0.174354 -0.131572,0.351493 -0.220268,0.517637 -0.0804,0.15896 -0.173428,0.311569 -0.25115,0.471942 -0.0871,0.140469 -0.177145,0.278421 -0.281404,0.40712 -0.113566,0.13889 -0.224801,0.279568 -0.340306,0.416877 -0.113399,0.128582 -0.217935,0.264437 -0.331973,0.39227 -0.125544,0.128347 -0.272349,0.233144 -0.421079,0.333007 -0.273236,0.1787 -0.107231,0.07212 -0.711638,0.416792 -0.09762,0.05567 -0.204225,0.09936 -0.314609,0.120828 -0.158955,0.01952 -0.318857,0.01482 -0.478671,0.0091 -0.138555,-0.008 -0.276881,-0.0226 -0.41142,-0.05835 -0.134939,-0.03224 -0.265868,-0.07162 -0.381557,-0.151565 -0.12192,-0.08419 -0.241979,-0.171002 -0.363884,-0.255208 -0.135052,-0.09477 -0.27102,-0.189096 -0.396422,-0.296543 -0.141438,-0.13502 -0.270553,-0.282719 -0.396579,-0.432058 -0.137936,-0.175784 -0.27077,-0.355516 -0.394217,-0.541839 C 14.593237,27.766336 14.444112,27.527985 14.297606,27.28799 14.114007,26.99167 13.942131,26.688334 13.792528,26.373199 13.55568,25.923846 13.330916,25.467483 13.151607,24.991581 12.951939,24.49907 12.77066,23.99919 12.608973,23.492887 c -0.165351,-0.492669 -0.347125,-0.979693 -0.509939,-1.473265 -0.138345,-0.421401 -0.264678,-0.846143 -0.371123,-1.276834 -0.07616,-0.303167 -0.162688,-0.603247 -0.249414,-0.903459 -0.06383,-0.249277 -0.12306,-0.497981 -0.132597,-0.756586 -0.0157,-0.203337 -0.03967,-0.405297 -0.07881,-0.605543 0,0 0.59081,-0.301033 0.59081,-0.301033 z"
       inkscape:connector-curvature="0"
       transform="translate(0,1020.3622)" />
    <path
       style="fill:#000000;fill-opacity:1;fill-rule:nonzero;stroke:#000000;stroke-width:0.2;stroke-linecap:butt;stroke-linejoin:round;stroke-miterlimit:4;stroke-opacity:1;stroke-dasharray:none"
       id="path3102"
       d="m 20.642582,20.996816 c 0.03497,-0.266014 0.08536,-0.529735 0.121038,-0.795901 0.0852,-0.477832 0.117392,-0.961668 0.150322,-1.445103 0.0205,-0.303849 0.03619,-0.607978 0.0434,-0.912434 0.004,-0.185575 0.007,-0.370923 -0.0082,-0.556016 -0.0191,-0.184031 -0.06798,-0.362521 -0.128324,-0.536777 -0.05843,-0.132367 -0.116524,-0.26262 -0.147971,-0.404334 -0.01475,-0.08852 -0.0086,-0.04379 -0.01832,-0.134186 0,0 0.581435,-0.303613 0.581435,-0.303613 l 0,0 c 0.008,0.08608 0.003,0.04345 0.01487,0.127906 0.02832,0.140282 0.08511,0.268336 0.141423,0.399305 0.05883,0.180111 0.110816,0.362777 0.134586,0.551338 0.01547,0.187988 0.0175,0.37576 0.0083,0.564302 -0.01243,0.309685 -0.03881,0.618434 -0.06678,0.92706 -0.03701,0.482077 -0.06331,0.965405 -0.13995,1.443459 -0.02909,0.258565 -0.06885,0.515955 -0.09597,0.774458 0,0 -0.589836,0.300536 -0.589836,0.300536 z"
       inkscape:connector-curvature="0"
       transform="translate(0,1020.3622)" />
    <path
       style="fill:url(#radialGradient3888);fill-opacity:1;stroke:none"
       d="M 16.471356,-0.00985786 C 28.552095,0.69548442 27.154943,10.771579 25.441012,13.136807 l 2.026492,1.02137 -5.268787,2.022932 -2.585184,-5.006345 2.455358,0.803572 C 23.964065,6.9693947 21.89825,3.9965303 15.323718,4.0685053 16.537677,3.3075156 16.906387,1.403451 16.471356,-0.00985786 z"
       id="path3112"
       inkscape:connector-curvature="0"
       transform="translate(0,1020.3622)"
       sodipodi:nodetypes="cccccccc" />
    <path
       style="fill:#ffffff;fill-opacity:0.48235294;stroke:none;stroke-opacity:0.69491524000000005"
       d="m 26.540179,13.919643 -0.647322,-0.223214 -3.125,2.008929 z"
       id="path3890"
       inkscape:connector-curvature="0"
       transform="translate(0,1020.3622)"
       sodipodi:nodetypes="cccc" />
    <path
       style="fill:#ffffff;fill-opacity:0.48305132;stroke:none"
       d="m 23.067474,2.3178363 c 1.863065,1.3852288 2.775331,5.1726823 2.851342,6.0345249 l 0.04735,-0.1578356 C 26.153982,6.628472 25.367603,3.2895935 23.014705,2.2704854 z"
       id="path3892"
       inkscape:connector-curvature="0"
       transform="translate(0,1020.3622)"
       sodipodi:nodetypes="ccccc" />
  </g>
</svg>
