<?xml version="1.0" encoding="UTF-8" standalone="no"?>
<!-- Created with Inkscape (http://www.inkscape.org/) -->

<svg
   xmlns:dc="http://purl.org/dc/elements/1.1/"
   xmlns:cc="http://creativecommons.org/ns#"
   xmlns:rdf="http://www.w3.org/1999/02/22-rdf-syntax-ns#"
   xmlns:svg="http://www.w3.org/2000/svg"
   xmlns="http://www.w3.org/2000/svg"
   xmlns:xlink="http://www.w3.org/1999/xlink"
   xmlns:sodipodi="http://sodipodi.sourceforge.net/DTD/sodipodi-0.dtd"
   xmlns:inkscape="http://www.inkscape.org/namespaces/inkscape"
   width="100"
   height="100"
   id="svg2"
   version="1.1"
   inkscape:version="0.91 r13725"
   sodipodi:docname="logo.svg">
  <defs
     id="defs4">
    <linearGradient
       id="linearGradient3781">
      <stop
         id="stop3783"
         offset="0"
         style="stop-color:#f5f2da;stop-opacity:1;" />
      <stop
         id="stop3785"
         offset="1"
         style="stop-color:#e6e0c4;stop-opacity:1;" />
    </linearGradient>
    <linearGradient
       id="linearGradient3763">
      <stop
         style="stop-color:#ffffff;stop-opacity:1;"
         offset="0"
         id="stop3765" />
      <stop
         style="stop-color:#ede9d5;stop-opacity:1;"
         offset="1"
         id="stop3767" />
    </linearGradient>
    <radialGradient
       inkscape:collect="always"
       xlink:href="#linearGradient3763"
       id="radialGradient3771"
       cx="36.157562"
       cy="42.529091"
       fx="36.157562"
       fy="42.529091"
       r="36.588005"
       gradientTransform="matrix(0.671998,0.38975409,-0.61282478,1.0566073,37.922637,-18.494008)"
       gradientUnits="userSpaceOnUse" />
    <radialGradient
       inkscape:collect="always"
       xlink:href="#linearGradient3781"
       id="radialGradient3779"
       cx="50.882168"
       cy="35.004837"
       fx="50.882168"
       fy="35.004837"
       r="36.713398"
       gradientTransform="matrix(0.84184681,-1.4350429,1.0643889,0.62440809,-43.936184,91.695889)"
       gradientUnits="userSpaceOnUse" />
  </defs>
  <sodipodi:namedview
     id="base"
     pagecolor="#ffffff"
     bordercolor="#666666"
     borderopacity="1.0"
     inkscape:pageopacity="0.0"
     inkscape:pageshadow="2"
     inkscape:zoom="2.8"
     inkscape:cx="45.267315"
     inkscape:cy="64.284577"
     inkscape:document-units="px"
     inkscape:current-layer="layer1"
     showgrid="false"
     inkscape:window-width="1366"
     inkscape:window-height="742"
     inkscape:window-x="0"
     inkscape:window-y="0"
     inkscape:window-maximized="1" />
  <metadata
     id="metadata7">
    <rdf:RDF>
      <cc:Work
         rdf:about="">
        <dc:format>image/svg+xml</dc:format>
        <dc:type
           rdf:resource="http://purl.org/dc/dcmitype/StillImage" />
        <dc:title />
      </cc:Work>
    </rdf:RDF>
  </metadata>
  <g
     inkscape:label="1. réteg"
     inkscape:groupmode="layer"
     id="layer1"
     transform="translate(0,-952.36218)">
    <path
       style="fill:url(#radialGradient3771);fill-opacity:1;stroke:url(#radialGradient3779);stroke-width:1px;stroke-linecap:butt;stroke-linejoin:miter;stroke-opacity:1"
       d="M 48.928572,7.142857 C 68.346825,7.416731 92.692619,49.161357 85,75.357143 79.710817,93.368475 61.895867,95.729614 50.535715,95.714285 40.365684,95.700563 18.767977,94.032878 15,75.535714 9.5297025,48.681785 28.063365,6.8485753 48.928572,7.142857 z"
       id="path2985"
       inkscape:connector-curvature="0"
       transform="translate(0,952.36218)"
       sodipodi:nodetypes="sssss" />
    <path
       style="fill:#efebd1;fill-opacity:1;stroke:none;stroke-width:1.35599995;stroke-linecap:round;stroke-linejoin:bevel;stroke-miterlimit:4;stroke-dasharray:none"
       id="path3350"
       d="m 29.780759,971.14453 c 0.184632,0.24133 0.37524,0.47943 0.538805,0.73584 0.130549,0.18698 0.2604,0.37296 0.406611,0.54829 0.165402,0.18918 0.34222,0.36808 0.518095,0.54746 0.197083,0.22638 0.409474,0.43826 0.611087,0.66046 0.182002,0.20484 0.325489,0.44026 0.47322,0.67011 0.118722,0.16146 0.206977,0.34465 0.339267,0.49567 0.100314,0.11967 0.209451,0.22573 0.30351,0.35172 0.02436,0.0177 0.138367,0.2101 0.145827,0.15545 0.04707,0.0508 0.09337,0.10245 0.135269,0.15768 0.104478,-0.63444 -2.108869,1.14067 -1.55481,0.80401 0.04834,-0.1125 0.05134,-0.23818 0.0887,-0.35696 0.05916,-0.15695 0.06163,-0.32555 0.10332,-0.48693 0.05434,-0.23991 0.148262,-0.46714 0.246921,-0.69151 0.107478,-0.24868 0.227376,-0.48861 0.382752,-0.71062 0.144318,-0.21892 0.291573,-0.43393 0.451007,-0.64208 0.139164,-0.19023 0.264114,-0.38986 0.407685,-0.57697 0.07726,-0.11951 0.185875,-0.20514 0.284983,-0.30347 0.09962,-0.0979 0.16145,-0.23199 0.255602,-0.34819 0.133356,-0.14686 0.289019,-0.2723 0.4006,-0.43739 0.06273,-0.0874 0.146011,-0.14327 0.170247,-0.25067 0.374116,-0.6244 1.707393,-1.50696 1.846695,-0.6592 0.0079,0.13227 -0.0049,0.26451 -0.0093,0.39668 -0.0069,0.15622 -0.0077,0.31264 -0.0095,0.46899 0.0064,0.22213 0.09455,0.42252 0.192661,0.61718 0.122435,0.22914 0.260553,0.44872 0.398883,0.66848 0.153788,0.22062 0.322651,0.42878 0.4625,0.65896 0.124035,0.17048 0.239512,0.34718 0.341223,0.53183 0.09829,0.16259 0.186488,0.33135 0.288056,0.49182 0.06648,0.10771 0.138348,0.20357 0.238383,0.28194 0.05817,0.0428 0.08152,0.12564 0.09911,0.1938 -9.92e-4,-0.001 -0.002,-0.003 -0.003,-0.005 0.0056,0.007 0.01113,0.0149 0.01669,0.0223 0,0 -1.62415,0.96053 -1.62415,0.96053 l 0,0 c -0.03914,-0.0548 -0.01816,-0.0235 -0.06137,-0.095 -4.35e-4,-0.0364 0.0025,-0.0607 -0.02979,-0.0825 -0.100648,-0.10002 -0.185123,-0.21095 -0.256897,-0.33339 -0.101607,-0.16544 -0.194279,-0.3361 -0.295195,-0.50212 -0.09497,-0.18416 -0.213428,-0.35525 -0.329205,-0.52678 -0.138951,-0.22887 -0.309097,-0.4353 -0.458511,-0.65721 -0.142928,-0.22428 -0.285781,-0.44828 -0.41291,-0.682 -0.109763,-0.22036 -0.206448,-0.44531 -0.237904,-0.69214 -0.0011,-0.15739 -0.0014,-0.31476 10e-4,-0.47213 0.0053,-0.12534 0.01034,-0.25065 0.0185,-0.37584 0.02916,-0.65888 2.298977,-1.04665 1.563677,-0.93965 -0.01265,-2.4e-4 -0.02807,-0.009 -0.03795,-7.2e-4 -0.01731,0.0138 -0.07191,0.25059 -0.145835,0.24239 -0.128863,0.13972 0.02067,-0.0326 -0.09915,0.14391 -0.06134,0.0904 -0.146081,0.15285 -0.222804,0.22711 -0.02771,0.0268 -0.05068,0.0582 -0.07602,0.0872 -0.115843,0.0959 -0.200836,0.20087 -0.246447,0.33767 -0.09458,0.1125 -0.203987,0.18682 -0.299793,0.29779 -0.154816,0.17878 -0.292488,0.3712 -0.413269,0.57466 -0.161604,0.20504 -0.320822,0.4072 -0.455585,0.63118 -0.146386,0.22147 -0.309829,0.42793 -0.396094,0.68453 -0.105889,0.20926 -0.199915,0.42949 -0.253779,0.65786 -0.04587,0.16451 -0.07016,0.32591 -0.09289,0.49561 -0.04635,0.12652 -0.09132,0.23336 -0.0769,0.37276 -0.09221,0.70755 -1.296156,1.50099 -1.787668,0.94201 -0.02294,-0.0317 -0.04762,-0.0731 -0.08645,-0.0845 -0.06968,-0.0701 -0.122669,-0.15274 -0.182969,-0.23102 -0.09417,-0.12067 -0.201036,-0.2277 -0.296716,-0.34701 -0.129809,-0.16349 -0.227122,-0.34778 -0.345949,-0.51911 -0.139672,-0.22221 -0.275465,-0.44994 -0.45333,-0.64433 -0.200962,-0.21916 -0.404157,-0.43617 -0.60596,-0.65433 -0.182274,-0.18137 -0.365088,-0.36245 -0.531886,-0.55845 -0.150605,-0.18202 -0.286328,-0.37448 -0.416115,-0.57175 -0.155477,-0.25366 -0.339052,-0.48921 -0.534238,-0.71344 0,0 1.609453,-0.96194 1.609453,-0.96194 z"
       inkscape:connector-curvature="0" />
    <path
       style="fill:#efebd1;fill-opacity:1;stroke:none;stroke-width:1.35599995;stroke-linecap:round;stroke-linejoin:bevel;stroke-miterlimit:4;stroke-dasharray:none"
       id="path3495"
       d="m 38.397146,975.11692 c 0.003,0.0264 0.0048,0.12361 0.02262,0.14226 0.03823,0.0731 -0.0191,-0.0442 0.03338,0.0333 0.0039,0.006 0.0058,0.0141 0.01164,0.0183 0.004,0.003 -0.0045,-0.009 -0.0054,-0.0138 -5.31e-4,-0.003 0.0038,-0.008 0.0056,-0.006 0.0081,0.01 0.0254,0.0391 0.03376,0.053 0.06397,0.10929 -0.06968,-0.11154 0.01061,0.006 0.01957,0.0262 0.03454,0.0535 0.04749,0.0833 0.0073,0.0195 0.0059,0.0402 0.0079,0.0606 -0.03616,-0.0659 0.0091,0.0288 0.01338,0.0414 -9.28e-4,0.0327 0.02248,0.0671 0.04028,0.0933 0.02857,0.0467 0.06163,0.0904 0.09079,0.13669 0.03458,0.0492 0.07975,0.0901 0.118127,0.13698 0.04641,0.0557 0.09657,0.1069 0.139729,0.16523 0.04917,0.0419 0.08564,0.0955 0.129597,0.14237 0.0413,0.06 0.09703,0.10825 0.145788,0.16211 0.08285,0.0825 0.171098,0.15939 0.254645,0.24133 0.06806,0.0678 0.143407,0.12929 0.20428,0.20406 0.0158,0.0194 0.08503,0.11465 0.100173,0.13537 0.100183,0.1391 0.215381,0.26612 0.332634,0.39079 0.105943,0.11528 0.203768,0.23847 0.296261,0.36477 0.05245,0.0763 0.102501,0.15384 0.155485,0.2297 0.01712,0.0336 0.0359,0.0649 0.05688,0.0961 0.02618,0.0416 -0.01545,-0.0278 -0.0114,-0.049 9.74e-4,-0.0154 0.0095,-0.0149 0.02335,-0.0134 0.04797,10e-4 0.02878,0.004 0.04502,-0.0453 -0.523036,0.30048 -1.046072,0.60096 -1.569108,0.90144 0.01686,-0.009 0.03454,-0.0157 0.05057,-0.0257 0.01755,-0.011 0.124376,-0.092 0.133299,-0.0987 0.139249,-0.10507 0.04037,-0.0313 0.198086,-0.14808 0.364431,-0.25487 0.721615,-0.51918 1.071099,-0.79416 0.499029,-0.40585 0.980856,-0.83286 1.447712,-1.27524 0.337754,-0.32985 0.659219,-0.67555 0.997496,-1.00484 0.11583,-0.11932 0.243171,-0.22869 0.353961,-0.35283 0.04351,-0.023 0.06068,-0.0741 0.10259,-0.0974 0.0085,-0.007 0.01207,-0.0181 0.01955,-0.0254 0.561951,-0.2772 1.123901,-0.5544 1.685851,-0.83159 -0.0064,0.0795 -0.01372,0.15897 -0.009,0.23863 0.0459,0.25357 0.160573,0.48712 0.268442,0.71881 0.184263,0.38519 0.367714,0.77094 0.527651,1.16696 0.151919,0.40647 0.278628,0.82176 0.415893,1.23333 0.112276,0.33184 0.242489,0.65747 0.384093,0.97782 0.07936,0.1426 0.134286,0.30436 0.238089,0.43229 0.0184,0.0238 0.02094,0.028 0.03942,0.049 0.0091,0.0104 0.02244,0.0237 0.02271,0.0235 0.0037,-0.004 -0.02112,-0.0527 -0.02563,-0.0624 -0.186544,-0.61572 -0.0029,-0.0411 -1.614851,0.8827 -0.0088,0.005 0.02106,-7e-4 0.02976,-0.006 0.04292,-0.0254 0.09044,-0.10483 0.119812,-0.14303 0.143402,-0.17102 0.33913,-0.285 0.52418,-0.40507 0.233687,-0.15457 0.451901,-0.32977 0.658918,-0.51814 0.113492,-0.10396 0.216594,-0.21829 0.324638,-0.32758 0.486333,-0.45943 0.08397,-0.0842 1.659286,-0.96831 0.05502,-0.0309 0.138292,0.10795 0.159584,0.14363 0.07099,0.0932 0.132637,0.19243 0.196438,0.29066 0.110522,0.15574 0.242802,0.29372 0.380564,0.42526 0.109921,0.0973 0.218507,0.19601 0.327131,0.29474 0.05679,0.0603 0.123906,0.10794 0.17576,0.17272 0.02207,0.0382 0.05792,0.0653 0.08098,0.10193 0.01976,0.0224 0.03966,0.0539 0.05331,0.0835 0,0 -1.650684,0.91153 -1.650684,0.91153 l 0,0 c 0.01567,0.0181 -0.02576,-0.0448 -0.02896,-0.046 -0.02019,-0.0286 -0.03994,-0.0599 -0.05981,-0.0897 -0.04688,-0.0565 -0.0972,-0.10981 -0.144182,-0.16621 -0.100698,-0.10429 -0.2039,-0.20605 -0.303761,-0.31114 -0.140002,-0.14298 -0.275286,-0.29119 -0.402979,-0.44523 -0.07545,-0.0916 -0.151073,-0.18252 -0.232212,-0.26914 -0.02564,-0.009 0.0082,0.045 0.0082,0.0528 -6e-6,0.008 -0.01951,0.0228 -0.01288,0.019 1.632048,-0.93149 2.122594,-1.10977 1.516642,-0.88607 -0.14957,0.0837 -0.257599,0.22305 -0.38784,0.33202 -0.20263,0.19831 -0.423387,0.37567 -0.650208,0.54538 -0.163953,0.11746 -0.339696,0.21817 -0.499156,0.34169 -0.03381,0.0357 -0.04949,0.0473 -0.07296,0.0891 -0.0072,0.0128 -0.01304,0.0264 -0.01746,0.0404 -0.004,0.0125 0.0038,0.032 -0.0075,0.0387 -1.620521,0.9578 -1.125061,1.29622 -1.666531,0.91131 -0.04409,-0.0548 -0.08098,-0.10862 -0.107199,-0.17432 -0.07469,-0.16014 -0.119289,-0.33328 -0.183327,-0.4977 -0.116117,-0.33667 -0.246167,-0.66857 -0.347516,-1.01026 -0.128777,-0.41036 -0.249344,-0.82387 -0.406668,-1.22457 -0.157132,-0.39049 -0.325966,-0.77723 -0.538545,-1.14133 -0.135146,-0.2332 -0.276669,-0.46515 -0.37664,-0.71624 -0.02611,-0.0832 -0.0383,-0.16488 -0.04102,-0.25186 1.078988,-0.55124 1.77946,-1.48911 1.677972,-0.78301 -0.0033,0.028 -0.01069,0.057 -0.02679,0.0811 -0.0054,0.008 -0.01498,0.0129 -0.02031,0.021 -0.0662,0.10113 0.03588,-0.027 -0.0471,0.0725 -0.104059,0.0862 0.03002,-0.0274 -0.08904,0.0834 -0.114673,0.10666 -0.238806,0.20372 -0.354101,0.30972 -0.161973,0.14099 -0.326066,0.28064 -0.480936,0.4295 -0.210047,0.20189 -0.409859,0.41462 -0.6211,0.61534 -0.461184,0.43621 -0.936491,0.85726 -1.413995,1.27547 -0.313054,0.26096 -0.629288,0.51804 -0.960032,0.75648 -0.07791,0.0595 -0.155174,0.11945 -0.230149,0.18265 -0.01587,0.0134 -0.03233,0.0261 -0.04709,0.0407 -0.01189,0.0118 -0.01823,0.0296 -0.03263,0.038 -0.541217,0.31818 -1.087888,0.627 -1.631832,0.94049 -0.01437,-5.1e-4 -0.02893,8.4e-4 -0.04312,-0.001 -0.02343,-0.004 -0.04083,-0.0147 -0.06506,-0.0101 -0.01826,0.002 -0.03329,-6.9e-4 -0.04674,-0.0142 -0.03111,-0.0255 -0.06062,-0.0574 -0.07414,-0.0958 -0.0141,-0.0335 -0.03572,-0.0632 -0.0429,-0.0993 -0.03581,-0.0787 -0.08008,-0.15351 -0.122933,-0.22851 -0.08339,-0.12183 -0.164176,-0.24626 -0.266869,-0.35321 -0.121278,-0.12974 -0.239632,-0.26228 -0.347469,-0.40357 -0.08897,-0.11172 -0.188549,-0.21255 -0.295577,-0.30722 -0.09139,-0.0789 -0.185607,-0.15457 -0.274003,-0.23681 -0.05878,-0.052 -0.114137,-0.10733 -0.162683,-0.16913 -0.04247,-0.0533 -0.09159,-0.10051 -0.134843,-0.15307 -0.04216,-0.0539 -0.08686,-0.10576 -0.132819,-0.15652 -0.0463,-0.0513 -0.09985,-0.0964 -0.135992,-0.15613 -0.0305,-0.046 -0.06202,-0.0913 -0.09389,-0.13632 -0.02817,-0.0471 -0.05771,-0.0933 -0.07906,-0.14415 0.0044,-0.0168 -0.02864,-0.0506 -0.03795,-0.0779 0.0011,-0.0104 -0.0013,-0.0262 0.0056,-0.033 0.02861,0.0471 0.0046,0.003 0.01506,0.0232 0.04249,0.0804 -0.05599,-0.0585 -0.03594,-0.0494 0.04335,0.0725 -0.03629,-0.0372 -0.02874,-0.0247 0.0022,0.005 0.01182,0.0143 0.0067,0.0139 -0.0127,-9.2e-4 -0.05387,-0.0751 -0.05994,-0.0925 -0.008,-0.0183 -0.02031,-0.0445 -0.02453,-0.0635 -0.0096,-0.0434 -4.23e-4,-0.0915 -0.01931,-0.13359 0,0 1.656644,-0.87393 1.656644,-0.87393 z"
       inkscape:connector-curvature="0" />
    <path
       style="fill:#efebd1;fill-opacity:1;stroke:none;stroke-width:1.35599995;stroke-linecap:round;stroke-linejoin:bevel;stroke-miterlimit:4;stroke-dasharray:none"
       id="path3509"
       d="m 40.767126,978.25383 c -0.0109,0.0704 -0.0049,0.1389 0.01102,0.20768 0.0095,0.039 0.02718,0.0758 0.03983,0.11408 0.0016,0.005 0.0092,0.0178 0.0049,0.0148 -0.0058,-0.004 -0.0083,-0.0117 -0.0103,-0.0185 -0.0017,-0.006 0.0059,0.0101 0.0092,0.015 0.01255,0.0183 0.02444,0.0323 0.03559,0.0521 0.01,0.0188 0.02107,0.0319 0.03858,0.0591 0.0052,-0.0134 0.03933,0.1059 0.04217,0.0843 0.02209,0.0335 0.03858,0.069 0.04782,0.10805 -0.0021,-0.003 -0.0053,-0.0109 -0.0063,-0.008 -0.0043,0.0132 0.03881,0.0798 0.04451,0.0895 0.04524,0.0903 0.08311,0.18411 0.125883,0.27574 0.05861,0.12924 0.125565,0.25423 0.191931,0.37957 0.09293,0.16281 0.184182,0.32656 0.276059,0.48999 0.116308,0.18461 0.221828,0.37534 0.328115,0.56585 0.10882,0.19687 0.216103,0.39462 0.314651,0.59685 0.09386,0.19119 0.160414,0.39339 0.227203,0.59508 0.06764,0.19864 0.127919,0.3996 0.190512,0.59986 0.06202,0.20266 0.121948,0.40562 0.195541,0.60445 0.06264,0.17021 0.133478,0.33712 0.193755,0.50819 0.01619,0.0428 0.02874,0.0881 0.05407,0.12688 0.01132,0.0173 0.02595,0.0298 0.03744,0.0471 -0.0054,-0.0128 0.02853,0.0478 0.02277,0.0351 -0.0056,-0.0124 -0.05202,-0.0915 -5.64e-4,-0.0176 0.02397,0.0312 0.04125,0.0655 0.04898,0.10412 -0.0087,0.0672 0.0078,0.0842 0.05187,0.13769 0.181893,0.20518 0.421561,0.34803 0.648985,0.4964 0.555811,0.33333 1.1612,0.57453 1.760242,0.81784 0.542231,0.22173 1.08639,0.43845 1.632261,0.65104 0.275612,0.10629 0.554477,0.20459 0.827536,0.31735 0.07884,0.0189 0.146932,0.0674 0.225205,0.0861 0.01039,0.0179 0.02334,-0.0125 0.03143,-0.007 0.02826,0.0193 0.04995,0.0596 0.06629,0.0877 0.02872,0.0522 0.0189,0.10946 0.01872,0.16606 -7.4e-5,0.0222 0.0037,0.11701 0.0043,0.13526 0.0069,0.17927 0.0089,0.35867 0.01028,0.53805 -9.1e-4,0.21099 -0.0044,0.42194 -0.0034,0.63293 0.0048,0.22004 -0.0065,0.43948 -0.02065,0.65895 -0.01329,0.20515 -0.03139,0.40965 -0.06314,0.6128 -0.02827,0.14961 -0.04357,0.30119 -0.06148,0.45227 -0.01673,0.0809 -0.01,0.16313 -0.01275,0.24484 -4.27e-4,0.007 8.1e-5,0.0147 -0.0013,0.0218 -0.0038,0.0199 -0.0063,0.009 -0.01569,0.0261 -0.01555,0.029 -0.01623,0.0643 -0.0191,0.0961 -0.0079,0.11173 -0.0098,0.22378 -0.01374,0.3357 -0.0022,0.14683 -0.0022,0.29365 -6.73e-4,0.44048 1.02e-4,0.12232 0.0026,0.24453 0.0078,0.36673 -0.0019,0.0553 0.0099,0.1082 0.02481,0.16091 2e-5,0.0306 0.04541,0.12606 -0.0063,0.027 -0.01723,-0.036 -0.03748,-0.06 0.01443,-0.0588 0.366601,0.0482 0.73477,0.0826 1.102793,0.11824 0.947886,0.086 1.900636,0.0679 2.851127,0.0692 0.746756,10e-4 0.622976,0.002 1.345696,0.0209 0.838222,0.0376 1.672322,0.13701 2.499369,0.27606 0.227748,0.0362 0.453673,0.0813 0.673796,0.1501 0.0079,0.0206 0.05647,0.007 0.07058,0.0162 0.02235,0.0149 0.04071,0.045 0.05598,0.0668 0,0 -1.625069,0.96091 -1.625069,0.96091 l 0,0 c 0.03757,0.0574 -0.03147,-0.006 -0.04733,-0.0107 -0.167514,-0.0929 -0.352082,-0.14882 -0.532027,-0.21203 -0.724775,-0.22995 -1.476454,-0.36138 -2.233345,-0.42857 -0.201499,-0.0138 -0.402794,-0.0311 -0.604498,-0.0415 -0.485105,-0.0251 -0.906662,-0.0302 -1.393995,-0.0342 -0.755262,-0.006 -1.511355,-0.007 -2.265497,0.0411 -0.473233,0.0308 -0.946237,0.0631 -1.417989,0.11201 -0.0532,8.4e-4 -0.08498,-0.0274 -0.113258,-0.073 -0.03999,-0.0691 -0.02886,-0.0495 -0.03114,-0.11459 -0.0078,-0.0679 -0.02772,-0.13509 -0.02094,-0.20391 0.0051,-0.12483 0.0077,-0.24965 0.0077,-0.37458 0.0014,-0.14655 0.0013,-0.29309 -0.0011,-0.43963 -0.0041,-0.11038 -0.0069,-0.22078 -0.0098,-0.3312 -6.86e-4,-0.0443 9.8e-5,-0.0368 -0.0031,-0.0801 -0.0024,-0.0323 -0.01511,-0.0698 0.0095,-0.0961 0.0046,-0.007 0.02079,-0.0313 0.02298,-0.0389 0.01875,-0.0641 0.01009,-0.13541 0.02531,-0.20024 0.02804,-0.15599 0.05776,-0.31128 0.08101,-0.46813 0.04149,-0.19896 0.07408,-0.39891 0.08383,-0.60223 0.01945,-0.21447 0.02709,-0.43039 0.02529,-0.6457 0.0011,-0.2088 -0.0018,-0.41757 -0.0055,-0.62634 -0.002,-0.17289 -0.004,-0.34612 -0.02135,-0.5183 -0.0073,-0.0593 -0.01889,-0.1163 -0.0292,-0.17497 -0.0029,-0.0165 -0.0037,-0.0388 -0.0017,-0.0391 0.0036,-5.2e-4 0.0047,0.005 0.007,0.008 0.01001,0.0171 0.02339,0.0442 0.02056,0.0466 -0.0054,0.005 -0.04225,-0.0293 -0.04981,-0.0315 -0.06225,-0.0409 -0.125917,-0.0792 -0.190091,-0.11715 -0.232732,-0.13669 -0.468613,-0.26807 -0.713638,-0.38177 -0.518763,-0.24395 -1.051004,-0.45789 -1.577002,-0.68556 -0.609845,-0.25773 -1.216494,-0.52287 -1.817134,-0.80147 -0.284402,-0.12962 -0.580686,-0.24898 -0.814744,-0.46263 -0.06068,-0.0627 -0.130454,-0.13639 -0.142071,-0.22719 0.0077,-0.0112 0.01358,0.01 0.01664,0.0164 0.03035,0.0615 -0.04183,-0.0436 -0.04274,-0.0674 -0.034,-0.0756 -0.06361,-0.1515 -0.07814,-0.23382 -0.03827,-0.17454 -0.09945,-0.34301 -0.162492,-0.50992 -0.07432,-0.20179 -0.137608,-0.40688 -0.200329,-0.61256 -0.06181,-0.19949 -0.12572,-0.39831 -0.189467,-0.5972 -0.06346,-0.19482 -0.130357,-0.38878 -0.214883,-0.57567 -0.09287,-0.20019 -0.196362,-0.39514 -0.302074,-0.58881 -0.109175,-0.18822 -0.220217,-0.37527 -0.336832,-0.559 -0.09678,-0.16158 -0.190735,-0.32484 -0.291321,-0.48412 -0.07391,-0.12432 -0.144578,-0.25069 -0.21226,-0.37848 -0.04394,-0.0829 -0.08182,-0.17002 -0.134362,-0.2477 -0.03327,-0.048 -0.0695,-0.0945 -0.09165,-0.14905 0.0051,-0.0116 0.01047,-0.007 -6.52e-4,-0.0235 -0.01731,-0.0283 -0.02861,-0.0571 -0.04209,-0.0862 -0.01822,-0.0245 -0.03605,-0.0532 -0.04889,-0.0803 -0.01631,-0.0385 -0.06255,-0.0658 -0.06494,-0.1091 -0.0033,-0.0451 -0.02256,-0.0861 -0.03613,-0.12888 -0.008,-0.0781 -0.02353,-0.15501 -0.02701,-0.23344 0,0 1.669066,-0.85043 1.669066,-0.85043 z"
       inkscape:connector-curvature="0" />
  </g>
</svg>
