<?xml version="1.0" encoding="UTF-8" standalone="no"?>
<!-- Created with Inkscape (http://www.inkscape.org/) -->

<svg
   xmlns:dc="http://purl.org/dc/elements/1.1/"
   xmlns:cc="http://creativecommons.org/ns#"
   xmlns:rdf="http://www.w3.org/1999/02/22-rdf-syntax-ns#"
   xmlns:svg="http://www.w3.org/2000/svg"
   xmlns="http://www.w3.org/2000/svg"
   xmlns:xlink="http://www.w3.org/1999/xlink"
   xmlns:sodipodi="http://sodipodi.sourceforge.net/DTD/sodipodi-0.dtd"
   xmlns:inkscape="http://www.inkscape.org/namespaces/inkscape"
   width="64"
   height="64"
   id="svg2"
   version="1.1"
   inkscape:version="0.48.3.1 r9886"
   sodipodi:docname="Új dokumentum 1">
  <defs
     id="defs4">
    <linearGradient
       inkscape:collect="always"
       id="linearGradient4194">
      <stop
         style="stop-color:#ff0000;stop-opacity:1;"
         offset="0"
         id="stop4196" />
      <stop
         style="stop-color:#ff0000;stop-opacity:0;"
         offset="1"
         id="stop4198" />
    </linearGradient>
    <linearGradient
       inkscape:collect="always"
       id="linearGradient3767">
      <stop
         style="stop-color:#000000;stop-opacity:1;"
         offset="0"
         id="stop3769" />
      <stop
         style="stop-color:#000000;stop-opacity:0"
         offset="1"
         id="stop3771" />
    </linearGradient>
    <linearGradient
       inkscape:collect="always"
       xlink:href="#linearGradient3767"
       id="linearGradient3773"
       x1="85.729378"
       y1="24.076593"
       x2="20.38987"
       y2="24.076593"
       gradientUnits="userSpaceOnUse"
       gradientTransform="matrix(1.1462853,0,0,1.037166,-10.070698,998.15542)" />
    <linearGradient
       inkscape:collect="always"
       xlink:href="#linearGradient4194"
       id="linearGradient4200"
       x1="8.8839283"
       y1="20.852678"
       x2="9.3526793"
       y2="35.316963"
       gradientUnits="userSpaceOnUse"
       gradientTransform="matrix(3.3783782,0,0,2.961062,-17.282817,926.35354)" />
  </defs>
  <sodipodi:namedview
     id="base"
     pagecolor="#ffffff"
     bordercolor="#666666"
     borderopacity="1.0"
     inkscape:pageopacity="0.0"
     inkscape:pageshadow="2"
     inkscape:zoom="5.6"
     inkscape:cx="11.220385"
     inkscape:cy="30.554183"
     inkscape:document-units="px"
     inkscape:current-layer="layer1"
     showgrid="false"
     showguides="true"
     inkscape:guide-bbox="true"
     inkscape:window-width="1280"
     inkscape:window-height="1004"
     inkscape:window-x="-2"
     inkscape:window-y="-3"
     inkscape:window-maximized="1" />
  <metadata
     id="metadata7">
    <rdf:RDF>
      <cc:Work
         rdf:about="">
        <dc:format>image/svg+xml</dc:format>
        <dc:type
           rdf:resource="http://purl.org/dc/dcmitype/StillImage" />
        <dc:title></dc:title>
      </cc:Work>
    </rdf:RDF>
  </metadata>
  <g
     inkscape:label="1. réteg"
     inkscape:groupmode="layer"
     id="layer1"
     transform="translate(0,-988.36218)">
    <path
       style="fill:url(#linearGradient4200);fill-opacity:1;stroke:none"
       d="m 14.087837,1020.949 c -0.453421,-2.4764 -1.457116,-4.4856 -6.3344595,-4.7588 -5.9179258,0.5142 -7.06064163,2.3651 -7.84266323,5.5519 0.5347844,3.2246 -0.89814488,6.7157 7.54102273,7.4027 3.969336,0.1008 6.311696,-1.3932 6.937742,-3.9657 l -0.377052,3.1725 1.508205,-0.066 -0.527872,-34.96442 c 3.243448,2.75268 8.039565,6.32948 10.482022,10.31092 0.552996,3.9877 -1.51023,8.306 -3.393459,11.3684 2.507061,-2.9827 5.253435,-7.0869 5.731178,-11.4345 -1.955176,-5.14614 -7.373705,-8.52034 -11.009895,-12.02939 l -3.24264,-3.37085 0.150821,18.96924 z"
       id="path4184"
       inkscape:connector-curvature="0"
       sodipodi:nodetypes="ccccccccccccccc" />
    <path
       style="fill:url(#linearGradient3773);fill-opacity:1;stroke:none"
       d="m 16.43715,1013.4165 c -0.0054,2.5789 -0.60616,5.4042 3.428623,9.8161 1.67781,3.0522 1.616454,6.0279 0.921121,7.0843 -0.747213,1.2603 -1.090007,1.3246 -2.200459,2.0372 l 5.219693,9.2142 c 1.033992,2.0874 1.644146,1.5859 2.763361,1.7594 5.518975,-0.8414 3.025355,-0.2271 7.98306,-2.2225 1.330219,3.8482 1.276082,10.8322 -2.548834,11.3353 l 18.733449,-0.042 c -2.767443,-2.5013 -4.557407,-12.0843 -3.68767,-13.7386 2.562504,-0.8452 4.564873,-0.8894 8.88904,-5.7041 2.352231,-2.8168 4.268322,-6.1533 4.965335,-12.9103 0.112336,-4.6542 0.08419,-9.352 -6.496015,-15.7044 -4.266961,-4.0147 -8.164557,-4.1081 -13.509793,-4.63022 -5.988703,0.25256 -7.414866,-0.56487 -16.170811,2.31512 -5.429665,3.9562 -6.729047,3.7668 -8.2901,11.3902 z"
       id="path3757"
       inkscape:connector-curvature="0"
       sodipodi:nodetypes="cccccccccccccccc" />
  </g>
</svg>
