<?xml version="1.0" encoding="UTF-8" standalone="no"?>
<!-- Created with Inkscape (http://www.inkscape.org/) -->

<svg
   xmlns:dc="http://purl.org/dc/elements/1.1/"
   xmlns:cc="http://creativecommons.org/ns#"
   xmlns:rdf="http://www.w3.org/1999/02/22-rdf-syntax-ns#"
   xmlns:svg="http://www.w3.org/2000/svg"
   xmlns="http://www.w3.org/2000/svg"
   xmlns:xlink="http://www.w3.org/1999/xlink"
   xmlns:sodipodi="http://sodipodi.sourceforge.net/DTD/sodipodi-0.dtd"
   xmlns:inkscape="http://www.inkscape.org/namespaces/inkscape"
   inkscape:version="0.48.5 r10040"
   version="1.1"
   id="svg3097"
   height="32px"
   width="32px"
   sodipodi:docname="Új dokumentum 4">
  <defs
     id="defs3099">
    <marker
       inkscape:stockid="RazorWire"
       id="RazorWire"
       refX="0"
       refY="0"
       orient="auto"
       style="overflow:visible">
      <path
         id="path4529"
         transform="scale(0.8,0.8)"
         style="fill:#808080;fill-opacity:1;fill-rule:evenodd;stroke:#000000;stroke-width:0.1pt"
         d="M 0.022727273,-0.74009011 L 0.022727273,0.69740989 L -7.7585227,3.0099099 L 10.678977,3.0099099 L 3.4914773,0.69740989 L 3.4914773,-0.74009011 L 10.741477,-2.8963401 L -7.7272727,-2.8963401 L 0.022727273,-0.74009011 z " />
    </marker>
    <radialGradient
       inkscape:collect="always"
       xlink:href="#linearGradient5121"
       id="radialGradient5129"
       cx="12.189563"
       cy="1039.4854"
       fx="12.189563"
       fy="1039.4854"
       r="9.881752"
       gradientTransform="matrix(1.2403938,-2.225859,2.1255568,1.1844988,-2214.093,-163.17038)"
       gradientUnits="userSpaceOnUse" />
    <linearGradient
       id="linearGradient5121">
      <stop
         style="stop-color:#f2004a;stop-opacity:1;"
         offset="0"
         id="stop5123" />
      <stop
         style="stop-color:#c0003b;stop-opacity:1;"
         offset="1"
         id="stop5125" />
    </linearGradient>
    <radialGradient
       r="9.881752"
       fy="1039.4854"
       fx="12.189563"
       cy="1039.4854"
       cx="12.189563"
       gradientTransform="matrix(0.41093216,-0.76198642,0.70417929,0.40549378,-735.96542,-397.82757)"
       gradientUnits="userSpaceOnUse"
       id="radialGradient3122"
       xlink:href="#linearGradient5121"
       inkscape:collect="always" />
    <radialGradient
       inkscape:collect="always"
       xlink:href="#linearGradient5121"
       id="radialGradient4949"
       gradientUnits="userSpaceOnUse"
       gradientTransform="matrix(0.41093216,-0.76198642,0.70417929,0.40549378,-728.34042,-388.82757)"
       cx="12.189563"
       cy="1039.4854"
       fx="12.189563"
       fy="1039.4854"
       r="9.881752" />
  </defs>
  <sodipodi:namedview
     id="base"
     pagecolor="#ffffff"
     bordercolor="#666666"
     borderopacity="1.0"
     inkscape:pageopacity="0.0"
     inkscape:pageshadow="2"
     inkscape:zoom="8"
     inkscape:cx="27.628221"
     inkscape:cy="6.9102182"
     inkscape:current-layer="layer1"
     showgrid="true"
     inkscape:grid-bbox="true"
     inkscape:document-units="px"
     inkscape:window-width="1280"
     inkscape:window-height="1004"
     inkscape:window-x="0"
     inkscape:window-y="-1"
     inkscape:window-maximized="1" />
  <metadata
     id="metadata3102">
    <rdf:RDF>
      <cc:Work
         rdf:about="">
        <dc:format>image/svg+xml</dc:format>
        <dc:type
           rdf:resource="http://purl.org/dc/dcmitype/StillImage" />
        <dc:title></dc:title>
      </cc:Work>
    </rdf:RDF>
  </metadata>
  <g
     id="layer1"
     inkscape:label="Layer 1"
     inkscape:groupmode="layer">
    <path
       sodipodi:nodetypes="cszzzcccccccccccscc"
       inkscape:connector-curvature="0"
       id="path3113"
       d="m 3.5981574,14.916201 c 0,0 -0.349332,-0.543317 -1.1054732,-0.617398 -0.9320368,-0.09137 -1.3686262,0.220086 -1.56848329,0.958876 -0.19985669,0.738756 0.15033389,1.55262 1.17392119,1.725978 1.0235866,0.173289 1.5198512,-0.56331 1.5505175,-0.645812 0.030668,-0.0825 0.00859,0.50412 0.00859,0.50412 l 0.3161972,0.0086 -0.00511,-7.2575768 c 0.5512684,0.5505068 1.1911129,0.7294788 1.9704016,1.3318838 0.4467623,0.388343 0.5809726,0.579262 0.788603,0.983285 0.08441,0.204852 0.2117024,0.459685 0.2526695,0.763404 0.025914,0.31861 -0.2694811,0.806127 -0.3940414,0.94912 0.2714592,-0.158911 0.5930313,-0.607335 0.7446034,-0.99133 0.083766,-0.361402 0.1285156,-0.515725 0.035799,-0.853198 C 6.9035949,10.726209 6.7011486,10.630321 6.1068999,10.302433 5.2278161,9.8951594 4.8934063,9.7255329 4.2081639,9.2347635 4.1035172,9.1035812 3.628081,8.5654667 3.613371,8.7298898 3.601388,8.8638103 3.5859635,14.643464 3.5859635,14.643464 z"
       style="fill:url(#radialGradient3122);fill-opacity:1;stroke:none" />
    <path
       style="fill:#ffffff;fill-opacity:0.39830508;stroke:none"
       d="m 3.1494945,14.614828 c -1.3477559,-0.528747 -1.9750557,0.08774 -2.20263023,0.924381 l 0.005077,-0.01113 C 1.3543017,14.890422 1.6096888,14.530004 3.1606981,14.612652 z"
       id="path5131"
       inkscape:connector-curvature="0"
       sodipodi:nodetypes="ccccc" />
    <path
       style="fill:#ffffff;fill-opacity:0.39830508;stroke:none"
       d="m 5.6919695,10.163588 c 0.7171138,0.440364 1.4824289,1.130992 1.6314438,2.150501 l 0,0 C 7.3122515,11.580922 6.9412566,10.587028 5.6815115,10.163588 z"
       id="path5133"
       inkscape:connector-curvature="0"
       sodipodi:nodetypes="ccccc" />
    <path
       sodipodi:nodetypes="ccsssssssssccsccssssscccsccccssssssscccc"
       inkscape:connector-curvature="0"
       id="path4941"
       d="m 27.618927,-1.2904357 -15.459038,0.68121839 c 0.210573,0.3509558 0.218688,0.6803512 0.0625,1.03125 -0.156188,0.3508988 -0.468704,0.71643121 -0.84375,1.03125001 -0.375046,0.3148188 -0.831814,0.5825703 -1.21875,0.78125 -0.3869359,0.1986797 -0.7191069,0.3330281 -0.8632809,0.3828125 -0.110138,0.038031 -0.179974,0.021651 -0.230469,0.085937 -0.05049,0.064287 -0.0533,0.150041 -0.0625,0.21875 -0.01841,0.137418 -0.01046,0.2629525 0.03125,0.4375 0.08342,0.3490949 0.260151,0.8180176 0.5,1.375 0.6612059,1.5354657 1.8145569,3.762356 2.8437499,5.8749998 1.029193,2.112644 1.935074,4.149024 2.09375,5.125 0.01517,0.09334 0.0078,0.07233 -0.0625,0.15625 -0.03513,0.04196 -0.09457,0.09565 -0.125,0.1875 -0.03043,0.09185 -0.03932,0.203912 0,0.3125 0.05024,0.138761 0.121001,0.242353 0.21875,0.3125 0.09775,0.07015 0.201482,0.110265 0.3125,0.15625 0.782623,0.324173 1.034782,0.326896 1.8125,0.59375 0.360052,0.123542 0.747662,0.316121 1.0625,0.5625 0.314838,0.246379 0.537867,0.543134 0.59375,0.84375 0.108336,0.582781 -0.03283,1.295973 -0.53125,1.656249 -0.181844,0.131443 -0.369473,0.167794 -0.59375,0.25 -0.224277,0.08221 -0.464642,0.26156 -0.59375,0.625 -0.03002,0.08452 -0.02036,0.101745 -0.02734,0.179687 0.0047,0.08184 0.0056,0.134329 0.0586,0.218751 0.05295,0.08442 0.04834,0.07376 0.07773,0.108629 0.05282,0.0505 0.06427,0.07218 0.121414,0.102585 0.07746,0.03724 0.09924,0.0441 0.171956,0.06611 0.07331,0.01252 0.132452,0.03799 0.179687,0.03125 0.129111,0.0086 0.134215,0.04906 0.246094,0.140624 0.145132,0.118784 0.363781,0.335801 0.640625,0.714844 0.276844,0.379043 0.564722,0.870973 0.84375,1.375 0.558055,1.008055 1.05681,2.048771 1.375,2.53125 0.444609,0.674173 0.835794,1.654931 1.53125,2.25 0.533648,0.456618 1.318813,0.532956 1.96875,0.46875 1.570906,-0.155184 3.770147,-0.976472 5.67266,-1.711493 1.902497,-0.735001 3.428331,-1.393286 3.428331,-1.393286 l 15.23438,-6.875 C 48.643134,3.8907435 44.7381,2.961669 29.700074,-0.65157211 29.894636,-1.0886836 27.895448,-0.82956871 27.618927,-1.2904357 z"
       style="font-size:medium;font-style:normal;font-variant:normal;font-weight:normal;font-stretch:normal;text-indent:0;text-align:start;text-decoration:none;line-height:normal;letter-spacing:normal;word-spacing:normal;text-transform:none;direction:ltr;block-progression:tb;writing-mode:lr-tb;text-anchor:start;baseline-shift:baseline;color:#000000;fill:#ffe6d5;fill-opacity:1;stroke:none;stroke-width:0.40000001;marker:none;visibility:visible;display:inline;overflow:visible;enable-background:accumulate;font-family:Sans;-inkscape-font-specification:Sans" />
    <path
       style="font-size:medium;font-style:normal;font-variant:normal;font-weight:normal;font-stretch:normal;text-indent:0;text-align:start;text-decoration:none;line-height:normal;letter-spacing:normal;word-spacing:normal;text-transform:none;direction:ltr;block-progression:tb;writing-mode:lr-tb;text-anchor:start;baseline-shift:baseline;color:#000000;fill:#000000;fill-opacity:1;stroke:none;stroke-width:0.40000001;marker:none;visibility:visible;display:inline;overflow:visible;enable-background:accumulate;font-family:Sans;-inkscape-font-specification:Sans"
       d="m 12.195313,-0.65625 -0.101563,0.0625 c 0.210573,0.35095577 0.218688,0.68035119 0.0625,1.03125 C 12.000062,0.78839881 11.687546,1.1539312 11.3125,1.46875 10.937454,1.7835688 10.480686,2.0513203 10.09375,2.25 9.7068138,2.4486797 9.3746431,2.5830281 9.2304688,2.6328125 9.1203313,2.6708437 9.0504952,2.6544635 9,2.71875 8.9495048,2.7830365 8.9467042,2.868791 8.9375,2.9375 8.919092,3.074918 8.92704,3.2004525 8.96875,3.375 c 0.083421,0.3490949 0.260151,0.8180176 0.5,1.375 0.661206,1.5354657 1.814557,3.7623561 2.84375,5.875 1.029193,2.112644 1.935074,4.149024 2.09375,5.125 0.01517,0.09334 0.0078,0.07233 -0.0625,0.15625 -0.03513,0.04196 -0.09457,0.09565 -0.125,0.1875 -0.03043,0.09185 -0.03932,0.203912 0,0.3125 0.05024,0.138761 0.121001,0.242353 0.21875,0.3125 0.09775,0.07015 0.201482,0.110265 0.3125,0.15625 0.782623,0.324173 1.034782,0.326896 1.8125,0.59375 0.360052,0.123542 0.747662,0.316121 1.0625,0.5625 0.314838,0.246379 0.537867,0.543134 0.59375,0.84375 0.108336,0.582782 -0.03283,1.295974 -0.53125,1.65625 -0.181844,0.131443 -0.369473,0.167794 -0.59375,0.25 -0.224277,0.08221 -0.464642,0.26156 -0.59375,0.625 -0.03002,0.08452 -0.02036,0.101745 -0.02734,0.179687 0.0047,0.08184 0.0056,0.134329 0.0586,0.218751 0.05295,0.08442 0.04834,0.07376 0.07773,0.108629 0.05282,0.0505 0.06427,0.07218 0.121414,0.102585 0.07746,0.03724 0.09924,0.0441 0.171956,0.06611 0.07331,0.01252 0.132452,0.03799 0.179687,0.03125 0.129111,0.0086 0.134215,0.04906 0.246094,0.140624 0.145132,0.118784 0.363781,0.335801 0.640625,0.714844 0.276844,0.379043 0.564722,0.870973 0.84375,1.375 0.558055,1.008055 1.05681,2.048771 1.375,2.53125 0.444609,0.674173 0.835794,1.654931 1.53125,2.25 0.533648,0.456618 1.318813,0.532956 1.96875,0.46875 1.570906,-0.155184 3.847487,-0.921229 5.75,-1.65625 C 31.340013,27.202479 32.84375,26.5 32.84375,26.5 l -0.04687,-0.15625 c 0,0 -1.516241,0.67606 -3.40625,1.40625 -1.890009,0.73019 -4.257508,1.463481 -5.734375,1.609375 -0.571473,0.05645 -1.335459,-0.08055 -1.8125,-0.421875 C 21.22123,28.492077 20.793223,27.494558 20.3125,26.765625 20.039568,26.35177 19.503755,25.272867 18.9375,24.25 c -0.283128,-0.511434 -0.574053,-1.008543 -0.875,-1.40625 -0.354928,-0.469043 0.395664,-1.460572 0.321546,-1.493556 -0.07707,-0.0343 -0.48305,0.535107 -0.965391,0.566467 -0.241732,-0.0037 -0.471103,-0.04795 -0.5332,-0.08208 -0.01105,-0.0061 -0.09169,-0.0684 -0.14111,-0.11348 -0.03778,-0.03448 -0.06417,-0.10545 -0.07402,-0.169061 -0.0019,-0.05667 -0.01036,-0.122213 0.0076,-0.172683 0.0968,-0.272507 0.279005,-0.429326 0.447956,-0.491253 0.168951,-0.06193 0.293371,-0.08659 0.590631,-0.249585 0.497445,-0.272764 0.708153,-1.077072 0.577641,-1.779148 -0.08143,-0.438033 -0.38874,-0.748543 -0.75,-1.03125 -0.36126,-0.282707 -0.727926,-0.503409 -1.125,-0.639655 -0.799038,-0.27417 -0.900515,-0.251921 -1.657994,-0.565678 -0.122343,-0.05067 -0.191574,-0.07425 -0.21875,-0.09375 -0.02718,-0.0195 -0.058,-0.02626 -0.09375,-0.125 -0.01665,-0.04599 -0.0018,-0.05701 0,-0.0625 0.0018,-0.0055 -2.15e-4,-0.251472 0.234375,-0.3125 0.327377,-0.259016 1.331957,0.606737 0.455364,-0.193074 C 14.388554,15.1518 13.528071,12.681121 12.496046,10.562663 11.464021,8.4442048 10.337615,6.1815852 9.6875,4.671875 9.4516742,4.1242353 9.5111444,3.74446 9.5426238,3.4359296 9.5598702,3.2668969 9.617085,3.1419208 9.6550048,3.0386699 9.6553085,3.0328999 9.7247238,2.9102874 9.7760986,2.8121074 9.9082913,2.630729 9.9287735,2.5858613 10.261719,2.375 10.651968,2.1278468 10.970977,1.9485178 11.375,1.609375 11.779023,1.2702322 12.071063,0.9058615 12.265625,0.46875 c 0.194562,-0.43711147 0.206209,-0.66413253 -0.07031,-1.125 z"
       id="path3147"
       inkscape:connector-curvature="0"
       sodipodi:nodetypes="ccsssssssssccsccssssscccsccccsssssssccssssssscsccccsssscccccssssccsssc" />
    <path
       style="fill:url(#radialGradient4949);fill-opacity:1;stroke:none"
       d="m 11.223157,23.916201 c 0,0 -0.349332,-0.543317 -1.105473,-0.617398 -0.9320366,-0.09137 -1.368626,0.220086 -1.5684831,0.958876 -0.1998567,0.738756 0.1503339,1.55262 1.1739212,1.725978 1.0235869,0.173289 1.5198509,-0.56331 1.5505179,-0.645812 0.03067,-0.0825 0.0086,0.50412 0.0086,0.50412 l 0.316197,0.0086 -0.0051,-7.257577 c 0.551268,0.550507 1.191113,0.729479 1.970401,1.331884 0.446763,0.388343 0.580973,0.579262 0.788603,0.983285 0.08441,0.204852 0.211703,0.459685 0.25267,0.763404 0.02591,0.31861 -0.269481,0.806127 -0.394042,0.94912 0.27146,-0.158911 0.593032,-0.607335 0.744604,-0.99133 0.08377,-0.361402 0.128515,-0.515725 0.0358,-0.853198 -0.462758,-1.049944 -0.665204,-1.145832 -1.259453,-1.47372 -0.879084,-0.407274 -1.213494,-0.5769 -1.898736,-1.06767 -0.104647,-0.131182 -0.580083,-0.669296 -0.594793,-0.504873 -0.01198,0.13392 -0.02741,5.913574 -0.02741,5.913574 z"
       id="path4943"
       inkscape:connector-curvature="0"
       sodipodi:nodetypes="cszzzcccccccccccscc" />
    <path
       sodipodi:nodetypes="ccccc"
       inkscape:connector-curvature="0"
       id="path4945"
       d="m 10.774494,23.614828 c -1.3477554,-0.528747 -1.9750552,0.08774 -2.2026297,0.924381 l 0.00508,-0.01113 c 0.4023604,-0.637657 0.6577475,-0.998075 2.2087567,-0.915427 z"
       style="fill:#ffffff;fill-opacity:0.39830508;stroke:none" />
    <path
       sodipodi:nodetypes="ccccc"
       inkscape:connector-curvature="0"
       id="path4947"
       d="m 13.316969,19.163588 c 0.717114,0.440364 1.482429,1.130992 1.631444,2.150501 l 0,0 c -0.01116,-0.733167 -0.382156,-1.727061 -1.641902,-2.150501 z"
       style="fill:#ffffff;fill-opacity:0.39830508;stroke:none" />
  </g>
</svg>
