<?xml version="1.0" encoding="UTF-8" standalone="no"?>
<!-- Created with Inkscape (http://www.inkscape.org/) -->

<svg
   xmlns:dc="http://purl.org/dc/elements/1.1/"
   xmlns:cc="http://creativecommons.org/ns#"
   xmlns:rdf="http://www.w3.org/1999/02/22-rdf-syntax-ns#"
   xmlns:svg="http://www.w3.org/2000/svg"
   xmlns="http://www.w3.org/2000/svg"
   xmlns:xlink="http://www.w3.org/1999/xlink"
   xmlns:sodipodi="http://sodipodi.sourceforge.net/DTD/sodipodi-0.dtd"
   xmlns:inkscape="http://www.inkscape.org/namespaces/inkscape"
   width="65"
   height="32"
   id="svg3919"
   version="1.1"
   inkscape:version="0.48.3.1 r9886"
   sodipodi:docname="Új dokumentum 6">
  <defs
     id="defs3921">
    <linearGradient
       id="linearGradient4553">
      <stop
         style="stop-color:#00ff00;stop-opacity:1;"
         offset="0"
         id="stop4555" />
      <stop
         id="stop4561"
         offset="0.5"
         style="stop-color:#ffff00;stop-opacity:1;" />
      <stop
         style="stop-color:#00ff00;stop-opacity:1;"
         offset="1"
         id="stop4557" />
    </linearGradient>
    <linearGradient
       id="linearGradient4521">
      <stop
         style="stop-color:#00ffff;stop-opacity:1;"
         offset="0"
         id="stop4523" />
      <stop
         style="stop-color:#0000ff;stop-opacity:0.57615894;"
         offset="1"
         id="stop4525" />
    </linearGradient>
    <linearGradient
       inkscape:collect="always"
       xlink:href="#linearGradient4521"
       id="linearGradient4527"
       x1="3.1845145"
       y1="1037.0761"
       x2="13.267996"
       y2="1037.1206"
       gradientUnits="userSpaceOnUse" />
    <radialGradient
       inkscape:collect="always"
       xlink:href="#linearGradient4521"
       id="radialGradient4537"
       cx="27.532635"
       cy="19.190216"
       fx="27.532635"
       fy="19.190216"
       r="7.0014439"
       gradientTransform="matrix(1,0,0,0.8561582,0,2.7603553)"
       gradientUnits="userSpaceOnUse" />
    <linearGradient
       inkscape:collect="always"
       xlink:href="#linearGradient4553"
       id="linearGradient4559"
       x1="47.388046"
       y1="1027.0758"
       x2="47.400787"
       y2="1048.0365"
       gradientUnits="userSpaceOnUse"
       gradientTransform="matrix(1.7848596,0,0,1.5071642,-19.117763,-527.23635)" />
  </defs>
  <sodipodi:namedview
     id="base"
     pagecolor="#ffffff"
     bordercolor="#666666"
     borderopacity="1.0"
     inkscape:pageopacity="0.0"
     inkscape:pageshadow="2"
     inkscape:zoom="5.6"
     inkscape:cx="29.500364"
     inkscape:cy="11.365053"
     inkscape:document-units="px"
     inkscape:current-layer="layer1"
     showgrid="false"
     inkscape:window-width="1280"
     inkscape:window-height="978"
     inkscape:window-x="-4"
     inkscape:window-y="-4"
     inkscape:window-maximized="1" />
  <metadata
     id="metadata3924">
    <rdf:RDF>
      <cc:Work
         rdf:about="">
        <dc:format>image/svg+xml</dc:format>
        <dc:type
           rdf:resource="http://purl.org/dc/dcmitype/StillImage" />
        <dc:title></dc:title>
      </cc:Work>
    </rdf:RDF>
  </metadata>
  <g
     inkscape:label="1. réteg"
     inkscape:groupmode="layer"
     id="layer1"
     transform="translate(0,-1020.3622)">
    <path
       style="fill:url(#linearGradient4559);fill-opacity:1;stroke:none"
       id="path4551"
       d="m 1.464648,1035.7187 c 0.095153,0.2313 0.1476981,0.4702 0.19336,0.7114 0.054824,0.4006 0.1421989,0.7971 0.1920419,1.1985 0.020117,0.6218 -0.033524,0.3377 -1.49945224,0.7851 -0.0486411,0.015 -0.009329,-0.088 -0.0112423,-0.1311 -0.003708,-0.083 -0.002631,-0.3091 -0.002631,-0.3818 0.005382,-0.5145 0.006578,-1.0285 -0.0249843,-1.5424 -0.0347317,-0.4965 -0.0656122,-0.9931 -0.0824638,-1.4903 -0.0171386,-0.3795 0.0270175,-0.7591 0.0768904,-1.1358 0.0631246,-0.4618 0.1557818,-0.92 0.23381921,-1.38 0.13234749,-0.6996 0.29327803,-1.3936 0.39090582,-2.0977 0.0756825,-0.9165 0.24242681,-1.8243 0.37710771,-2.7351 0.074774,-0.5272 0.1197811,-1.0571 0.1356663,-1.588 0.013742,-0.6926 -0.4076354,-0.2892 1.5039803,-0.8374 0.047983,-0.015 0.018418,0.084 0.025487,0.1266 0.010525,0.063 0.018311,0.1266 0.027472,0.1907 0.1042189,0.8934 0.2151067,1.7857 0.2816566,2.6821 0.087511,1.1071 0.1119689,2.2169 0.1349894,3.3262 0.010046,0.7621 0.021504,1.5242 0.03582,2.2863 -0.00335,0.388 0.021576,0.7737 0.064273,1.1597 0.062646,0.3671 0.1226742,0.7335 0.1474122,1.1042 0.023059,0.4251 0.024314,0.8507 0.023406,1.276 -0.00132,0.4014 0.00287,0.802 0.030079,1.2028 0.034648,0.505 0.1345434,1.005 0.2235624,1.5045 0.09306,0.4667 0.1471264,0.9378 0.2106097,1.4077 0.085286,0.4695 0.1459842,0.9408 0.1811405,1.4148 -0.00574,0.3845 0.1022694,0.757 0.1845801,1.1323 0.041405,0.3491 0.098167,0.6969 0.1411285,1.0459 0.052133,0.2541 0.097832,0.5093 0.1504094,0.7632 0.3495818,0.3715 0.14104,0.1417 -1.4662024,0.6036 -0.064787,0.018 0.017318,-0.1144 0.022401,-0.1725 0.030414,-0.3402 0.051655,-0.677 0.096206,-1.0167 0.1415758,-0.9926 0.223658,-1.989 0.3707976,-2.9811 0.099447,-0.6054 0.1557112,-1.2148 0.2352089,-1.822 0.089867,-0.4373 0.125583,-0.8813 0.2393016,-1.3147 0.1411285,-0.454 0.2276551,-0.918 0.3360684,-1.3781 0.1008103,-0.3776 0.2341253,-0.7482 0.328988,-1.1271 0.04369,-0.2659 0.099435,-0.5302 0.1431461,-0.7961 0.018371,-0.2196 0.064811,-0.4353 0.1206387,-0.65 0.073518,-0.2548 0.1493031,-0.509 0.2048702,-0.7671 0.034289,-0.125 0.020224,-0.258 0.056164,-0.3829 0.1496428,-0.5205 1.2794432,-0.7289 1.5666337,-0.8423 0.053437,-0.021 0.1029272,0.049 0.1544088,0.073 0.3939269,0.3182 0.5955451,0.7657 0.7631146,1.1945 0.1746486,0.44 0.2588777,0.8999 0.4104735,1.3449 0.1206387,0.2827 0.1877543,0.5777 0.2827928,0.8661 0.084927,0.2675 0.199603,0.5266 0.2693976,0.7975 0.049514,0.1937 0.048928,0.3921 0.06377,0.5888 0.130813,0.4776 0.021289,0.038 -1.4930333,0.5957 -0.022198,0.015 0.043546,-0.021 0.057742,-0.038 0.083779,-0.098 0.134651,-0.2356 0.1933743,-0.345 0.1313297,-0.3233 0.2407057,-0.6517 0.3840947,-0.9722 0.1563355,-0.3228 0.266294,-0.6587 0.3732876,-0.9947 0.114038,-0.2737 0.1456972,-0.5653 0.2477645,-0.8408 0.2768977,-0.4892 0.123905,-0.2562 1.5939443,-0.6503 0.06025,-0.016 0.06031,0.094 0.08415,0.1431 0.126476,0.2623 0.210914,0.5442 0.303277,0.8155 0.263203,0.7743 0.47785,1.5586 0.772392,2.3255 0.05406,0.1342 0.140166,0.3593 0.209305,0.4949 0.03531,0.069 0.12096,0.2133 0.156122,0.2093 0.02765,0 0.03191,-0.082 0.0068,-0.071 -0.475111,0.1949 -0.928246,0.426 -1.392368,0.639 0.108895,-0.4092 0.144074,-0.8287 0.231421,-1.2418 0.108596,-0.4468 0.262118,-0.8868 0.447579,-1.315 0.15878,-0.2948 0.30309,-0.6008 0.520017,-0.8693 0.505531,-0.2487 0.992411,-0.5265 1.516594,-0.7459 0.04748,-0.02 0.10325,0.025 0.147839,0.05 0.265489,0.1446 0.346241,0.4294 0.427458,0.6665 0.119228,0.3562 0.190006,0.7216 0.276915,1.0839 0.03504,0.1191 0.0415,0.2438 0.08646,0.3615 0.0083,0.021 0.0073,0.053 0.03132,0.062 0.0166,0 0.02343,-0.053 0.0069,-0.046 -0.479331,0.1965 -0.944794,0.4163 -1.417191,0.6245 0.02899,-0.021 0.06275,-0.038 0.08697,-0.061 0.03071,-0.031 0.184334,-0.2513 0.197986,-0.2706 0.121227,-0.171 0.243673,-0.3411 0.36716,-0.511 0.146162,-0.1633 0.249643,-0.4066 0.473317,-0.5132 1.545799,-0.7369 0.975218,-0.7804 1.703752,-0.6922 0.388839,0.1536 0.565255,0.5167 0.743561,0.8254 0.162922,0.2401 0.219201,0.5523 0.459176,0.749 0.03129,0.015 0.06054,0.029 0.09385,0.029 0.05741,10e-4 0.149321,-0.055 0.190262,-0.077 -0.438261,0.2061 -0.870914,0.4207 -1.314782,0.618 -0.0422,0.02 0.07284,-0.053 0.106228,-0.082 0.03606,-0.031 0.06785,-0.065 0.101779,-0.098 0.173828,-0.1712 0.261268,-0.374 0.30559,-0.5929 0.08175,-0.6629 -0.174113,-0.2694 1.471594,-0.9711 0.0077,0 0.170632,0.1657 0.176201,0.1713 0.210991,0.2494 0.357328,0.5295 0.524586,0.7997 0.06445,0.059 0.165742,0.2147 0.295717,0.1673 0.03173,-0.015 0.107628,-0.073 0.07717,-0.059 -1.313683,0.5943 -1.696367,0.9359 -1.22944,0.5389 0.213219,-0.2813 0.267259,-0.6234 0.329621,-0.9473 0.03483,-0.3055 0.08521,-0.6092 0.133007,-0.9133 0.04594,-0.2021 0.104052,-0.4014 0.134078,-0.6059 0.02429,-0.2619 0.09749,-0.5186 0.174114,-0.7728 0.117519,-0.4944 0.221146,-0.9909 0.343728,-1.4848 0.101277,-0.345 0.183001,-0.6931 0.255422,-1.0429 0.496692,-0.2253 0.969642,-0.4927 1.490072,-0.6757 0.05101,-0.018 0.05206,0.083 0.06859,0.1281 0.09838,0.265 0.09453,0.6005 0.124475,0.8759 0.05294,0.5841 0.125281,1.1659 0.227143,1.7453 0.09399,0.4596 0.162334,0.9214 0.231465,1.3841 0.08944,0.4297 0.170454,0.8603 0.22798,1.2941 0.04186,0.2958 0.03886,0.594 0.0421,0.8916 -0.0061,0.2913 0.0023,0.5827 0.0011,0.874 -0.01286,0.3715 0.01961,0.7427 0.05993,1.1123 0.0593,0.4466 0.144734,0.8911 0.247107,1.3321 0.07084,0.3332 0.156817,0.663 0.212109,0.9985 0.08069,0.6166 0.352626,0.2842 -1.448155,0.7937 -0.07368,0.021 0.02676,-0.1296 0.03409,-0.1947 0.03135,-0.2792 0.04578,-0.678 0.05909,-0.943 0.04082,-0.8958 -0.0087,-1.7932 0.04744,-2.6886 0.02385,-0.3805 0.08946,-0.9357 0.131455,-1.3167 0.152892,-1.2088 0.220487,-2.423 0.252664,-3.638 0.02114,-1.0167 0.06144,-2.033 0.08417,-3.0499 0.01041,-0.7053 0.01947,-1.4108 0.0066,-2.1163 -0.02501,-0.3867 -0.01374,-0.771 0.02691,-1.1563 0.04637,-0.2632 0.0104,-0.5349 0.09478,-0.7924 1.060081,-1.481 1.718633,-0.8329 2.08396,-0.069 0.229677,0.4894 0.277598,1.0159 0.310043,1.5359 0.02701,0.6255 0.02565,1.2518 0.0272,1.8775 0.0041,0.5259 0.0041,1.0516 0.0079,1.5774 -0.01785,0.4571 0.02959,0.9124 0.06782,1.368 0.02502,0.3896 0.097,0.775 0.129028,1.1644 0.02431,0.4544 0.02219,0.9094 0.03127,1.3641 0.0098,0.302 0.0116,0.6042 0.01464,0.9062 -8.8e-4,0.2744 -0.0023,0.5487 -0.0041,0.823 0.0012,0.3542 -0.0044,0.7081 -0.0125,1.0621 -0.01088,0.5769 -0.01482,1.154 -0.0097,1.731 0.0077,0.4248 0.0157,0.8494 0.01518,1.2742 -0.0023,0.3975 6.5e-5,0.7949 -0.0014,1.1924 3.23e-4,0.4296 -0.0019,0.8593 -0.0054,1.289 -0.008,0.4605 -0.0023,0.9209 0.0086,1.3813 -0.0033,0.2333 0.04857,0.4756 -0.0517,0.6988 -0.504403,0.2201 -0.988161,0.4779 -1.513213,0.6603 -0.04597,0.016 -0.05818,-0.069 -0.07794,-0.1075 -0.11832,-0.2306 -0.09465,-0.5715 -0.106479,-0.8169 -0.0044,-0.7341 0.161012,-1.458 0.299906,-2.1796 0.177147,-0.9629 0.321842,-1.9295 0.480611,-2.8948 0.111802,-0.8508 0.232016,-1.7009 0.359248,-2.5504 0.09631,-0.6231 0.148161,-1.2501 0.239297,-1.8738 0.0979,-0.5315 0.247761,-1.0552 0.388156,-1.5798 0.144645,-0.5188 0.245684,-1.043 0.301955,-1.5736 0.05035,-0.5803 0.05423,-1.1622 0.05244,-1.7437 -0.0043,-0.4582 -0.01088,-0.9165 -0.01446,-1.3746 -0.0054,-0.4081 9.08e-4,-0.816 0.0022,-1.2241 0.0036,-0.4679 0.0041,-0.9357 -4.8e-5,-1.4035 -0.0032,-0.3911 -0.0055,-0.7821 -0.0048,-1.1732 -0.0026,-0.4238 3.89e-4,-0.847 0.03401,-1.2701 0.03748,-0.4309 0.167652,-0.8484 0.27785,-1.2685 0.127063,-0.4071 0.191952,-0.8232 0.227496,-1.2425 0.02965,-0.4143 0.03064,-0.8297 0.0262,-1.2449 -0.05713,-0.5395 -0.550308,-0.2696 1.457839,-0.6444 0.09792,-0.018 -0.0157,0.1689 -0.02099,0.2534 -0.01552,0.2501 -0.02319,0.556 -0.03113,0.8021 -0.0236,1.0989 -0.02495,2.1983 -0.01696,3.2975 -0.0016,0.9298 0.08053,1.8539 0.215903,2.7755 0.09878,0.6017 0.13383,1.2076 0.156426,1.8138 0.0062,0.5186 0.02693,1.0378 0.0019,1.5563 -0.03918,0.4843 -0.06165,0.9696 -0.114576,1.4531 -0.0293,0.4126 -0.09874,0.8204 -0.180272,1.2276 -0.06681,0.4595 -0.165136,0.9147 -0.249958,1.3719 -0.08549,0.4733 -0.161672,0.9459 -0.201112,1.4236 -0.04389,0.6328 -0.04455,1.267 -0.04615,1.9006 7.25e-4,0.8575 -0.02361,1.7148 -0.03578,2.572 -0.01624,1.004 -0.0026,2.008 0.03364,3.0116 0.01767,0.4203 0.02571,0.841 0.02679,1.2617 2.82e-4,0.3253 0.0039,0.6507 0.0026,0.9763 -8.18e-4,0.405 -0.01678,0.8098 -0.0011,1.2148 0.02203,0.4449 0.117733,0.8836 0.174612,1.3258 0.06855,0.3155 0.09101,0.6372 0.181783,0.9489 0.09696,0.284 0.179158,0.5712 0.260454,0.8585 0.07873,0.331 0.199969,0.6599 0.231109,0.9976 0.0033,0.021 0.03303,0.055 0.01005,0.065 -1.249012,0.4963 -1.477359,1.0119 -1.563233,0.4173 -0.02727,-0.1886 -0.0326,-0.3802 -0.04121,-0.57 -0.0157,-0.4914 -0.01518,-0.9824 -0.04514,-1.4733 -0.04589,-0.6079 -0.05967,-1.2172 -0.06586,-1.826 -0.01148,-0.7582 0.0026,-1.5161 0.0093,-2.2741 0.01112,-0.9774 0.01232,-1.9549 0.0061,-2.9323 -0.0087,-0.7576 -0.01931,-1.5153 -0.02136,-2.273 -0.0033,-0.6347 -0.0029,-1.2695 -0.0048,-1.9044 -1.51e-4,-0.6256 -0.0019,-1.2513 0.0048,-1.8771 0.0039,-0.5272 -0.01338,-1.0543 -0.02237,-1.5813 -0.0065,-0.3428 -0.0059,-0.6856 -0.0017,-1.0283 0.0018,-0.4191 0.0061,-0.8379 0.0065,-1.2567 0.0059,-0.489 0.0026,-0.9778 0.0029,-1.4667 0.0012,-0.4558 -1.61e-4,-0.9115 -0.0072,-1.3673 -7.37e-4,-0.3126 -0.02027,-0.6258 0.0025,-0.9379 0.03406,-0.3316 0.124797,-0.6563 0.25823,-0.9688 0.140433,-0.3132 0.304316,-0.6182 0.456724,-0.9274 0.123245,-0.2717 0.25403,-0.5405 0.387984,-0.8085 0.147001,-0.268 0.258501,-0.5487 0.355188,-0.8321 0.01112,-0.039 0.02312,-0.077 0.03309,-0.1161 0.0104,-0.041 0.03399,-0.1433 0.03728,-0.1899 7.84e-4,-0.015 -0.01678,-0.029 -0.0047,-0.034 1.545819,-0.6398 1.476282,-1.0539 1.517473,-0.4816 0.04292,0.6625 0.03532,1.3267 0.03883,1.99 -0.005,1.154 -0.01392,2.308 -0.0125,3.462 0.0023,1.0973 0.0084,2.1944 0.02002,3.2915 0.0116,0.8639 0.0036,1.7279 0.01214,2.5919 0.0032,0.661 -0.0069,1.3202 0.07714,1.9779 0.0637,0.5378 0.205417,1.0649 0.302415,1.5985 0.08218,0.4518 0.08889,0.9094 0.09854,1.3655 0.0044,0.3803 0.01052,0.7608 0.0116,1.1414 0.0037,0.2853 0.0039,0.5706 0.0014,0.8559 0.01124,0.2552 0.0017,0.5074 -0.03973,0.7603 -0.138076,0.837 0.247678,0.3174 -1.553351,0.9634 -0.161994,-1.1881 -0.210864,-2.3849 -0.269669,-3.5792 -0.06289,-1.3162 -0.08171,-2.6336 -0.09167,-3.9509 -0.01005,-1.1055 0.0032,-2.2113 -0.01767,-3.3168 -4.8e-5,-0.5446 -0.06015,-1.0886 -0.01972,-1.6327 0.04111,-0.2787 0.121943,-0.5514 0.218146,-0.8198 0.344476,-0.8333 0.785831,-0.7719 1.919972,-1.3063 0.446474,0.074 0.603188,0.3772 0.81482,0.6822 0.276564,0.4389 0.446082,0.9172 0.600076,1.3948 0.127439,0.5829 0.303333,1.1566 0.42344,1.7406 0.08989,0.4579 0.220194,0.9091 0.30326,1.3679 0.03602,0.3428 0.140112,0.6755 0.221122,1.0117 0.07646,0.263 0.141236,0.5265 0.174185,0.796 0.02639,0.3299 0.01624,0.6609 0.01534,0.9912 -0.0016,0.3589 2.89e-4,0.7176 0.0054,1.0764 0.0132,0.2137 -0.0083,0.4295 0.01268,0.6428 -0.501846,0.204 -0.97631,0.4653 -1.50554,0.6118 -0.07211,0.02 -0.0098,-0.1281 -0.01124,-0.192 -0.0022,-0.099 -3.8e-5,-0.1999 5.95e-4,-0.2998 0.0032,-0.509 0.0094,-1.0179 0.01356,-1.5268 0.0013,-0.2183 0.0029,-0.4365 0.0041,-0.6548 0.003,-0.5513 -0.0041,-0.8601 0.02979,-1.4131 0.0419,-0.6849 0.128991,-1.3686 0.198956,-2.0519 0.08944,-0.749 0.09353,-1.503 0.176272,-2.2524 0.02179,-0.1974 0.0903,-0.6723 0.120033,-0.8825 0.04894,-0.2773 0.06591,-0.5586 0.127261,-0.8345 0.0084,-0.038 0.055,-0.26 0.122833,-0.2951 0.497196,-0.2581 1.022559,-0.4752 1.533837,-0.7127 0.05308,0.038 0.113871,0.071 0.159227,0.1144 0.369551,0.3659 0.581505,1.169 0.703119,1.625 0.251749,1.0368 0.506377,2.073 0.749207,3.1112 0.160405,0.7514 0.35045,1.4979 0.516894,2.248 0.06981,0.2635 0.150749,0.5242 0.190501,0.7925 0.0054,0.051 0.01428,0.1477 0.02422,0.1974 0.0054,0.028 0.01112,0.054 0.0221,0.08 0.0023,0 0.0227,0 0.0166,0.015 -1.506786,0.6204 -1.691618,0.9759 -1.375495,0.4639 0.02085,-0.064 0.04601,-0.1251 0.06253,-0.1899 0.05199,-0.2023 0.08239,-0.4081 0.125154,-0.6119 0.07385,-0.352 0.148911,-0.7033 0.214486,-1.0565 0.08248,-0.467 0.09987,-0.9423 0.241157,-1.4005 0.289416,-0.5568 0.933399,-0.6147 1.67237,-0.9315 0.03871,-0.016 0.185679,0.039 0.211863,0.055 0.03894,0.027 0.06631,0.063 0.09945,0.095 0.221775,0.3219 0.333349,0.6904 0.436454,1.0499 0.113931,0.4023 0.255667,0.7984 0.383974,1.1976 0.01714,0.059 0.0624,0.2242 0.08758,0.2869 0.01516,0.038 0.04748,0.1296 0.0787,0.099 0.01732,-0.016 0.03633,-0.075 0.01286,-0.065 -0.466142,0.1958 -0.912596,0.4232 -1.368894,0.6348 0.23935,-0.2466 0.371896,-0.5601 0.525709,-0.8493 0.333358,-0.655 1.059587,-1.245 1.990265,-1.2459 0.381307,0.055 0.584555,0.3065 0.749691,0.5785 0.21489,0.4363 0.380869,0.8898 0.520992,1.3469 0.01921,0.059 0.03852,0.116 0.05763,0.1741 0.01446,0.044 0.02825,0.088 0.04292,0.1311 0.009,0.028 0.015,0.054 0.02799,0.08 0.0022,0 0.01088,-0.015 0.0059,-0.015 -1.499874,0.6289 -1.523227,1.0916 -1.46474,0.5497 0.01534,-0.3415 0.0097,-0.6831 0.0077,-1.0245 -0.0011,-0.075 -0.0069,-0.2601 0.0032,-0.3409 0.07393,-0.5875 1.108275,-0.704 1.60845,-0.8805 0.04889,-0.016 0.07952,0.059 0.119288,0.089 0.27172,0.2433 0.419967,0.5496 0.580559,0.8487 0.160906,0.2844 0.364658,0.5488 0.563239,0.8149 0.250679,0.355 0.542031,0.6867 0.78146,1.0473 0.205595,0.3159 0.393586,0.643 0.524581,0.9867 0.156265,0.6925 -0.513332,0.6501 -1.502575,1.0245 -0.05634,0.021 -0.115317,-0.1281 -0.165492,-0.2331 -0.210417,-0.6687 -0.240194,-1.3657 -0.295721,-2.0526 -0.02769,-0.6574 0.0065,-1.3147 0.02588,-1.9718 0.01172,-0.4962 0.0157,-0.9926 0.0097,-1.4889 -0.01076,-0.2845 -0.02415,-0.5667 0.04355,-0.8469 0.169204,-0.5776 0.137613,-0.372 1.5558,-0.7844 0.06707,-0.02 0.03483,0.116 0.04981,0.1748 0.203278,0.7939 -0.128564,-0.4403 0.137077,0.5364 0.200342,0.8488 0.31607,1.7109 0.448201,2.5688 0.116549,0.7314 0.304066,1.4526 0.451218,2.1798 0.06616,0.3946 0.108704,0.7906 0.188113,1.1836 0.06399,0.456 0.144163,0.9101 0.197211,1.3671 0.05676,0.5095 0.04639,1.0218 0.04686,1.5329 -0.0079,0.6502 -0.0059,1.3004 9e-4,1.9504 0.0075,0.3828 0.02037,0.7655 0.02216,1.1483 0.0066,0.9585 0.218504,0.4912 -1.505418,1.1953 -0.289542,-0.9244 -0.312434,-1.8921 -0.361263,-2.8421 -0.06356,-1.4601 -0.05981,-2.9216 -0.06565,-4.3825 -0.0019,-1.3655 0.0062,-2.7312 -0.02832,-4.0966 2e-6,-0.6314 -0.0054,-1.2632 0.06915,-1.8917 0.03415,-0.4 0.155746,-0.7886 0.236718,-1.1826 0.08504,-0.3369 0.14104,-0.6772 0.171043,-1.0204 0.01642,-0.2344 0.02062,-0.4695 0.02077,-0.7043 -0.009,-0.2893 0.01076,-0.5753 0.06493,-0.8611 0.07671,-0.3089 0.123887,-0.6207 0.146537,-0.9354 0.03657,-0.2796 0.08364,-0.5578 0.106096,-0.8388 0.07955,-0.6387 0.441309,-0.5197 1.541004,-0.962 0.09765,-0.039 0.237772,0.3428 0.254608,0.3875 0.121656,0.5305 0.107615,1.0778 0.106025,1.6162 -0.0047,0.6057 0.0125,1.2113 0.02258,1.817 -0.0083,0.4182 0.03346,0.8339 0.09997,1.2479 0.125833,0.5902 0.269019,1.1775 0.359632,1.7724 0.09422,0.5784 0.170508,1.1583 0.300506,1.7318 0.146787,0.5976 0.258521,1.2003 0.325798,1.8079 0.02207,0.4797 0.06823,0.9579 0.1074,1.4367 0.03111,0.3774 0.04618,0.7554 0.0525,1.1337 0.0039,0.279 0.0065,0.5578 0.0094,0.8367 0.0014,0.2302 0.0025,0.4603 -0.0029,0.6905 -0.02199,0.3382 -0.0017,0.6715 0.0689,1.0046 0.08071,0.3452 0.121675,0.6947 0.136006,1.0461 0.02276,0.3626 0.102664,0.7222 0.07199,1.0855 -0.155175,0.6039 -0.626362,0.5483 -1.589249,0.9119 -0.04701,0.018 -0.08098,-0.055 -0.109624,-0.092 -0.0997,-0.1251 -0.0981,-0.2334 -0.129562,-0.3834 -0.0057,-0.1109 -0.01866,-0.2222 -0.01696,-0.3334 0.0141,-0.9352 0.234654,-1.9089 0.367977,-2.8389 0.203997,-1.3403 0.385669,-2.6836 0.540046,-4.0288 0.0886,-1.1307 0.228807,-2.258 0.432523,-3.378 0.09461,-0.6055 0.315876,-1.1877 0.455116,-1.7854 0.111658,-0.4772 0.196987,-0.9591 0.267431,-1.4417 0.08109,-0.4819 0.153194,-0.9651 0.247919,-1.4452 0.08835,-0.3627 0.128706,-0.7302 0.154194,-1.099 0.01446,-0.3333 0.01338,-0.667 0.009,-1.0006 0.0199,-0.6142 0.03693,-0.3391 1.491087,-0.8496 0.05149,-0.018 0.03651,0.089 0.04731,0.1356 0.02465,0.1051 0.03791,0.3282 0.04557,0.4212 0.03165,0.7607 0.04474,1.5218 0.06133,2.2827 0.01052,0.6611 0.01112,1.3223 0.01552,1.9835 9.6e-4,0.5504 0.0033,1.1009 0.0065,1.6513 -0.0032,0.5517 -0.0062,1.1035 -0.003,1.6553 0.0104,0.4348 -0.0043,0.8704 0.02497,1.3046 0.02984,0.3562 0.106575,0.7071 0.151677,1.0619 0.02222,0.3483 0.06711,0.6921 0.168135,1.0303 0.105223,0.3042 0.177914,0.62 0.322827,0.913 0.3827,0.3824 0.1329,0.1074 -1.410694,0.626 -0.05817,0.02 0.07773,-0.084 0.10215,-0.1327 0.156675,-0.3122 0.186448,-0.6786 0.239911,-1.0095 0.07461,-0.8278 0.162512,-1.6547 0.415232,-2.459 0.149072,-0.4011 0.350293,-0.786 0.538533,-1.1747 0.319416,-0.5895 0.778452,-0.6162 1.703098,-0.9846 0.124921,-0.05 0.411509,0.2851 0.459911,0.341 0.295567,0.441 0.465166,0.9339 0.61932,1.421 0.138951,0.4738 0.253764,0.9519 0.375765,1.4289 0.08749,0.2941 0.110067,0.597 0.171614,0.8947 0.04414,0.1677 0.0641,0.3447 0.140254,0.5057 0.0141,0.03 0.02331,0.069 0.05718,0.083 0.01862,0.015 0.05427,-0.051 0.03552,-0.044 -0.464194,0.1908 -0.919215,0.3971 -1.378822,0.5956 0.248403,-0.4466 0.380553,-0.9338 0.55701,-1.4033 0.16858,-0.4484 0.385026,-0.8813 0.643502,-1.2974 0.419115,-0.6113 1.026576,-0.7292 1.884195,-1.0926 0.04901,-0.021 0.111192,-0.015 0.164492,0 0.0597,0.015 0.111646,0.044 0.167456,0.065 0.461654,0.3041 0.67909,0.776 0.882503,1.2235 0.120817,0.2634 0.230349,0.5304 0.325261,0.8013 0.05039,0.1431 0.06943,0.3166 0.183251,0.4357 0.0311,-0.533 0.03136,-0.015 -1.353703,0.5373 -0.05071,0.02 0.05899,-0.08 0.08476,-0.1221 0.10209,-0.1664 0.183615,-0.3428 0.266204,-0.5165 0.14038,-0.3166 0.312155,-0.6228 0.502203,-0.9201 0.392396,-0.5137 0.90185,-0.5788 1.691179,-0.9511 0.03441,-0.016 0.277068,-0.042 0.307653,-0.042 0.06271,9e-4 0.124244,0.015 0.186377,0.021 0.426852,0.077 0.675919,0.3874 0.920769,0.6655 0.08791,0.089 0.185502,0.1586 0.33106,0.1463 0.03835,0 0.145216,-0.04 0.111729,-0.025 -1.543161,0.7421 -1.702194,0.8554 -1.19377,0.5231 0.715227,-0.6727 0.558997,-0.5704 2.041584,-1.1497 0.04894,-0.02 0.103537,0.025 0.155301,0.038 0.363823,0.1356 0.559549,0.4106 0.730518,0.6988 0.0871,0.1097 0.09542,0.3165 0.247788,0.3895 0.106145,0.051 0.25521,-0.088 0.321576,-0.1311 -2.16135,1.0673 -1.380588,0.7946 -1.028262,0.366 0.113201,-0.1371 0.207963,-0.2868 0.313164,-0.4289 0.08816,-0.1028 0.179548,-0.2139 0.314017,-0.2782 0.951886,-0.4559 1.094841,-0.8095 1.857258,-0.7025 0.361585,0.1251 0.594717,0.4064 0.795169,0.6772 0.199055,0.2402 0.302145,0.5292 0.532108,0.7505 0.07337,0.035 0.09129,0.066 0.171989,0.023 0.03124,-0.016 0.11094,-0.081 0.07841,-0.066 -0.44128,0.1995 -0.866374,0.4239 -1.308497,0.6221 -0.04673,0.021 0.08098,-0.058 0.118834,-0.089 0.03919,-0.031 0.07471,-0.068 0.112052,-0.1005 0.516929,-0.4313 1.180199,-0.9691 1.930845,-0.9118 0.138112,0.015 0.188488,0.035 0.317018,0.074 0.182,0.055 0.356412,0.1251 0.534024,0.1891 0,0 -1.374008,0.7717 -1.374008,0.7717 l 0,0 c -0.17024,-0.065 -0.340813,-0.1282 -0.518578,-0.1779 -0.114014,-0.023 -0.159264,-0.039 -0.277733,-0.028 -0.04692,0 -0.177254,0.051 -0.137417,0.03 2.29045,-1.235 1.462233,-0.7998 1.039809,-0.484 -0.605786,0.5627 -0.0072,0.1693 -1.736578,0.9705 -0.130492,0.06 -0.278711,-0.044 -0.362761,-0.1097 -0.212817,-0.239 -0.341517,-0.5182 -0.531105,-0.7699 -0.177325,-0.2349 -0.378248,-0.5025 -0.723287,-0.5632 -0.0456,8e-4 -0.09165,0 -0.136809,0 -0.04512,0 -0.170793,0.05 -0.132098,0.03 0.423064,-0.2221 0.863042,-0.4207 1.289728,-0.6379 0.04009,-0.021 -0.0887,0.028 -0.128921,0.046 -0.09882,0.05 -0.148893,0.1074 -0.226279,0.1777 -0.116693,0.1401 -0.209306,0.2852 -0.312542,0.4317 -0.403009,0.5721 -0.849764,0.6551 -1.749472,1.0564 -0.05079,0.016 -0.09874,0.04 -0.152375,0.048 -0.34797,0.045 -0.450801,-0.2929 -0.557134,-0.4975 -0.141486,-0.2506 -0.318741,-0.5028 -0.658542,-0.5773 -0.614784,0.034 -0.106575,0.021 1.168735,-0.6384 0.04498,-0.023 -0.101504,0.029 -0.143806,0.055 -0.148483,0.094 -0.228048,0.2529 -0.357139,0.3616 -0.464027,0.4881 -0.171078,0.2089 -1.653118,0.8344 -0.0568,0.024 -0.236962,-0.036 -0.279245,-0.055 -0.124155,-0.059 -0.148429,-0.099 -0.238965,-0.1904 -0.220039,-0.2549 -0.438334,-0.5334 -0.844644,-0.5614 -0.153195,0 -0.176755,0 -0.320785,0.041 -0.04408,0.015 -0.167152,0.07 -0.127189,0.05 2.365969,-1.2154 1.464813,-0.8479 1.09103,-0.4886 -0.214164,0.2834 -0.379247,0.5958 -0.528339,0.9067 -0.253519,0.5502 -0.831412,2.0306 -1.903196,1.3781 -0.08761,-0.1567 -0.104553,-0.3208 -0.154247,-0.489 -0.08004,-0.271 -0.182469,-0.5369 -0.305996,-0.796 -0.194127,-0.4009 -0.39563,-0.8635 -0.857364,-1.0963 -0.04328,0 -0.08602,-0.02 -0.129831,-0.019 -0.04661,0 -0.175649,0.049 -0.136418,0.025 0.413287,-0.2243 0.842974,-0.4264 1.264957,-0.6387 0.0453,-0.023 -0.09397,0.042 -0.134918,0.069 -0.103454,0.07 -0.163672,0.1555 -0.240907,0.246 -0.277075,0.4084 -0.504892,0.8381 -0.682674,1.2845 -0.182458,0.4654 -0.329295,0.9388 -0.483939,1.4111 -0.502363,0.2572 -0.98534,0.5434 -1.507086,0.7713 -0.03813,0.016 -0.07366,-0.041 -0.09867,-0.069 -0.136453,-0.1607 -0.121102,-0.4458 -0.201175,-0.6277 -0.08077,-0.2972 -0.09538,-0.6004 -0.16012,-0.9003 -0.104398,-0.479 -0.208659,-0.9582 -0.346359,-1.4314 -0.155033,-0.4671 -0.313955,-0.9425 -0.615474,-1.3601 -0.07131,-0.069 -0.14095,-0.1637 -0.255927,-0.1922 -0.03493,-0.015 -0.139218,0.023 -0.108835,0 0.417913,-0.232 0.854933,-0.4387 1.282399,-0.6581 -0.03836,0.025 -0.08355,0.047 -0.115066,0.078 -0.03827,0.039 -0.06065,0.088 -0.09097,0.1311 -0.204675,0.3891 -0.396175,0.7836 -0.587887,1.1773 -0.3117,0.793 -0.428844,1.6181 -0.461705,2.4517 -0.03444,0.3396 -0.07646,0.6714 -0.144198,1.0071 -0.01196,0.059 0.02577,0.1462 -0.03465,0.1783 -1.495849,0.794 -1.296054,1.0886 -1.578563,0.5864 -0.11942,-0.3068 -0.203954,-0.6223 -0.314168,-0.9315 -0.116215,-0.3438 -0.149483,-0.6965 -0.17224,-1.0525 -0.04656,-0.3565 -0.13224,-0.7084 -0.157138,-1.0668 -0.03419,-0.4406 0.0065,-0.8827 -0.0019,-1.3239 0.0032,-0.551 1.23e-4,-1.1018 -0.0029,-1.6529 0.0033,-0.5526 0.0065,-1.1052 0.0084,-1.6577 0.0051,-0.6637 0.0077,-1.3277 0.0068,-1.9915 -8.31e-4,-0.7516 -5.69e-4,-1.5053 -0.09568,-2.2535 -0.01286,-0.077 -0.02301,-0.1528 -0.0385,-0.2286 -0.0104,-0.051 -0.02561,-0.1016 -0.03905,-0.1512 -0.0039,-0.015 -0.02777,-0.035 -0.01286,-0.044 2.271115,-1.1706 1.499928,-1.0863 1.390715,-0.541 -0.0043,0.3376 -0.0051,0.6749 -0.01976,1.0123 -0.01499,0.3754 -0.05217,0.7512 -0.152177,1.118 -0.108165,0.4776 -0.192539,0.9588 -0.259276,1.4417 -0.07043,0.4868 -0.154747,0.9726 -0.268728,1.4534 -0.143466,0.6088 -0.381079,1.1961 -0.515521,1.8068 -0.255695,1.1221 -0.423568,2.2567 -0.506095,3.3976 -0.146947,1.3471 -0.358346,2.6887 -0.54211,4.0325 -0.229311,1.7967 0.05677,-0.4294 -0.170954,1.2949 -0.06457,0.4889 -0.123227,0.9824 -0.0994,1.4753 0.005,0.1005 0.02526,0.2023 0.03789,0.3035 0.01939,0.065 0.03269,0.1296 0.05815,0.193 0.01214,0.03 0.02794,0.06 0.05359,0.083 0.01017,0.015 0.0564,0 0.04393,0 -0.446284,0.2364 -0.902045,0.4598 -1.353068,0.6896 0.02613,-0.016 0.05865,-0.029 0.07837,-0.05 0.0259,-0.029 0.03639,-0.066 0.0546,-0.099 0.0811,-0.3551 -0.01696,-0.7138 -0.0465,-1.0703 -0.01981,-0.3447 -0.04735,-0.69 -0.126493,-1.0295 -0.07111,-0.3386 -0.116012,-0.6745 -0.09722,-1.0194 -0.0054,-0.2294 -0.0039,-0.4591 -0.0018,-0.6885 0.0036,-0.2808 0.0072,-0.5614 0.0066,-0.8422 -0.0022,-0.3786 -0.005,-0.7573 -0.02889,-1.1356 -0.03247,-0.4795 -0.0857,-0.9577 -0.09949,-1.4379 -0.04563,-0.606 -0.12958,-1.2103 -0.295959,-1.8022 -0.150767,-0.5727 -0.222285,-1.1566 -0.31354,-1.738 -0.08338,-0.5938 -0.217879,-1.18 -0.366642,-1.7643 -0.08914,-0.4172 -0.159192,-0.8366 -0.123387,-1.2618 0.01286,-0.6105 0.03299,-1.2212 0.0166,-1.8318 -0.01767,-0.5177 -0.0104,-1.0438 -0.144734,-1.5519 -0.01302,-0.031 -0.05717,-0.1694 -0.105104,-0.2046 -0.0097,0 -0.04789,0.015 -0.03702,0.015 0.446108,-0.2358 0.89602,-0.4663 1.344031,-0.6994 -0.02259,0.021 -0.05455,0.036 -0.06779,0.061 -0.01892,0.036 -0.0166,0.08 -0.02497,0.1191 -0.02396,0.2817 -0.05902,0.5624 -0.114182,0.841 -0.02352,0.3188 -0.05409,0.6377 -0.141502,0.9493 -0.05808,0.2765 -0.07916,0.5536 -0.06151,0.8343 -0.0012,0.2396 9.9e-4,0.4793 -0.02461,0.7183 -0.03702,0.3478 -0.08989,0.6947 -0.177647,1.0361 -0.07703,0.3949 -0.212421,0.7804 -0.250872,1.1803 -0.0965,0.6383 -0.152747,1.2802 -0.182183,1.9233 -0.03666,1.3738 -0.03343,2.748 -0.03208,4.1221 0.0018,1.4554 0.0069,2.9117 0.0878,4.3659 0.06067,0.8003 0.09143,1.7501 0.407238,2.5137 0.02476,0.06 0.06218,0.116 0.09327,0.173 -0.473704,0.2397 -0.940305,0.4896 -1.421117,0.7188 -0.02044,0.015 0.02473,-0.035 0.02813,-0.054 0.0066,-0.038 8.07e-4,-0.076 0.0012,-0.1144 0.0016,-0.1326 0.0033,-0.2649 0.0044,-0.3974 0.0022,-0.3895 0.0157,-0.7788 0.02375,-1.1682 0.0079,-0.6498 0.01232,-1.2997 -6.03e-4,-1.9495 -0.0068,-0.5047 -0.01826,-1.0095 -0.06188,-1.5129 -0.04812,-0.4529 -0.125029,-0.9033 -0.200494,-1.3533 -0.08537,-0.3977 -0.138219,-0.7938 -0.16692,-1.1974 -0.109481,-0.738 -0.268564,-1.4697 -0.401518,-2.2049 -0.126635,-0.8483 -0.224793,-1.7057 -0.478193,-2.5351 -0.0621,-0.1701 -0.119675,-0.3414 -0.185718,-0.5105 -0.01392,-0.036 -0.08396,-0.084 -0.04706,-0.104 2.830737,-1.5788 1.566771,-0.9965 1.364963,-0.552 -0.08493,0.2726 -0.0883,0.5496 -0.08697,0.8306 -0.01112,0.5013 -0.01642,1.0025 -0.03622,1.5037 -0.02346,0.6581 -0.07123,1.3159 -0.06278,1.9746 0.04125,0.6625 0.07428,1.3459 0.3546,1.9727 0.01464,0.025 0.02252,0.055 0.04401,0.079 0.0065,0 0.02076,2e-4 0.03114,4e-4 -0.458034,0.2305 -0.916069,0.461 -1.374103,0.6915 -0.02252,0.015 0.05955,0 0.07584,-0.02 0.03869,-0.043 0.01588,-0.1571 0.01232,-0.1961 -0.107986,-0.3403 -0.280787,-0.6636 -0.47801,-0.9735 -0.237994,-0.3589 -0.541571,-0.6807 -0.795341,-1.0314 -0.206027,-0.27 -0.414704,-0.5399 -0.578559,-0.8304 -0.146484,-0.2756 -0.265156,-0.5751 -0.55008,-0.7739 -0.576707,-0.1682 -0.07168,0 1.281138,-0.7026 0.02744,-0.015 -0.06884,0 -0.09217,0.024 -0.07388,0.059 -0.07572,0.1788 -0.08016,0.251 -0.0037,0.061 -5.62e-4,0.1221 -8.42e-4,0.1839 0.0025,0.337 0.0033,0.6741 0.02868,1.0103 0.05187,0.5593 0.0402,0.1144 -1.473303,0.8014 -0.01464,0 -0.01112,-0.028 -0.01374,-0.04 -0.037,-0.1893 0.02686,0.038 -0.0356,-0.2178 -0.01482,-0.06 -0.03458,-0.1206 -0.05187,-0.1804 -0.113822,-0.451 -0.272208,-0.8948 -0.509658,-1.3115 -0.144502,-0.218 -0.323064,-0.4511 -0.65823,-0.4222 -0.556329,0.1882 -0.330049,0.1176 1.185192,-0.6182 0.03977,-0.02 -0.07146,0.05 -0.102616,0.077 -0.118822,0.1086 -0.191717,0.2442 -0.269081,0.3746 -0.158906,0.296 -0.321611,0.5905 -0.470492,0.8901 -0.52477,0.2586 -1.412535,1.0884 -1.667029,0.6224 -0.06633,-0.122 -0.07329,-0.2649 -0.113261,-0.3922 -0.110856,-0.4039 -0.25378,-0.8008 -0.373749,-1.2028 -0.09865,-0.3302 -0.196209,-0.6804 -0.425214,-0.965 -0.05864,-0.035 -0.06067,-0.05 -0.133508,-0.044 -0.02763,0 -0.10447,0.029 -0.08084,0.016 0.438104,-0.2275 0.886824,-0.4401 1.327464,-0.6641 0.03648,-0.018 -0.08193,0.024 -0.114648,0.049 -0.03932,0.028 -0.06426,0.068 -0.09638,0.1005 -0.187163,0.4528 -0.215077,0.9365 -0.307783,1.407 -0.06765,0.3518 -0.150374,0.702 -0.212879,1.0546 -0.09081,0.5121 -0.01732,0.1431 -0.07639,0.6007 -0.0086,0.066 -0.02277,0.1311 -0.03416,0.1967 -0.01052,0.046 0.01624,0.1144 -0.03142,0.1401 -1.124997,0.5966 -1.443661,1.1634 -1.580832,0.5469 -0.02919,-0.1311 -0.02117,-0.079 -0.02955,-0.2019 -0.02773,-0.2713 -0.09274,-0.5373 -0.144716,-0.8057 -0.106384,-0.7659 -0.257772,-1.5272 -0.415887,-2.2866 -0.245864,-1.0334 -0.495992,-2.0659 -0.7781,-3.093 -0.114851,-0.3901 -0.233714,-0.7603 -0.446192,-1.1222 -0.06482,-0.1097 -0.167456,-0.2814 -0.292348,-0.3659 -0.0257,-0.019 -0.06327,-0.015 -0.0949,-0.024 0.433121,-0.2248 0.862975,-0.4542 1.299365,-0.6745 0.04278,-0.021 -0.09055,0.042 -0.117602,0.079 -0.03807,0.05 -0.0513,0.1097 -0.07027,0.1674 -0.09281,0.2789 -0.118857,0.5704 -0.189882,0.8532 -0.06805,0.3586 -0.102867,0.5192 -0.153802,0.889 -0.104039,0.7556 -0.118427,1.5177 -0.224185,2.2732 -0.07721,0.6826 -0.175523,1.3666 -0.218275,2.0515 -0.03406,0.5455 -0.02276,0.8571 -0.0125,1.4008 0.0041,0.2153 0.0098,0.4306 0.01482,0.6459 0.01714,0.4943 0.02973,0.9889 0.0778,1.482 0.0091,0.092 0.02076,0.1849 0.03429,0.2771 0.0068,0.047 0.07245,0.112 0.02668,0.1387 -0.463121,0.2655 -0.978872,0.4588 -1.46831,0.6882 0.01088,-0.015 0.0291,-0.016 0.0324,-0.03 0.0084,-0.035 5.19e-4,-0.069 8.51e-4,-0.1039 0.0016,-0.1637 0.0043,-0.3273 0.0072,-0.4907 0.0061,-0.3606 0.0094,-0.7212 0.0077,-1.0817 -0.0022,-0.3237 -0.0055,-0.6476 -0.02995,-0.9706 -0.02628,-0.2665 -0.08117,-0.5292 -0.158906,-0.7884 -0.06882,-0.3416 -0.182596,-0.6767 -0.210816,-1.0233 -0.07192,-0.462 -0.188458,-0.9178 -0.270405,-1.3787 -0.111479,-0.5807 -0.291862,-1.1477 -0.425059,-1.7248 -0.147572,-0.465 -0.319713,-0.9309 -0.60058,-1.352 -0.162244,-0.2255 -0.342369,-0.5699 -0.716088,-0.5113 0.433518,-0.2187 0.866769,-0.4376 1.300552,-0.6557 0.03676,-0.018 -0.07714,0.033 -0.109469,0.055 -0.159209,0.1161 -0.238576,0.2993 -0.321718,0.4562 -0.09843,0.262 -0.178516,0.5284 -0.242127,0.7979 -0.08258,0.5516 -0.0614,1.109 -0.0862,1.6638 -0.02266,1.1108 -0.01356,2.2218 -0.02031,3.3328 -0.0019,1.3219 -0.0057,2.6443 0.04435,3.966 0.05185,1.0589 0.07691,2.1659 0.362073,3.2028 0.02453,0.089 0.06156,0.1757 0.09233,0.2635 -1.546329,0.7943 -1.517393,1.1681 -1.383595,0.3161 0.04673,-0.2485 0.08121,-0.4946 0.06254,-0.7472 -0.0023,-0.2861 -0.0014,-0.5723 0.0041,-0.8586 0.0029,-0.3825 0.01232,-0.7648 0.0086,-1.1475 -0.005,-0.4517 -0.01809,-0.9041 -0.08208,-1.353 -0.08415,-0.5385 -0.230004,-1.0683 -0.289915,-1.6095 -0.02102,-0.168 -0.05818,-0.4373 -0.06478,-0.6053 -0.01827,-0.4659 0.02751,-0.9337 0.01356,-1.3997 0.0086,-0.8676 6.29e-4,-1.735 0.0125,-2.6026 0.01196,-1.1029 0.01904,-2.206 0.02128,-3.3091 7.5e-4,-1.1464 -0.0059,-2.2929 -0.03666,-3.4389 -0.01749,-0.6428 -0.02508,-1.2899 -0.138506,-1.9269 -0.155514,-0.5626 -0.06409,-0.088 1.468479,-0.7695 0.01005,0 -0.02284,0.015 -0.02696,0.018 -0.04703,0.1028 -0.02661,0.2234 -0.07757,0.3254 -0.09562,0.2885 -0.208722,0.574 -0.350649,0.8487 -0.132864,0.271 -0.271718,0.5395 -0.397016,0.8131 -0.158425,0.3058 -0.302526,0.6159 -0.457528,0.9227 -0.146608,0.2976 -0.23311,0.6086 -0.271343,0.9295 -0.0355,0.3105 -0.0091,0.6235 -0.02454,0.9351 -0.0069,0.4578 -0.0084,0.9156 -0.0072,1.3735 2.95e-4,0.488 -0.003,0.9761 0.0029,1.4641 4.5e-4,0.417 0.0047,0.8341 0.0065,1.2511 0.0041,0.3431 0.0047,0.6866 -0.0017,1.0298 -0.0091,0.5335 -0.02607,1.0669 -0.02237,1.6007 0.0068,0.6244 0.0048,1.2486 0.0048,1.873 -0.0019,0.6362 -0.0014,1.2724 -0.0048,1.9086 -0.0022,0.7639 -0.01286,1.5276 -0.02171,2.2914 -0.0065,0.9759 -0.0059,1.952 0.0047,2.9278 0.0066,0.7524 0.01845,1.505 0.02459,2.2574 0.01302,0.6047 0.02995,1.2096 0.07969,1.8133 0.03856,0.4882 0.05023,0.9762 0.06566,1.4655 0.01356,0.1804 0.02381,0.3613 0.06113,0.5395 0.0068,0.031 0.0593,0.08 0.02599,0.096 -0.476316,0.2475 -1.000049,0.4245 -1.484033,0.6613 -0.02087,0.015 0.03886,0.024 0.05828,0.036 0.117482,-0.2004 -0.113141,-0.7401 -0.166206,-0.9623 -0.09027,-0.2852 -0.184844,-0.5688 -0.267581,-0.8556 -0.09668,-0.3189 -0.119265,-0.6477 -0.182375,-0.972 -0.04517,-0.4474 -0.124673,-0.8914 -0.16178,-1.3392 -0.02943,-0.4026 -0.02236,-0.806 -0.02809,-1.2094 -0.0013,-0.326 0.0025,-0.6523 0.0026,-0.9785 0.0011,-0.4283 0.0094,-0.8565 0.02674,-1.2848 0.03534,-1.0128 0.04967,-2.0265 0.03243,-3.0397 -0.01286,-0.847 -0.03948,-1.6939 -0.03723,-2.5411 0.0022,-0.6336 0.0023,-1.2672 0.02588,-1.9006 0.02857,-0.4801 0.08128,-0.957 0.18332,-1.4304 0.08313,-0.4562 0.188251,-0.909 0.23626,-1.3694 0.08803,-0.4045 0.15821,-0.8112 0.193604,-1.2217 0.06127,-0.4821 0.0894,-0.9657 0.125833,-1.4499 0.03236,-0.5165 0.01374,-1.0343 0.01148,-1.5512 -0.01184,-0.6072 -0.04612,-1.214 -0.117099,-1.8183 -0.101863,-0.9353 -0.18109,-1.87 -0.172739,-2.8102 0.008,-1.0945 0.0069,-2.1891 -0.01588,-3.2834 -0.0073,-0.2312 -0.01516,-0.5393 -0.03001,-0.7758 -0.005,-0.078 -0.09319,-0.1867 -0.02026,-0.2361 0.451129,-0.3045 0.987345,-0.5065 1.48551,-0.7534 0.0093,0 -0.0094,0.016 -0.01428,0.024 -0.0039,0.039 -0.0079,0.08 -0.0116,0.119 -0.0057,0.4187 -0.0048,0.8375 -0.02718,1.2558 -0.03381,0.4243 -0.08584,0.8481 -0.217486,1.2598 -0.101946,0.4169 -0.248956,0.8262 -0.291115,1.2528 -0.03789,0.4189 -0.03851,0.8374 -0.03015,1.2576 8.48e-4,0.3924 -0.0017,0.7848 -0.0048,1.1772 -0.0041,0.4678 -0.0036,0.9356 8e-6,1.4034 0.0013,0.4072 0.0079,0.8142 0.0037,1.2215 -0.0018,0.4621 -0.0055,0.9244 -0.01124,1.3864 -0.0062,0.5839 -0.0026,1.1686 -0.0431,1.7516 -0.04955,0.5359 -0.144878,1.0643 -0.285509,1.5888 -0.147019,0.5219 -0.293163,1.0448 -0.407529,1.5727 -0.09904,0.6275 -0.154159,1.2593 -0.264615,1.8854 -0.148321,0.8541 -0.275236,1.7104 -0.398051,2.5672 -0.162332,0.9618 -0.299997,1.9257 -0.459032,2.8878 -0.121905,0.7061 -0.274524,1.416 -0.260113,2.1319 0.015,0.186 0.01911,0.2924 0.05005,0.4733 0.0091,0.053 0.02034,0.1074 0.03519,0.1593 0.009,0.031 0.0204,0.063 0.03589,0.093 0.0039,0 0.02954,0.015 0.0212,0.016 -0.463395,0.2349 -0.936277,0.4563 -1.404418,0.6843 0.02317,0 0.05169,0 0.06952,-0.02 0.13299,-0.1051 0.0398,-0.4599 0.07196,-0.5989 0.01076,-0.4628 0.0166,-0.9257 0.0086,-1.3887 -0.0036,-0.428 -0.0057,-0.8562 -0.0054,-1.2844 -0.0016,-0.397 7.72e-4,-0.794 -0.0014,-1.191 -4.88e-4,-0.4292 0.0077,-0.8583 0.01518,-1.2874 0.0051,-0.5742 0.0014,-1.1486 -0.0097,-1.7229 -0.0083,-0.3503 -0.01374,-0.7007 -0.0125,-1.0512 -0.0016,-0.2734 -0.0029,-0.5468 -0.003,-0.8201 0.0037,-0.3058 0.0072,-0.6118 0.01428,-0.9178 0.0041,-0.4509 -4e-5,-0.9023 -0.03459,-1.3525 -0.03381,-0.3902 -0.09653,-0.7782 -0.120942,-1.1688 -0.0327,-0.4593 -0.08555,-0.9181 -0.06669,-1.3786 0.005,-0.5289 0.0079,-1.0578 0.0141,-1.5866 0.0023,-0.6231 0.0073,-1.2466 -0.02665,-1.8691 -0.03782,-0.5029 -0.08283,-1.0129 -0.310698,-1.4849 -0.07069,-0.1447 -0.09697,-0.222 -0.20356,-0.3488 -0.03596,-0.042 -0.07703,-0.083 -0.123139,-0.1176 -0.02962,-0.023 -0.134452,-0.035 -0.101695,-0.053 1.006003,-0.5919 1.870935,-0.8259 1.261776,-0.6569 -0.02113,0.024 -0.05051,0.044 -0.0634,0.07 -0.07815,0.166 -0.0166,0.5055 -0.07493,0.6875 -0.05107,0.3866 -0.07914,0.7726 -0.0754,1.162 -0.01768,0.7128 -0.01768,1.4259 -0.04996,2.1383 -0.04182,1.0233 -0.11509,2.0454 -0.129243,3.0693 -0.04321,1.2206 -0.106909,2.4414 -0.271019,3.6555 -0.04148,0.3432 -0.121585,0.9719 -0.14602,1.3141 -0.06336,0.8877 -0.01338,1.7782 -0.0061,2.6666 0.01374,0.2853 0.02499,0.6082 0.05256,0.8974 0.0061,0.065 0.0886,0.1545 0.02618,0.1914 -0.464301,0.2729 -0.987195,0.4682 -1.497928,0.6737 -0.0717,0.029 0.130242,-0.3112 -0.01286,-0.2008 -0.04164,-0.3363 -0.124369,-0.6657 -0.190553,-0.9988 -0.09045,-0.4475 -0.176701,-0.8959 -0.240037,-1.3467 -0.05369,-0.3685 -0.105498,-0.7393 -0.101576,-1.1109 -6.8e-5,-0.2918 0.01053,-0.5836 0.0037,-0.8753 4.5e-4,-0.2952 -0.005,-0.5907 -0.02497,-0.8855 -0.03687,-0.4359 -0.108501,-0.868 -0.209249,-1.2968 -0.07182,-0.4629 -0.13913,-0.9263 -0.21791,-1.3886 -0.08972,-0.5815 -0.164618,-1.1641 -0.229729,-1.7482 -0.03505,-0.2265 -0.05506,-0.4586 -0.11393,-0.6822 -0.01148,-0.044 -0.02693,-0.086 -0.043,-0.1281 -0.0032,-0.015 -0.02388,-0.02 -0.01482,-0.024 0.469134,-0.2395 0.94907,-0.4636 1.423606,-0.6955 -0.01874,0.015 -0.04575,0.023 -0.05622,0.04 -0.05241,0.095 -0.05606,0.2047 -0.08416,0.307 -0.06296,0.2294 -0.13738,0.4562 -0.201122,0.6853 -0.124565,0.489 -0.235656,0.9784 -0.307319,1.4752 -0.06988,0.2463 -0.142324,0.494 -0.162064,0.7475 -0.02414,0.2077 -0.07066,0.412 -0.140166,0.6126 -0.05329,0.3077 -0.129063,0.6125 -0.152051,0.9236 -0.05862,0.3372 -0.113273,0.6858 -0.279254,0.9991 -0.339973,0.5513 -0.08584,0.1918 -1.592494,0.8686 -0.06921,0.031 -0.204578,-0.029 -0.253196,-0.059 -0.09066,-0.058 -0.158192,-0.1462 -0.22381,-0.221 -0.160619,-0.2571 -0.301384,-0.5274 -0.5207,-0.7542 -0.02653,-0.019 -0.04752,-0.045 -0.07954,-0.056 -0.01017,0 -0.01768,0.031 -0.0084,0.028 0.466167,-0.2371 0.924419,-0.4848 1.38663,-0.7272 -0.01017,0.015 -0.02588,0.016 -0.03045,0.029 -0.02136,0.058 0.0039,0.1236 -0.01837,0.1807 -0.03496,0.2386 -0.106826,0.4675 -0.277929,0.6649 -0.485353,0.5368 -0.488327,0.3934 -1.711828,0.9618 -0.130599,0.06 -0.29101,-0.023 -0.38807,-0.085 -0.228105,-0.2293 -0.313767,-0.5264 -0.46124,-0.7946 -0.118762,-0.2088 -0.286273,-0.558 -0.552503,-0.6632 -0.03582,-0.015 -0.07719,-0.015 -0.115784,-0.021 -0.614661,0.074 -0.112005,0.028 1.164057,-0.6296 0.04502,-0.022 -0.0999,0.031 -0.142664,0.058 -0.166206,0.1005 -0.266376,0.2698 -0.380437,0.4072 -0.2066,0.2861 -0.432879,0.5673 -0.57825,0.8807 -1.521248,0.6855 -1.535295,1.1061 -1.706767,0.165 -0.07733,-0.3615 -0.129902,-0.7273 -0.25104,-1.0808 -0.056,-0.16 -0.103251,-0.3517 -0.257573,-0.4704 -0.08841,-0.068 -0.1016,-0.05 -0.197885,-0.034 0.431789,-0.2221 0.863575,-0.4442 1.295362,-0.6665 -0.261753,0.2392 -0.385653,0.5555 -0.562361,0.8404 -0.207725,0.4172 -0.357455,0.8564 -0.475751,1.2972 -0.09119,0.4109 -0.149375,0.8244 -0.169132,1.2422 -0.486677,0.2654 -0.954682,0.5569 -1.460027,0.796 -0.05144,0.024 -0.147232,-0.1574 -0.148089,-0.1592 -0.110163,-0.2186 -0.174613,-0.4525 -0.255842,-0.679 -0.2652898,-0.7735 -0.4532044,-1.5653 -0.7666852,-2.3267 -0.1275455,-0.3077 -0.1189296,-0.306 -0.2606728,-0.5833 -0.03051,-0.06 -0.061295,-0.1191 -0.096361,-0.1773 -0.017497,-0.029 -0.092845,-0.065 -0.060972,-0.083 0.4483745,-0.2525 0.9456628,-0.4375 1.4055,-0.6749 0.02484,-0.015 -0.05807,0 -0.08708,0 -0.178735,0.2133 -0.156264,0.5793 -0.2807685,0.8252 -0.1111318,0.3406 -0.2232514,0.6816 -0.37332,1.0118 -0.1554074,0.3158 -0.2664602,0.6406 -0.36684,0.9709 -0.056104,0.1121 -0.1323654,0.2248 -0.1689915,0.3427 -0.00897,0.029 0.015177,0.075 -0.016062,0.089 -1.5837806,0.7 -1.6477412,1.0788 -1.5478338,0.5732 0.00694,-0.1911 -0.00443,-0.383 -0.036406,-0.5723 -0.05681,-0.2701 -0.1610298,-0.5278 -0.2546678,-0.7899 -0.1068022,-0.2886 -0.1527475,-0.5895 -0.2621259,-0.8779 -0.1433064,-0.4462 -0.2303724,-0.904 -0.395282,-1.3456 -0.1422886,-0.3777 -0.3262205,-0.8268 -0.7250821,-1.0639 -0.6096196,0 -0.1497133,0.016 1.2094895,-0.6785 0.030414,-0.015 -0.067825,0.029 -0.084928,0.054 -0.072071,0.112 -0.011242,0.2689 -0.06102,0.3851 -0.045651,0.2608 -0.1244049,0.5162 -0.1922967,0.7732 -0.065564,0.2087 -0.1052475,0.4235 -0.1290812,0.6382 -0.045065,0.2709 -0.109876,0.5389 -0.1525168,0.81 -0.090872,0.3834 -0.2416768,0.7544 -0.3476766,1.135 -0.1175901,0.4599 -0.1977958,0.9261 -0.3385763,1.3817 -0.1168725,0.4297 -0.1434678,0.8707 -0.2478853,1.3027 -0.093598,0.6193 -0.1789039,1.2396 -0.3071707,1.8547 -0.060398,0.3347 -0.1209066,0.645 -0.162654,0.9824 -0.081638,0.66 -0.094244,1.3253 -0.1881657,1.9845 -0.038475,0.3859 -0.047625,0.3577 -0.041656,0.7234 0.00144,0.084 0.00682,0.1689 0.012319,0.2533 0.00359,0.055 0.068578,0.1341 0.014998,0.1657 -0.4663205,0.2791 -0.9860528,0.4891 -1.4897779,0.7176 -0.013921,0 -0.00371,-0.028 -0.0055,-0.039 -0.023417,-0.2615 -0.078601,-0.5193 -0.125315,-0.7783 -0.038535,-0.346 -0.097043,-0.6898 -0.1407003,-1.0352 -0.070336,-0.384 -0.1774688,-0.7651 -0.1691506,-1.1563 -0.029481,-0.4712 -0.082691,-0.941 -0.181156,-1.406 -0.065505,-0.47 -0.1024848,-0.9426 -0.1910361,-1.4103 -0.094173,-0.5004 -0.1981404,-1.0012 -0.2482094,-1.5062 -0.042566,-0.4037 -0.043331,-0.807 -0.032603,-1.2124 -0.00323,-0.4217 -0.00191,-0.8438 -0.027305,-1.2652 -0.028931,-0.3678 -0.07634,-0.7338 -0.1526937,-1.097 -0.043785,-0.3959 -0.066306,-0.7895 -0.034504,-1.1871 0.01678,-0.7711 0.03118,-1.542 0.029984,-2.3132 3.588e-4,-1.1112 -0.012498,-2.223 -0.099865,-3.3323 -0.088157,-0.8766 -0.2103047,-1.7504 -0.403148,-2.6153 -0.014101,-0.058 -0.025666,-0.116 -0.042446,-0.1727 -0.010405,-0.035 -0.075144,-0.084 -0.038786,-0.1039 0.4758286,-0.2514 1.0015289,-0.4287 1.4896128,-0.6626 0.017318,-0.015 -0.036837,-0.04 -0.049706,-0.028 -0.057455,0.058 0.05608,0.1757 -0.019064,0.2232 -0.046979,0.5478 -0.1362022,1.0921 -0.2217529,1.6363 -0.1482326,0.9057 -0.3120324,1.8106 -0.3622103,2.7251 -0.07701,0.7013 -0.2357077,1.39 -0.3544747,2.0865 -0.065373,0.4555 -0.139344,0.9101 -0.2020607,1.3656 -0.061163,0.3708 -0.092116,0.7485 -0.097521,1.1225 0.00753,0.4982 0.021887,0.9965 0.061522,1.4939 0.036681,0.5122 0.040879,1.0241 0.049371,1.5371 0.00801,0.1492 0.00909,0.218 0.025331,0.3604 0.00371,0.034 0.047792,0.082 0.014818,0.099 -1.93017034,1.0647 -1.55126871,1.1062 -1.40957572,0.526 -0.0402452,-0.3985 -0.10932581,-0.7935 -0.18653798,-1.1881 -0.0548124,-0.2322 -0.10871584,-0.4688 -0.22839776,-0.6847 0,0 1.47229366,-0.6723 1.47229366,-0.6723 z"
       inkscape:connector-curvature="0" />
    <text
       xml:space="preserve"
       style="font-size:32px;font-style:normal;font-variant:normal;font-weight:normal;font-stretch:normal;line-height:125%;letter-spacing:0px;word-spacing:0px;fill:#000000;fill-opacity:1;stroke:none;font-family:CupolaUnicode;-inkscape-font-specification:CupolaUnicode"
       x="1.0101525"
       y="32.252537"
       id="text3931"
       sodipodi:linespacing="125%"
       transform="translate(0,1020.3622)"><tspan
         sodipodi:role="line"
         id="tspan3933"
         x="1.0101525"
         y="32.252537" /></text>
    <g
       id="g4516"
       style="stroke:none;fill-opacity:1;fill:url(#linearGradient4527)">
      <path
         transform="translate(0,1020.3622)"
         inkscape:connector-curvature="0"
         d="m 10.596181,12.703896 c 0.325953,0.05859 0.542017,0.335214 0.744096,0.573475 0.410957,0.596331 0.562244,1.298523 0.684239,1.99941 0.158193,1.044682 0.176256,2.103678 0.194859,3.158109 0.0036,0.584172 0.02856,1.168752 0.02185,1.752906 -0.003,0.258974 -0.01865,0.517674 -0.02345,0.776622 -0.01394,0.542489 -0.09419,1.081348 -0.248748,1.601934 -0.05721,0.192688 -0.251159,0.737481 -0.31616,0.922624 -0.306798,0.772015 -0.573707,1.567434 -0.960894,2.305063 -0.06263,0.119314 -0.135858,0.232754 -0.203787,0.349131 -0.192276,0.277037 -0.388633,0.586186 -0.6902423,0.759372 -1.242973,0.713721 -0.79675,0.601411 -1.4218197,0.735472 C 8.0029762,27.65482 7.6386491,27.547637 7.2901084,27.42526 6.8565453,27.261569 6.4561587,27.024219 6.0684867,26.773091 5.6179734,26.494345 5.2215959,26.153245 4.8728843,25.756378 4.5762889,25.426313 4.4295162,25.072366 4.3389697,24.64445 4.2383167,24.097101 4.1728301,23.544536 4.1004939,22.993016 c -0.057911,-0.474031 -0.097029,-0.950334 -0.1122775,-1.42764 -0.014658,-0.360134 -0.020989,-0.719265 0.024481,-1.077187 0.067558,-0.424857 0.2540187,-0.814917 0.4551105,-1.190751 0.1620339,-0.327521 0.3666891,-0.626056 0.6022765,-0.9041 0.2555083,-0.283414 0.5183169,-0.560703 0.8084608,-0.808889 0.3330054,-0.251717 0.6909854,-0.470148 1.0470459,-0.687669 0.072347,-0.04274 0.1441785,-0.08637 0.2170408,-0.12823 0.43631,-0.250655 0.8706202,-0.504888 1.3104572,-0.749302 0.2789721,-0.155023 0.5900996,-0.257757 0.8892549,-0.365296 0.3761716,-0.153314 0.7695966,-0.244797 1.1609226,-0.346838 0.262591,-0.07839 0.53382,-0.103498 0.806235,-0.113128 0.341658,-0.03849 0.604743,0.04761 0.911651,0.187393 0.541615,0.256749 1.027989,0.6147 1.514419,0.961282 0.78862,0.561897 1.495984,1.224286 2.211882,1.873255 0.421349,0.378622 0.831801,0.781436 1.150663,1.253095 0.192065,0.2841 0.234389,0.397892 0.385624,0.706432 0.392567,0.804269 0.651323,1.661099 0.893471,2.519665 0.214956,0.806206 0.302904,1.638259 0.371336,2.467585 0.03648,0.431885 -0.02036,0.853386 -0.194803,1.249243 -0.141778,0.304724 -0.427533,0.477403 -0.686475,0.67131 -0.584839,0.47039 -1.219555,0.893498 -1.914822,1.183715 -0.25628,0.08045 -0.526696,0.09418 -0.793368,0.102355 -0.134483,0.0028 -0.269,0.0019 -0.403498,0.0012 0,0 1.061368,-0.770158 1.061368,-0.770158 l 0,0 c 0.131788,8.82e-4 0.263617,0.002 0.395367,-0.0023 0.25719,-0.01136 0.517819,-0.03173 0.756068,-0.138193 0.431484,-0.217121 0.383573,-0.196227 -0.849434,0.506256 -0.04618,0.02631 0.088,-0.05963 0.132063,-0.08936 0.156672,-0.105701 0.131931,-0.0842 0.2834,-0.204208 0.04635,-0.03672 0.09156,-0.07487 0.137342,-0.112302 0.244511,-0.192705 0.539833,-0.3431 0.705529,-0.614498 0.201414,-0.375742 0.284345,-0.785492 0.267904,-1.212467 -0.03219,-0.828887 -0.105074,-1.659043 -0.325206,-2.462211 -0.242053,-0.850158 -0.49165,-1.70268 -0.896541,-2.492655 -0.0589,-0.118447 -0.112648,-0.239595 -0.176688,-0.355342 -0.334286,-0.604193 -0.809911,-1.112228 -1.311489,-1.580225 -0.712918,-0.649069 -1.423656,-1.30682 -2.22832,-1.84311 -0.500503,-0.326549 -0.996594,-0.672129 -1.547906,-0.908526 -0.294097,-0.10899 -0.581359,-0.166789 -0.896382,-0.128172 -0.2649757,0.01876 -0.5271206,0.05601 -0.7837199,0.127105 -0.3877035,0.09167 -0.7685475,0.203268 -1.140369,0.347843 -0.217237,0.07954 -0.431122,0.161141 -0.640327,0.260478 -0.076381,0.03627 -0.2992707,0.157006 -0.227251,0.112704 0.2100766,-0.129225 1.3140419,-0.766877 0.6397722,-0.371716 -0.3546195,0.20931 -0.7002485,0.435518 -1.0417745,0.665298 -0.2969553,0.23508 -0.5578901,0.508468 -0.8134173,0.787475 -0.2406018,0.272101 -0.459887,0.560117 -0.6258559,0.885053 -0.2035427,0.358978 -0.3866509,0.735875 -0.4657177,1.143936 -0.052198,0.351678 -0.038821,0.70524 -0.036815,1.059999 0.00999,0.477108 0.0237,0.954658 0.082731,1.4288 0.066547,0.546467 0.1373569,1.09288 0.253538,1.631436 0.083894,0.392092 0.2275285,0.75368 0.4963842,1.058983 0.3380249,0.390775 0.722945,0.726247 1.1697451,0.989957 0.3872189,0.241425 0.7891831,0.463971 1.2209779,0.615896 0.3371833,0.10904 0.693753,0.210026 1.0500561,0.145636 0.5005474,-0.162978 0.1785107,-0.07028 -0.7973327,0.515894 -0.056325,0.03383 0.116538,-0.06136 0.1707403,-0.0985 0.2436367,-0.166939 0.4282224,-0.395811 0.5996103,-0.633185 0.07303,-0.114625 0.1519387,-0.22571 0.2190894,-0.343875 0.4120302,-0.72505 0.6781292,-1.524141 0.9799322,-2.29764 0.275647,-0.803014 0.550544,-1.616433 0.552763,-2.476141 0.0023,-0.129038 0.0046,-0.258076 0.0069,-0.387113 0.0067,-0.128882 0.01771,-0.257613 0.02018,-0.386646 0.0025,-0.131667 -0.0071,-0.263359 -0.0052,-0.395036 0.0064,-0.458873 0.04122,-0.917908 0.02136,-1.37726 -0.01567,-1.045904 -0.03309,-2.096516 -0.202848,-3.131238 -0.135083,-0.670594 -0.302071,-1.345575 -0.716248,-1.905448 -0.204742,-0.227087 -0.4162606,-0.451652 -0.7388777,-0.475443 0,0 1.0855607,-0.756425 1.0855607,-0.756425 z"
         id="path4453"
         style="fill:url(#linearGradient4527);fill-opacity:1;stroke:none" />
      <path
         transform="translate(0,1020.3622)"
         inkscape:connector-curvature="0"
         d="M 8.6253041,5.0565609 C 8.5738382,5.3511815 8.5075041,5.644962 8.4385255,5.9364474 8.3326406,6.3669764 8.2109515,6.7929747 8.1131556,7.2257352 8.0274892,7.6356235 7.9579436,8.0473109 7.9215958,8.4645161 7.9046912,8.8842663 7.837294,9.2995798 7.7650319,9.7127362 7.6847093,10.106706 7.6629455,10.508133 7.6250457,10.90732 7.5959667,11.318947 7.510922,11.722936 7.4421812,12.1289 c -0.072083,0.469951 -0.081666,0.946077 -0.093017,1.420445 -0.00391,0.529805 -0.042565,1.058651 -0.064474,1.587948 -0.032566,0.499508 0.052995,0.996757 0.2121799,1.46885 0.1332745,0.384264 0.2988167,0.755815 0.4173908,1.145111 0.1374403,0.426821 0.2436095,0.861291 0.3437754,1.297954 0.063954,0.338637 0.1514097,0.669781 0.2957203,0.982896 0.1384857,0.293934 0.272693,0.587828 0.4324401,0.870974 0.1338851,0.296328 0.2643332,0.591861 0.4395297,0.866521 0.1621351,0.282043 0.3750839,0.52125 0.6077646,0.745643 0.208598,0.203811 0.430022,0.393121 0.650854,0.583338 0.0397,0.03012 0.0794,0.06024 0.119105,0.09036 0,0 -1.0952021,0.689625 -1.0952021,0.689625 l 0,0 C 9.6683004,23.846409 9.628353,23.81425 9.5884056,23.782091 9.3634474,23.591694 9.1353648,23.405345 8.9305278,23.192589 8.6950298,22.957637 8.4815204,22.707159 8.3128873,22.418566 8.1366804,22.141468 7.9949713,21.849119 7.8665186,21.547019 7.7092598,21.259132 7.5718104,20.963619 7.4250663,20.670291 7.274662,20.346954 7.2018872,20.001277 7.1383885,19.651395 7.0418122,19.217227 6.9336931,18.787979 6.790915,18.366177 6.6721162,17.977356 6.5100094,17.604493 6.3855201,17.21756 6.2297829,16.73075 6.1248746,16.220403 6.1550539,15.706806 c 0.023333,-0.52925 0.070412,-1.057648 0.07172,-1.587625 0.00241,-0.476428 0.00492,-0.9545 0.06652,-1.427749 0.061558,-0.405256 0.1617761,-0.804853 0.1891205,-1.215062 0.035816,-0.402042 0.051231,-0.806655 0.1339129,-1.203267 C 6.688539,9.8633129 6.7671758,9.4517709 6.7788646,9.0348967 6.8123036,8.6113422 6.8769268,8.1942323 6.9655464,7.7786926 7.0631166,7.3471035 7.1809573,6.9212025 7.2850821,6.4916209 7.3470573,6.2149738 7.3922366,5.9353077 7.4461245,5.6573829 c 0,0 1.1791796,-0.600822 1.1791796,-0.600822 z"
         id="path4457"
         style="fill:url(#linearGradient4527);fill-opacity:1;stroke:none" />
      <path
         transform="translate(0,1020.3622)"
         inkscape:connector-curvature="0"
         d="m 4.2650754,8.8637583 c 0.3639577,0.110562 0.7385474,0.1862087 1.1104997,0.2657777 0.6991598,0.1908484 1.41266,0.3232295 2.1272364,0.4408272 0.8253666,0.1215843 1.6591855,0.1633362 2.492178,0.1871835 0.8995825,0.016997 1.7705425,-0.1898393 2.6391785,-0.3941623 0.55511,-0.1525852 1.113091,-0.2940505 1.674265,-0.4221727 0.09657,-0.028037 0.218275,-0.06015 0.311663,-0.099622 0.04366,-0.018455 0.167925,-0.08796 0.126825,-0.064339 -1.090157,0.6265448 -1.318898,0.8055441 -0.934771,0.5142088 0,0 1.210032,-0.496887 1.210032,-0.496887 l 0,0 C 14.587469,9.287663 13.917781,9.5601546 13.286902,9.7184253 12.74808,9.8372079 12.209068,9.95456 11.675097,10.094225 10.796304,10.296005 9.9128276,10.490875 9.0047529,10.47271 8.1723157,10.449266 7.3434588,10.384228 6.5190961,10.262023 5.7880404,10.153564 5.0595606,10.028326 4.3420003,9.8492299 3.9559118,9.7746337 3.571387,9.6922495 3.1845145,9.6218875 c 0,0 1.0805609,-0.7581292 1.0805609,-0.7581292 z"
         id="path4459"
         style="fill:url(#linearGradient4527);fill-opacity:1;stroke:none" />
    </g>
    <path
       style="fill:url(#radialGradient4537);fill-opacity:1.0;stroke:none"
       id="path4529"
       d="M 28.756571,15.814745 C 28.587344,15.671972 28.426072,15.520211 28.260714,15.373055 28.041041,15.182255 27.805349,15.010588 27.56597,14.845563 27.273889,14.651409 26.953719,14.50931 26.631,14.375332 26.236385,14.21518 25.826368,14.099 25.415405,13.989583 c -0.342328,-0.09292 -0.68668,-0.177695 -1.030045,-0.266556 -0.26479,-0.06486 -0.536137,-0.09971 -0.807136,-0.126259 -0.273164,-0.02404 -0.547514,-0.02552 -0.821507,-0.0271 -0.192782,-0.0049 -0.383136,0.01398 -0.563849,0.08245 -0.202098,0.102312 -0.549398,0.298892 0.35403,-0.208979 0.02107,-0.01185 -0.041,0.02566 -0.06098,0.03927 -0.05104,0.03477 -0.06769,0.04964 -0.116832,0.08884 -0.149591,0.127522 -0.277145,0.278306 -0.410549,0.422125 -0.128834,0.139615 -0.246889,0.288533 -0.35493,0.444675 -0.09452,0.14243 -0.160226,0.299977 -0.216343,0.460639 -0.05888,0.175721 -0.106099,0.355245 -0.147347,0.535847 -0.04457,0.234685 -0.05487,0.473343 -0.087,0.709838 -0.03518,0.250724 -0.05874,0.503568 -0.05651,0.756861 0.0064,0.21272 0.03898,0.423588 0.07393,0.633169 0.03269,0.206292 0.04306,0.415104 0.04831,0.623621 0.0031,0.210289 0.01805,0.420657 0.04087,0.629706 0.0278,0.208058 0.03959,0.417262 0.04505,0.626921 0.0092,0.246236 0.03065,0.490858 0.07606,0.733058 0.04274,0.218582 0.122349,0.42691 0.180773,0.641044 0.05573,0.179932 0.102201,0.362349 0.16965,0.538369 0.07323,0.188054 0.145856,0.37611 0.228354,0.560342 0.08933,0.194555 0.190603,0.382866 0.303632,0.564592 0.125995,0.195878 0.234237,0.402261 0.348193,0.605136 0.100057,0.180851 0.2159,0.352596 0.338534,0.518797 0.08355,0.119642 0.16121,0.244496 0.224514,0.376108 0.04277,0.118131 0.108709,0.222899 0.185927,0.321034 0.08086,0.09602 0.165004,0.189548 0.266744,0.263639 0.112756,0.06682 0.239975,0.103283 0.362064,0.149105 0.109812,0.0328 0.217263,0.07308 0.329777,0.09595 0.08918,0.01549 0.179894,0.01634 0.27013,0.01713 0.1096,-1.93e-4 0.219193,0.0012 0.328789,0.0019 0.134768,4.2e-5 0.269536,-0.0011 0.404303,-9.6e-4 0.121329,1.91e-4 0.242655,-2.74e-4 0.363982,-8.92e-4 0.09635,-0.0037 0.193609,0.0069 0.289012,-0.0084 0.11777,-0.024 0.225559,-0.07427 0.329994,-0.132208 0.202461,-0.102198 0.50641,-0.278757 -0.414264,0.242329 -0.01623,0.0092 0.03139,-0.02012 0.04685,-0.03055 0.0296,-0.01997 0.0756,-0.05293 0.1045,-0.07346 0.106367,-0.07599 0.203241,-0.163865 0.298221,-0.253361 0.104227,-0.09333 0.210745,-0.184205 0.320019,-0.271581 0.115492,-0.09751 0.242862,-0.179136 0.364164,-0.268951 0.09939,-0.08122 0.207364,-0.150361 0.305846,-0.232672 0.08034,-0.06947 0.138414,-0.158688 0.196702,-0.246332 0.05947,-0.09243 0.112943,-0.188495 0.163627,-0.285957 0.05185,-0.0937 0.09022,-0.193669 0.136008,-0.290185 0.06538,-0.118781 0.123159,-0.241427 0.18745,-0.360787 0.07003,-0.148651 0.140837,-0.297079 0.206637,-0.447686 0.06628,-0.161435 0.09244,-0.334901 0.13841,-0.502545 0.05806,-0.199521 0.131533,-0.393638 0.203286,-0.588473 0.07401,-0.220243 0.132866,-0.444985 0.194675,-0.668819 0.07066,-0.239957 0.119687,-0.485027 0.184321,-0.72661 0.06679,-0.22439 0.139431,-0.446158 0.196944,-0.673193 0.05318,-0.213543 0.0726,-0.433333 0.105891,-0.650455 0.02956,-0.204732 0.06606,-0.408297 0.08951,-0.613862 0.01512,-0.202347 0.02423,-0.404791 0.04192,-0.606975 0.01951,-0.17569 0.0489,-0.349841 0.07748,-0.52419 0.02091,-0.161838 0.03469,-0.324421 0.05341,-0.48657 0.01706,-0.142799 0.02104,-0.286454 0.0242,-0.430063 8.7e-5,-0.123517 0.0012,-0.247036 0.0011,-0.370552 7.16e-4,-0.129423 2.47e-4,-0.258844 -9.45e-4,-0.388263 0.0013,-0.09756 0.0017,-0.193903 -0.02294,-0.288784 -0.03194,-0.08658 -0.04202,-0.178912 -0.07375,-0.265305 -0.0059,-0.01471 -0.01197,-0.02935 -0.01764,-0.04414 -6.58e-4,-0.0017 -0.05823,-0.146977 -0.06581,-0.132341 -0.0046,0.009 0.0033,0.01989 0.005,0.02984 0.824911,-0.481626 0.566653,-0.496407 0.539101,-0.221308 -0.0082,0.08137 -0.0083,0.163617 -0.01,0.245285 -0.001,0.148507 0.0021,0.297 0.0024,0.445501 -3.54e-4,0.13877 -0.0025,0.277055 0.01044,0.41534 0.01937,0.155462 0.02274,0.31206 0.03311,0.468174 0.01994,0.225935 0.02911,0.452502 0.03306,0.679217 0.0043,0.268271 0.0042,0.536562 0.0042,0.804857 6e-6,0.271274 4e-6,0.542548 3e-6,0.813822 -0.0022,0.315018 -0.0024,0.630038 -0.0062,0.945042 0.0012,0.289761 -0.01681,0.580138 0.0034,0.86961 0.0098,0.140022 0.03576,0.338621 0.05266,0.477583 0.05617,0.49485 0.09695,0.991004 0.159426,1.485138 0.09047,0.478164 0.15939,0.959985 0.241855,1.439443 0.04339,0.295871 0.110541,0.587135 0.174306,0.879004 0.04299,0.146575 0.08102,0.295064 0.127071,0.440701 0.04946,0.123725 0.105551,0.221492 0.230076,0.276996 0.158284,0.04607 0.325782,0.04168 0.489119,0.04501 0.23403,0.01008 0.467762,-0.01671 0.695135,-0.07145 0.19777,-0.03997 0.372393,-0.140193 0.551167,-0.228215 0.235177,-0.113094 0.476381,-0.212089 0.716752,-0.313354 0.06475,-0.03159 0.162952,-0.07842 0.226466,-0.11361 0.03517,-0.01948 0.138764,-0.08124 0.103676,-0.06162 -0.739995,0.413823 -0.487676,0.291869 -0.272744,0.124957 0.136085,-0.101867 0.243408,-0.229203 0.328638,-0.37504 0.06214,-0.101117 0.09784,-0.213607 0.12648,-0.32791 0.02864,-0.125534 0.0326,-0.254779 0.03529,-0.382983 0.01013,-0.121581 -0.001,-0.232876 -0.05739,-0.341355 -0.05604,-0.08636 -0.143737,-0.135733 -0.229532,-0.187139 0,0 0.549446,-0.355382 0.549446,-0.355382 l 0,0 c 0.09544,0.05774 0.187073,0.121389 0.246368,0.218711 0.06212,0.118078 0.08291,0.237523 0.07149,0.370982 -0.0028,0.132004 -0.0061,0.264638 -0.02839,0.395089 -0.02709,0.118731 -0.05594,0.239631 -0.119907,0.344619 -0.08341,0.155424 -0.191389,0.294077 -0.331386,0.403204 -0.343027,0.28235 -0.743222,0.487792 -1.143115,0.677726 -0.24273,0.101198 -0.484621,0.204288 -0.720257,0.321353 -0.179474,0.09004 -0.359198,0.18016 -0.559315,0.214802 -0.231816,0.04631 -0.467217,0.06953 -0.703829,0.05978 -0.174058,-7.92e-4 -0.354308,0.0065 -0.518353,-0.06097 -0.130714,-0.07486 -0.198543,-0.18322 -0.25413,-0.321422 -0.05073,-0.14735 -0.0815,-0.30253 -0.121771,-0.452978 -0.05025,-0.298203 -0.10923,-0.594956 -0.148606,-0.894971 -0.03328,-0.225632 -0.05708,-0.452298 -0.09307,-0.677544 -0.04251,-0.266039 -0.04467,-0.246312 -0.09243,-0.513056 -0.01533,-0.08563 -0.02923,-0.171514 -0.04384,-0.257272 -0.06806,-0.493115 -0.10635,-0.988996 -0.163865,-1.483364 -0.01097,-0.08709 -0.05031,-0.392166 -0.0577,-0.480159 -0.02416,-0.287826 -0.0088,-0.576993 -0.01795,-0.865319 -0.0038,-0.312925 -0.004,-0.625867 -0.006,-0.938808 1.73e-4,-0.271344 5.21e-4,-0.542688 5.34e-4,-0.814033 -2.98e-4,-0.267425 -3.6e-4,-0.534892 -0.006,-0.802266 -0.007,-0.22377 -0.01485,-0.44777 -0.0419,-0.670219 -0.01638,-0.154938 -0.01626,-0.311193 -0.03571,-0.46597 -0.01433,-0.139717 -0.01978,-0.279043 -0.01574,-0.4196 -2.36e-4,-0.149711 0.0018,-0.299422 0.0029,-0.449128 1.59e-4,-0.102358 2.23e-4,-0.204731 0.0014,-0.307084 1.82e-4,-0.01537 -0.01176,-0.03728 8.31e-4,-0.0461 0.185598,-0.130041 0.384898,-0.239339 0.577347,-0.359008 0.06341,0.06045 0.08424,0.144853 0.116097,0.224416 0.03541,0.08782 0.04528,0.181443 0.07681,0.270719 0.03007,0.100361 0.03379,0.201885 0.02826,0.306198 -0.0011,0.129628 -0.0014,0.259256 -3.53e-4,0.388886 1.18e-4,0.124105 0.0019,0.248209 -0.0016,0.372297 -0.0024,0.145911 -0.0079,0.292108 -0.02459,0.437157 -0.01868,0.16313 -0.03665,0.325999 -0.0523,0.489412 -0.02816,0.173782 -0.06345,0.34636 -0.08245,0.521601 -0.01943,0.203064 -0.03638,0.405686 -0.0452,0.609538 -0.01983,0.20735 -0.05712,0.41192 -0.08932,0.617589 -0.03619,0.21835 -0.0525,0.440149 -0.103216,0.655802 -0.0596,0.227767 -0.127292,0.452151 -0.200719,0.675883 -0.0036,0.01294 -0.06367,0.231567 -0.06667,0.244048 -0.03861,0.160691 -0.06249,0.325077 -0.116295,0.482068 -0.06082,0.224766 -0.120106,0.449864 -0.189578,0.672184 -0.06951,0.193382 -0.142277,0.385479 -0.201623,0.582341 -0.04832,0.168695 -0.06938,0.343905 -0.131891,0.508269 -0.06163,0.153449 -0.139481,0.299403 -0.202146,0.452467 -0.06305,0.117615 -0.119275,0.23826 -0.18098,0.356484 -0.0522,0.09421 -0.08475,0.197666 -0.137652,0.29178 -0.05204,0.09719 -0.0993,0.197203 -0.159742,0.289657 -0.05569,0.09352 -0.117854,0.184452 -0.191293,0.264953 -0.09736,0.08755 -0.205093,0.158171 -0.308146,0.238345 -0.119479,0.09192 -0.247783,0.171296 -0.364154,0.267169 -0.108753,0.08611 -0.214461,0.175545 -0.320182,0.265382 -0.0946,0.09123 -0.190358,0.181667 -0.295061,0.261393 -0.265549,0.197682 -0.553838,0.362437 -0.85065,0.509312 -0.110458,0.05313 -0.223664,0.0999 -0.346626,0.114351 -0.09733,0.0055 -0.194835,0.0019 -0.292286,0.0023 -0.120519,-6.26e-4 -0.241036,-0.0011 -0.361556,-8.44e-4 -0.134163,2.71e-4 -0.268327,-7.56e-4 -0.40249,-2.42e-4 -0.111997,0.0011 -0.224014,0.0037 -0.336012,0.0017 -0.09286,-0.0026 -0.186159,-0.0071 -0.27679,-0.02934 -0.111775,-0.0293 -0.220579,-0.06897 -0.330119,-0.105515 -0.127565,-0.04613 -0.260046,-0.08842 -0.373107,-0.164901 -0.102996,-0.08125 -0.193429,-0.175766 -0.276118,-0.277604 -0.07951,-0.102519 -0.14826,-0.211667 -0.193693,-0.333963 -0.05723,-0.130452 -0.133891,-0.250543 -0.213148,-0.368584 -0.118471,-0.171709 -0.23021,-0.348356 -0.331003,-0.531035 -0.114366,-0.201928 -0.224898,-0.406243 -0.354252,-0.599258 -0.11053,-0.186286 -0.212218,-0.37716 -0.304877,-0.572973 -0.08339,-0.184905 -0.159425,-0.372506 -0.235512,-0.560473 -0.06841,-0.178488 -0.110397,-0.36445 -0.17013,-0.545856 -0.05628,-0.216924 -0.130431,-0.429009 -0.174909,-0.649129 -0.04917,-0.244514 -0.07115,-0.491178 -0.08458,-0.740113 -0.0075,-0.207309 -0.01907,-0.414594 -0.04688,-0.620331 -0.02332,-0.210804 -0.03346,-0.423647 -0.04131,-0.635443 -0.0058,-0.205615 -0.01296,-0.411701 -0.04603,-0.615137 -0.03367,-0.213428 -0.06648,-0.428064 -0.07334,-0.644293 -0.003,-0.256644 0.02297,-0.512279 0.05519,-0.766703 0.0096,-0.06781 0.02735,-0.185878 0.03337,-0.254333 0.01339,-0.152145 0.01097,-0.306222 0.04477,-0.456203 0.03583,-0.182627 0.08268,-0.363124 0.139745,-0.540277 0.05294,-0.165723 0.117956,-0.328577 0.209957,-0.476888 0.10604,-0.16123 0.226377,-0.311956 0.355225,-0.455604 0.132603,-0.142588 0.259094,-0.291462 0.39956,-0.426289 0.272753,-0.239958 0.599288,-0.417383 0.933337,-0.557542 0.184302,-0.05394 0.374813,-0.06616 0.566422,-0.05775 0.274025,0.0039 0.548265,0.01119 0.821438,0.03427 0.272287,0.02885 0.545444,0.0624 0.80984,0.136178 0.338756,0.0897 0.675787,0.185368 1.013659,0.278298 0.413434,0.112006 0.826644,0.227854 1.224129,0.389296 0.329235,0.133675 0.658169,0.273957 0.953899,0.47371 0.241509,0.167196 0.481927,0.336571 0.702324,0.531362 0.168643,0.146608 0.332185,0.301221 0.520762,0.422585 0,0 -0.558457,0.350782 -0.558457,0.350782 z"
       inkscape:connector-curvature="0"
       transform="translate(0,1020.3622)" />
  </g>
</svg>
